0
SECTION
2
HEADER
9
$INSUNITS
70
1
9
$ACADVER
1
AC1014
9
$HANDSEED
5
FFFF
0
ENDSEC
0
SECTION
2
TABLES
0
TABLE
2
VPORT
5
8
100
AcDbSymbolTable
0
ENDTAB
0
TABLE
2
LTYPE
5
5
100
AcDbSymbolTable
0
LTYPE
5
14
100
AcDbSymbolTableRecord
100
AcDbLinetypeTableRecord
2
BYBLOCK
70
0
0
LTYPE
5
15
100
AcDbSymbolTableRecord
100
AcDbLinetypeTableRecord
2
BYLAYER
70
0
0
LTYPE
5
16
100
AcDbSymbolTableRecord
100
AcDbLinetypeTableRecord
2
DASHED
70
0
3
Dashed __ __ __ __ __ __ __ __ __ __ __ __ __ _
72
65
73
2
40
0.75
49
0.5
74
0
49
-0.25
74
0
0
ENDTAB
0
TABLE
2
LAYER
5
2
100
AcDbSymbolTable
70
3
0
LAYER
5
50
100
AcDbSymbolTableRecord
100
AcDbLayerTableRecord
2
1
70
0
62
7
6
DASHED
0
LAYER
5
51
100
AcDbSymbolTableRecord
100
AcDbLayerTableRecord
2
0
70
0
62
7
6
CONTINUOUS
0
ENDTAB
0
TABLE
2
STYLE
5
3
100
AcDbSymbolTable
70
1
0
STYLE
5
11
100
AcDbSymbolTableRecord
100
AcDbTextStyleTableRecord
2
STANDARD
70
0
0
ENDTAB
0
TABLE
2
VIEW
5
6
100
AcDbSymbolTable
70
0
0
ENDTAB
0
TABLE
2
UCS
5
7
100
AcDbSymbolTable
70
0
0
ENDTAB
0
TABLE
2
APPID
5
9
100
AcDbSymbolTable
70
2
0
APPID
5
12
100
AcDbSymbolTableRecord
100
AcDbRegAppTableRecord
2
ACAD
70
0
0
ENDTAB
0
TABLE
2
DIMSTYLE
5
A
100
AcDbSymbolTable
70
1
0
ENDTAB
0
TABLE
2
BLOCK_RECORD
5
1
100
AcDbSymbolTable
70
1
0
BLOCK_RECORD
5
1F
100
AcDbSymbolTableRecord
100
AcDbBlockTableRecord
2
*MODEL_SPACE
0
BLOCK_RECORD
5
1B
100
AcDbSymbolTableRecord
100
AcDbBlockTableRecord
2
*PAPER_SPACE
0
ENDTAB
0
ENDSEC
0
SECTION
2
BLOCKS
0
BLOCK
5
20
100
AcDbEntity
100
AcDbBlockBegin
2
*MODEL_SPACE
0
ENDBLK
5
21
100
AcDbEntity
100
AcDbBlockEnd
0
BLOCK
5
1C
100
AcDbEntity
100
AcDbBlockBegin
2
*PAPER_SPACE
0
ENDBLK
5
1D
100
AcDbEntity
100
AcDbBlockEnd
0
ENDSEC
0
SECTION
2
ENTITIES
0
LWPOLYLINE
5
100
100
AcDbEntity
8
OUTER_PROFILES
100
AcDbPolyline
90
28
70
1
43
0.0
10
12.434083648846492
20
1.072024774343451
10
12.66608364884649
20
1.0720247743434512
10
12.66608364884649
20
0.99399067418385523
10
13.506108423189939
20
0.99399067418385489
10
13.506108423189943
20
8.9261083030419979
10
12.666083648846492
20
8.9261083030419996
10
12.666083648846492
20
8.8480742028823993
10
12.434083648846492
20
8.8480742028823993
10
12.434083648846492
20
9.0800742028823951
10
13.092117749006091
20
9.0800742028824004
10
13.092117749006091
20
9.9200989772258481
10
-2.7974123455122052e-15
20
9.9200989772258481
10
-2.7974123455122052e-15
20
9.0800742028823986
10
0.6580341001596044
20
9.0800742028823986
10
0.6580341001596044
20
8.8480742028823993
10
0.42603410015960486
20
8.8480742028823993
10
0.4260341001596063
20
8.9261083030419979
10
-0.41399067418384017
20
8.9261083030419996
10
-0.41399067418384017
20
0.99399067418385634
10
0.42603410015960486
20
0.99399067418385567
10
0.42603410015960486
20
1.0720247743434519
10
0.6580341001596044
20
1.0720247743434517
10
0.6580341001596044
20
0.84002477434345024
10
-1.3987061727561026e-15
20
0.84002477434345169
10
0
20
0
10
13.092117749006091
20
1.7483827159451283e-16
10
13.092117749006094
20
0.8400247743434468
10
12.434083648846492
20
0.84002477434344858
0
LWPOLYLINE
5
101
100
AcDbEntity
8
INTERIOR_PROFILES
100
AcDbPolyline
90
8
70
1
43
0.0
10
11.837270423662677
20
5.8036252962800834
10
11.837270423662677
20
4.1221099740174738
42
-0.2271800145726211
10
10.303047301731159
20
2.6012293794605443
10
8.662724468542736
20
2.6012293794605443
42
-0.23124724705738905
10
7.1157876588290332
20
4.1586002747455861
10
7.1157876588290305
20
5.7671349955519728
42
-0.23195127869267423
10
8.6460583482925912
20
7.3136684812475918
10
10.333612270046405
20
7.3136684812475874
42
-0.22377217758225598
0
LWPOLYLINE
5
102
100
AcDbEntity
8
INTERIOR_PROFILES
100
AcDbPolyline
90
8
70
1
43
0.0
10
2.1157876588290345
20
4.1586002747455852
42
0.23124724705738917
10
3.662724468542736
20
2.6012293794605448
10
5.3030473017311612
20
2.6012293794605443
42
0.22718001457262094
10
6.8372704236626776
20
4.1221099740174729
10
6.837270423662682
20
5.8036252962800852
42
0.22377217758225632
10
5.3336122700464079
20
7.3136684812475918
10
3.6460583482925952
20
7.3136684812475918
42
0.23195127869267412
10
2.1157876588290345
20
5.767134995551972
0
CIRCLE
5
103
100
AcDbEntity
8
INTERIOR_PROFILES
100
AcDbCircle
10
6.5460590397064697
20
1.4600495486869012
30
0
40
0.085950000000000776
210
-0
220
0
230
1
0
CIRCLE
5
104
100
AcDbEntity
8
INTERIOR_PROFILES
100
AcDbCircle
10
1.0460590397064733
20
8.4600495486869018
30
0
40
0.085950000000000776
210
-0
220
0
230
1
0
CIRCLE
5
105
100
AcDbEntity
8
INTERIOR_PROFILES
100
AcDbCircle
10
6.5460590397064706
20
8.4600495486869018
30
0
40
0.085950000000000776
210
-0
220
0
230
1
0
CIRCLE
5
106
100
AcDbEntity
8
INTERIOR_PROFILES
100
AcDbCircle
10
1.046059039706472
20
1.4600495486869027
30
0
40
0.085950000000000776
210
-0
220
0
230
1
0
CIRCLE
5
107
100
AcDbEntity
8
INTERIOR_PROFILES
100
AcDbCircle
10
12.046059039706471
20
1.4600495486869005
30
0
40
0.085950000000000776
210
-0
220
0
230
1
0
CIRCLE
5
108
100
AcDbEntity
8
INTERIOR_PROFILES
100
AcDbCircle
10
12.046059039706471
20
8.4600495486869001
30
0
40
0.085950000000000776
210
-0
220
0
230
1
0
LINE
5
109
100
AcDbEntity
8
BEND
100
AcDbLine
10
12.434083648846496
20
0.95602477434345001
30
8.2444735112707094e-14
11
0.6580341001595974
21
0.95602477434345212
31
3.3432908725482251e-14
0
LINE
5
110
100
AcDbEntity
8
BEND
100
AcDbLine
10
12.550083648846494
20
8.8480742028824011
30
6.1368920926666966e-14
11
12.550083648846494
21
1.0720247743434543
31
6.0696191408693759e-14
0
LINE
5
111
100
AcDbEntity
8
BEND
100
AcDbLine
10
0.6580341001596044
20
8.9640742028824025
30
6.6297040089263368e-14
11
12.434083648846491
21
8.9640742028824008
31
6.1770834754374607e-14
0
LINE
5
112
100
AcDbEntity
8
BEND
100
AcDbLine
10
0.54203410015960107
20
1.0720247743434534
30
6.7919940303143078e-14
11
0.54203410015960252
21
8.8480742028824011
31
6.6694503982392323e-14
0
LINE
5
113
100
AcDbEntity
8
BEND_EXTENT
100
AcDbLine
10
12.602108423189939
20
8.8480742028823993
30
6.1739598478460567e-14
11
12.602108423189939
21
1.0720247743434514
31
6.058626371371993e-14
0
LINE
5
114
100
AcDbEntity
8
BEND_EXTENT
100
AcDbLine
10
12.498058874503045
20
1.0720247743434512
30
6.1183392399736728e-14
11
12.498058874503046
21
8.8480742028823993
31
6.1183392399736728e-14
0
LINE
5
115
100
AcDbEntity
8
BEND_EXTENT
100
AcDbLine
10
0.49000932581615853
20
1.0720247743434514
30
7.2763227100887172e-14
11
0.49000932581615991
21
8.8480742028823993
31
7.1110788402866944e-14
0
LINE
5
116
100
AcDbEntity
8
BEND_EXTENT
100
AcDbLine
10
0.59405887450304928
20
8.8480742028823993
30
6.3699147683288475e-14
11
0.59405887450304795
21
1.0720247743434514
31
6.3699147683288475e-14
0
LINE
5
117
100
AcDbEntity
8
BEND_EXTENT
100
AcDbLine
10
0.6580341001596044
20
9.0160989772258517
30
6.9138782908072241e-14
11
12.434083648846492
21
9.0160989772258482
31
6.3961155939895065e-14
0
LINE
5
118
100
AcDbEntity
8
BEND_EXTENT
100
AcDbLine
10
12.434083648846492
20
8.9120494285389533
30
6.1195973103204747e-14
11
0.6580341001596044
21
8.9120494285389569
31
6.3511728708225945e-14
0
LINE
5
119
100
AcDbEntity
8
BEND_EXTENT
100
AcDbLine
10
12.434083648846492
20
0.90399999999999892
30
8.0890202656257033e-14
11
0.6580341001596044
21
0.90400000000000091
31
3.1229143600368726e-14
0
LINE
5
120
100
AcDbEntity
8
BEND_EXTENT
100
AcDbLine
10
0.6580341001596044
20
1.0080495486869019
30
6.3511728708225945e-14
11
12.434083648846492
21
1.008049548686899
31
6.1195973103204735e-14
0
ENDSEC
0
SECTION
2
OBJECTS
0
DICTIONARY
5
C
100
AcDbDictionary
3
ACAD_GROUP
350
D
3
ACAD_MLINESTYLE
350
17
0
DICTIONARY
5
D
100
AcDbDictionary
0
DICTIONARY
5
1A
330
C
100
AcDbDictionary
0
DICTIONARY
5
17
100
AcDbDictionary
0
ENDSEC
0
EOF
