  0
SECTION
  2
HEADER
  9
$ACADVER
  1
AC1014
  9
$HANDSEED
  5
FFFF
  9
$INSUNITS
 70
     1
  9
$MEASUREMENT
 70
     1
  0
ENDSEC
  0
SECTION
  2
TABLES
  0
TABLE
  2
VPORT
  5
8
330
0
100
AcDbSymbolTable
 70
     4
  0
VPORT
  5
2E
330
8
100
AcDbSymbolTableRecord
100
AcDbViewportTableRecord
  2
*ACTIVE
 70
     0
 10
0.0
 20
0.0
 11
1.0
 21
1.0
 12
210.0
 22
148.5
 13
0.0
 23
0.0
 14
10.0
 24
10.0
 15
10.0
 25
10.0
 16
0.0
 26
0.0
 36
1.0
 17
0.0
 27
0.0
 37
0.0
 40
341.0
 41
1.24
 42
50.0
 43
0.0
 44
0.0
 50
0.0
 51
0.0
 71
     0
 72
   100
 73
     1
 74
     3
 75
     0
 76
     0
 77
     0
 78
     0
  0
ENDTAB
  0
TABLE
  2
LTYPE
  5
5
330
0
100
AcDbSymbolTable
 70
     1
  0
LTYPE
  5
14
330
5
100
AcDbSymbolTableRecord
100
AcDbLinetypeTableRecord
  2
BYBLOCK
 70
     0
  3

 72
    65
 73
     0
 40
0.0
  0
LTYPE
  5
15
330
5
100
AcDbSymbolTableRecord
100
AcDbLinetypeTableRecord
  2
BYLAYER
 70
     0
  3

 72
    65
 73
     0
 40
0.0
  0
LTYPE
  5
16
330
5
100
AcDbSymbolTableRecord
100
AcDbLinetypeTableRecord
  2
CONTINUOUS
 70
     0
  3
Solid line
 72
    65
 73
     0
 40
0.0
  0
ENDTAB
  0
TABLE
  2
LAYER
  5
2
100
AcDbSymbolTable
 70
2
  0
LAYER
  5
50
100
AcDbSymbolTableRecord
100
AcDbLayerTableRecord
  2
0
 70
0
  6
CONTINUOUS
  0
LAYER
  5
51
100
AcDbSymbolTableRecord
100
AcDbLayerTableRecord
  2
path
 70
0
  6
CONTINUOUS
  0
ENDTAB
  0
TABLE
  2
STYLE
  5
3
330
0
100
AcDbSymbolTable
 70
     1
  0
STYLE
  5
11
330
3
100
AcDbSymbolTableRecord
100
AcDbTextStyleTableRecord
  2
STANDARD
 70
     0
 40
0.0
 41
1.0
 50
0.0
 71
     0
 42
2.5
  3
txt
  4

  0
ENDTAB
  0
TABLE
  2
VIEW
  5
6
330
0
100
AcDbSymbolTable
 70
     0
  0
ENDTAB
  0
TABLE
  2
UCS
  5
7
330
0
100
AcDbSymbolTable
 70
     0
  0
ENDTAB
  0
TABLE
  2
APPID
  5
9
330
0
100
AcDbSymbolTable
 70
     2
  0
APPID
  5
12
330
9
100
AcDbSymbolTableRecord
100
AcDbRegAppTableRecord
  2
ACAD
 70
     0
  0
ENDTAB
  0
TABLE
  2
DIMSTYLE
  5
A
330
0
100
AcDbSymbolTable
 70
     1
  0
DIMSTYLE
105
27
330
A
100
AcDbSymbolTableRecord
100
AcDbDimStyleTableRecord
  2
ISO-25
 70
     0
  3

  4

  5

  6

  7

 40
1.0
 41
2.5
 42
0.625
 43
3.75
 44
1.25
 45
0.0
 46
0.0
 47
0.0
 48
0.0
140
2.5
141
2.5
142
0.0
143
0.03937007874016
144
1.0
145
0.0
146
1.0
147
0.625
 71
     0
 72
     0
 73
     0
 74
     0
 75
     0
 76
     0
 77
     1
 78
     8
170
     0
171
     3
172
     1
173
     0
174
     0
175
     0
176
     0
177
     0
178
     0
270
     2
271
     2
272
     2
273
     2
274
     3
340
11
275
     0
280
     0
281
     0
282
     0
283
     0
284
     8
285
     0
286
     0
287
     3
288
     0
  0
ENDTAB
  0
TABLE
  2
BLOCK_RECORD
  5
1
330
0
100
AcDbSymbolTable
 70
     1
  0
BLOCK_RECORD
  5
1F
330
1
100
AcDbSymbolTableRecord
100
AcDbBlockTableRecord
  2
*MODEL_SPACE
  0
BLOCK_RECORD
  5
1B
330
1
100
AcDbSymbolTableRecord
100
AcDbBlockTableRecord
  2
*PAPER_SPACE
  0
ENDTAB
  0
ENDSEC
  0
SECTION
  2
BLOCKS
  0
BLOCK
  5
20
330
1F
100
AcDbEntity
  8
0
100
AcDbBlockBegin
  2
*MODEL_SPACE
 70
     0
 10
0.0
 20
0.0
 30
0.0
  3
*MODEL_SPACE
  1

  0
ENDBLK
  5
21
330
1F
100
AcDbEntity
  8
0
100
AcDbBlockEnd
  0
BLOCK
  5
1C
330
1B
100
AcDbEntity
 67
     1
  8
0
100
AcDbBlockBegin
  2
*PAPER_SPACE
  1

  0
ENDBLK
  5
1D
330
1B
100
AcDbEntity
 67
     1
  8
0
100
AcDbBlockEnd
  0
ENDSEC
  0
SECTION
  2
ENTITIES
  0
SPLINE
  5
100
100
AcDbEntity
  8
0
 62
7
100
AcDbSpline
 70
8
 71
3
 72
8
 73
4
 74
0
 40
0
 40
0
 40
0
 40
0
 40
1
 40
1
 40
1
 40
1
 10
5.057621
 20
5.934435
 30
0.0
 10
4.959272
 20
5.945987
 30
0.0
 10
4.987561
 20
5.902754
 30
0.0
 10
5.059040
 20
5.864909
 30
0.0
  0
SPLINE
  5
101
100
AcDbEntity
  8
0
 62
7
100
AcDbSpline
 70
8
 71
3
 72
8
 73
4
 74
0
 40
0
 40
0
 40
0
 40
0
 40
1
 40
1
 40
1
 40
1
 10
5.059040
 20
5.864909
 30
0.0
 10
5.116694
 20
5.834384
 30
0.0
 10
5.122282
 20
5.762493
 30
0.0
 10
5.118834
 20
5.730579
 30
0.0
  0
SPLINE
  5
102
100
AcDbEntity
  8
0
 62
7
100
AcDbSpline
 70
8
 71
3
 72
8
 73
4
 74
0
 40
0
 40
0
 40
0
 40
0
 40
1
 40
1
 40
1
 40
1
 10
5.118834
 20
5.730579
 30
0.0
 10
5.115387
 20
5.698665
 30
0.0
 10
5.104870
 20
5.630112
 30
0.0
 10
5.081899
 20
5.547227
 30
0.0
  0
SPLINE
  5
103
100
AcDbEntity
  8
0
 62
7
100
AcDbSpline
 70
8
 71
3
 72
8
 73
4
 74
0
 40
0
 40
0
 40
0
 40
0
 40
1
 40
1
 40
1
 40
1
 10
5.081899
 20
5.547227
 30
0.0
 10
5.063161
 20
5.487112
 30
0.0
 10
5.032005
 20
5.384005
 30
0.0
 10
5.010471
 20
5.330448
 30
0.0
  0
SPLINE
  5
104
100
AcDbEntity
  8
0
 62
7
100
AcDbSpline
 70
8
 71
3
 72
8
 73
4
 74
0
 40
0
 40
0
 40
0
 40
0
 40
1
 40
1
 40
1
 40
1
 10
5.010471
 20
5.330448
 30
0.0
 10
4.988659
 20
5.276198
 30
0.0
 10
4.954771
 20
5.215268
 30
0.0
 10
4.926595
 20
5.161050
 30
0.0
  0
SPLINE
  5
105
100
AcDbEntity
  8
0
 62
7
100
AcDbSpline
 70
8
 71
3
 72
8
 73
4
 74
0
 40
0
 40
0
 40
0
 40
0
 40
1
 40
1
 40
1
 40
1
 10
4.926595
 20
5.161050
 30
0.0
 10
4.884137
 20
5.079351
 30
0.0
 10
4.816092
 20
5.128913
 30
0.0
 10
4.674522
 20
5.264686
 30
0.0
  0
SPLINE
  5
106
100
AcDbEntity
  8
0
 62
7
100
AcDbSpline
 70
8
 71
3
 72
8
 73
4
 74
0
 40
0
 40
0
 40
0
 40
0
 40
1
 40
1
 40
1
 40
1
 10
4.674522
 20
5.264686
 30
0.0
 10
4.475651
 20
5.455414
 30
0.0
 10
4.437199
 20
5.442812
 30
0.0
 10
4.244769
 20
5.305090
 30
0.0
  0
SPLINE
  5
107
100
AcDbEntity
  8
0
 62
7
100
AcDbSpline
 70
8
 71
3
 72
8
 73
4
 74
0
 40
0
 40
0
 40
0
 40
0
 40
1
 40
1
 40
1
 40
1
 10
4.244769
 20
5.305090
 30
0.0
 10
4.117976
 20
5.214344
 30
0.0
 10
4.007287
 20
5.141100
 30
0.0
 10
3.798494
 20
5.157224
 30
0.0
  0
SPLINE
  5
108
100
AcDbEntity
  8
0
 62
7
100
AcDbSpline
 70
8
 71
3
 72
8
 73
4
 74
0
 40
0
 40
0
 40
0
 40
0
 40
1
 40
1
 40
1
 40
1
 10
3.798494
 20
5.157224
 30
0.0
 10
3.695423
 20
5.165184
 30
0.0
 10
3.635791
 20
5.257208
 30
0.0
 10
3.593192
 20
5.004067
 30
0.0
  0
SPLINE
  5
109
100
AcDbEntity
  8
0
 62
7
100
AcDbSpline
 70
8
 71
3
 72
8
 73
4
 74
0
 40
0
 40
0
 40
0
 40
0
 40
1
 40
1
 40
1
 40
1
 10
3.593192
 20
5.004067
 30
0.0
 10
3.579600
 20
4.923297
 30
0.0
 10
3.470167
 20
4.895017
 30
0.0
 10
3.049442
 20
4.873481
 30
0.0
  0
SPLINE
  5
10a
100
AcDbEntity
  8
0
 62
7
100
AcDbSpline
 70
8
 71
3
 72
8
 73
4
 74
0
 40
0
 40
0
 40
0
 40
0
 40
1
 40
1
 40
1
 40
1
 10
3.049442
 20
4.873481
 30
0.0
 10
2.607999
 20
4.850884
 30
0.0
 10
2.486982
 20
4.799360
 30
0.0
 10
2.873787
 20
5.219420
 30
0.0
  0
SPLINE
  5
10b
100
AcDbEntity
  8
0
 62
7
100
AcDbSpline
 70
8
 71
3
 72
8
 73
4
 74
0
 40
0
 40
0
 40
0
 40
0
 40
1
 40
1
 40
1
 40
1
 10
2.873787
 20
5.219420
 30
0.0
 10
3.321706
 20
5.603097
 30
0.0
 10
3.469239
 20
5.564083
 30
0.0
 10
3.580799
 20
5.422043
 30
0.0
  0
SPLINE
  5
10c
100
AcDbEntity
  8
0
 62
7
100
AcDbSpline
 70
8
 71
3
 72
8
 73
4
 74
0
 40
0
 40
0
 40
0
 40
0
 40
1
 40
1
 40
1
 40
1
 10
3.580799
 20
5.422043
 30
0.0
 10
3.698008
 20
5.272810
 30
0.0
 10
3.976894
 20
5.223958
 30
0.0
 10
4.137123
 20
5.324593
 30
0.0
  0
SPLINE
  5
10d
100
AcDbEntity
  8
0
 62
7
100
AcDbSpline
 70
8
 71
3
 72
8
 73
4
 74
0
 40
0
 40
0
 40
0
 40
0
 40
1
 40
1
 40
1
 40
1
 10
4.137123
 20
5.324593
 30
0.0
 10
4.302413
 20
5.428406
 30
0.0
 10
4.279773
 20
5.476343
 30
0.0
 10
4.094918
 20
5.413960
 30
0.0
  0
SPLINE
  5
10e
100
AcDbEntity
  8
0
 62
7
100
AcDbSpline
 70
8
 71
3
 72
8
 73
4
 74
0
 40
0
 40
0
 40
0
 40
0
 40
1
 40
1
 40
1
 40
1
 10
4.094918
 20
5.413960
 30
0.0
 10
3.912427
 20
5.352374
 30
0.0
 10
3.791435
 20
5.408917
 30
0.0
 10
3.697329
 20
5.599762
 30
0.0
  0
SPLINE
  5
10f
100
AcDbEntity
  8
0
 62
7
100
AcDbSpline
 70
8
 71
3
 72
8
 73
4
 74
0
 40
0
 40
0
 40
0
 40
0
 40
1
 40
1
 40
1
 40
1
 10
3.697329
 20
5.599762
 30
0.0
 10
3.600454
 20
5.796224
 30
0.0
 10
3.595844
 20
6.342014
 30
0.0
 10
3.691530
 20
6.286375
 30
0.0
  0
SPLINE
  5
110
100
AcDbEntity
  8
0
 62
7
100
AcDbSpline
 70
8
 71
3
 72
8
 73
4
 74
0
 40
0
 40
0
 40
0
 40
0
 40
1
 40
1
 40
1
 40
1
 10
3.691530
 20
6.286375
 30
0.0
 10
3.723878
 20
6.267566
 30
0.0
 10
3.873596
 20
6.184256
 30
0.0
 10
4.024236
 20
6.101241
 30
0.0
  0
SPLINE
  5
111
100
AcDbEntity
  8
0
 62
7
100
AcDbSpline
 70
8
 71
3
 72
8
 73
4
 74
0
 40
0
 40
0
 40
0
 40
0
 40
1
 40
1
 40
1
 40
1
 10
4.024236
 20
6.101241
 30
0.0
 10
4.417664
 20
5.884433
 30
0.0
 10
4.449475
 20
5.684939
 30
0.0
 10
4.338290
 20
5.559576
 30
0.0
  0
SPLINE
  5
112
100
AcDbEntity
  8
0
 62
7
100
AcDbSpline
 70
8
 71
3
 72
8
 73
4
 74
0
 40
0
 40
0
 40
0
 40
0
 40
1
 40
1
 40
1
 40
1
 10
4.338290
 20
5.559576
 30
0.0
 10
4.274019
 20
5.487109
 30
0.0
 10
4.314384
 20
5.482736
 30
0.0
 10
4.343865
 20
5.480847
 30
0.0
  0
SPLINE
  5
113
100
AcDbEntity
  8
0
 62
7
100
AcDbSpline
 70
8
 71
3
 72
8
 73
4
 74
0
 40
0
 40
0
 40
0
 40
0
 40
1
 40
1
 40
1
 40
1
 10
4.343865
 20
5.480847
 30
0.0
 10
4.387370
 20
5.478061
 30
0.0
 10
4.471752
 20
5.502877
 30
0.0
 10
4.476440
 20
5.574720
 30
0.0
  0
SPLINE
  5
114
100
AcDbEntity
  8
0
 62
7
100
AcDbSpline
 70
8
 71
3
 72
8
 73
4
 74
0
 40
0
 40
0
 40
0
 40
0
 40
1
 40
1
 40
1
 40
1
 10
4.476440
 20
5.574720
 30
0.0
 10
4.494727
 20
5.854978
 30
0.0
 10
4.598592
 20
5.888573
 30
0.0
 10
4.695175
 20
5.899998
 30
0.0
  0
SPLINE
  5
115
100
AcDbEntity
  8
0
 62
7
100
AcDbSpline
 70
8
 71
3
 72
8
 73
4
 74
0
 40
0
 40
0
 40
0
 40
0
 40
1
 40
1
 40
1
 40
1
 10
4.695175
 20
5.899998
 30
0.0
 10
4.717099
 20
5.902592
 30
0.0
 10
4.769645
 20
5.864233
 30
0.0
 10
4.803630
 20
5.879408
 30
0.0
  0
SPLINE
  5
116
100
AcDbEntity
  8
0
 62
7
100
AcDbSpline
 70
8
 71
3
 72
8
 73
4
 74
0
 40
0
 40
0
 40
0
 40
0
 40
1
 40
1
 40
1
 40
1
 10
4.803630
 20
5.879408
 30
0.0
 10
4.850599
 20
5.900381
 30
0.0
 10
4.868704
 20
5.975588
 30
0.0
 10
4.909393
 20
5.994947
 30
0.0
  0
SPLINE
  5
117
100
AcDbEntity
  8
0
 62
7
100
AcDbSpline
 70
8
 71
3
 72
8
 73
4
 74
0
 40
0
 40
0
 40
0
 40
0
 40
1
 40
1
 40
1
 40
1
 10
4.909393
 20
5.994947
 30
0.0
 10
5.039350
 20
6.056778
 30
0.0
 10
5.155637
 20
6.029476
 30
0.0
 10
5.248053
 20
5.963472
 30
0.0
  0
SPLINE
  5
118
100
AcDbEntity
  8
0
 62
7
100
AcDbSpline
 70
8
 71
3
 72
8
 73
4
 74
0
 40
0
 40
0
 40
0
 40
0
 40
1
 40
1
 40
1
 40
1
 10
5.248053
 20
5.963472
 30
0.0
 10
5.267193
 20
5.949801
 30
0.0
 10
5.312009
 20
5.933299
 30
0.0
 10
5.309282
 20
5.889015
 30
0.0
  0
SPLINE
  5
119
100
AcDbEntity
  8
0
 62
7
100
AcDbSpline
 70
8
 71
3
 72
8
 73
4
 74
0
 40
0
 40
0
 40
0
 40
0
 40
1
 40
1
 40
1
 40
1
 10
5.309282
 20
5.889015
 30
0.0
 10
5.306161
 20
5.838357
 30
0.0
 10
5.274421
 20
5.813275
 30
0.0
 10
5.252823
 20
5.814412
 30
0.0
  0
SPLINE
  5
11a
100
AcDbEntity
  8
0
 62
7
100
AcDbSpline
 70
8
 71
3
 72
8
 73
4
 74
0
 40
0
 40
0
 40
0
 40
0
 40
1
 40
1
 40
1
 40
1
 10
5.252823
 20
5.814412
 30
0.0
 10
5.232576
 20
5.815543
 30
0.0
 10
5.168442
 20
5.921417
 30
0.0
 10
5.057621
 20
5.934435
 30
0.0
  0
SPLINE
  5
11b
100
AcDbEntity
  8
0
 62
7
100
AcDbSpline
 70
8
 71
3
 72
8
 73
4
 74
0
 40
0
 40
0
 40
0
 40
0
 40
1
 40
1
 40
1
 40
1
 10
4.773457
 20
3.644252
 30
0.0
 10
4.700764
 20
3.579213
 30
0.0
 10
4.683500
 20
3.526117
 30
0.0
 10
4.774320
 20
3.425743
 30
0.0
  0
SPLINE
  5
11c
100
AcDbEntity
  8
0
 62
7
100
AcDbSpline
 70
8
 71
3
 72
8
 73
4
 74
0
 40
0
 40
0
 40
0
 40
0
 40
1
 40
1
 40
1
 40
1
 10
4.774320
 20
3.425743
 30
0.0
 10
4.840280
 20
3.344836
 30
0.0
 10
4.698034
 20
3.182056
 30
0.0
 10
4.603229
 20
3.086581
 30
0.0
  0
SPLINE
  5
11d
100
AcDbEntity
  8
0
 62
7
100
AcDbSpline
 70
8
 71
3
 72
8
 73
4
 74
0
 40
0
 40
0
 40
0
 40
0
 40
1
 40
1
 40
1
 40
1
 10
4.603229
 20
3.086581
 30
0.0
 10
4.478900
 20
2.961373
 30
0.0
 10
4.358878
 20
2.941014
 30
0.0
 10
4.343415
 20
2.952474
 30
0.0
  0
SPLINE
  5
11e
100
AcDbEntity
  8
0
 62
7
100
AcDbSpline
 70
8
 71
3
 72
8
 73
4
 74
0
 40
0
 40
0
 40
0
 40
0
 40
1
 40
1
 40
1
 40
1
 10
4.343415
 20
2.952474
 30
0.0
 10
4.117686
 20
3.119777
 30
0.0
 10
4.226909
 20
3.706826
 30
0.0
 10
4.541856
 20
3.661816
 30
0.0
  0
SPLINE
  5
11f
100
AcDbEntity
  8
0
 62
7
100
AcDbSpline
 70
8
 71
3
 72
8
 73
4
 74
0
 40
0
 40
0
 40
0
 40
0
 40
1
 40
1
 40
1
 40
1
 10
4.541856
 20
3.661816
 30
0.0
 10
4.674596
 20
3.642846
 30
0.0
 10
4.854272
 20
3.771959
 30
0.0
 10
4.871762
 20
3.932680
 30
0.0
  0
SPLINE
  5
120
100
AcDbEntity
  8
0
 62
7
100
AcDbSpline
 70
8
 71
3
 72
8
 73
4
 74
0
 40
0
 40
0
 40
0
 40
0
 40
1
 40
1
 40
1
 40
1
 10
4.871762
 20
3.932680
 30
0.0
 10
4.879555
 20
4.004293
 30
0.0
 10
4.923961
 20
4.162464
 30
0.0
 10
5.080183
 20
4.442933
 30
0.0
  0
SPLINE
  5
121
100
AcDbEntity
  8
0
 62
7
100
AcDbSpline
 70
8
 71
3
 72
8
 73
4
 74
0
 40
0
 40
0
 40
0
 40
0
 40
1
 40
1
 40
1
 40
1
 10
5.080183
 20
4.442933
 30
0.0
 10
5.130526
 20
4.517756
 30
0.0
 10
5.143614
 20
4.588445
 30
0.0
 10
5.164146
 20
4.631481
 30
0.0
  0
SPLINE
  5
122
100
AcDbEntity
  8
0
 62
7
100
AcDbSpline
 70
8
 71
3
 72
8
 73
4
 74
0
 40
0
 40
0
 40
0
 40
0
 40
1
 40
1
 40
1
 40
1
 10
5.164146
 20
4.631481
 30
0.0
 10
5.187195
 20
4.679790
 30
0.0
 10
5.213823
 20
4.693742
 30
0.0
 10
5.197032
 20
4.757609
 30
0.0
  0
SPLINE
  5
123
100
AcDbEntity
  8
0
 62
7
100
AcDbSpline
 70
8
 71
3
 72
8
 73
4
 74
0
 40
0
 40
0
 40
0
 40
0
 40
1
 40
1
 40
1
 40
1
 10
5.197032
 20
4.757609
 30
0.0
 10
5.181491
 20
4.816721
 30
0.0
 10
5.115279
 20
4.829592
 30
0.0
 10
5.023169
 20
4.834250
 30
0.0
  0
SPLINE
  5
124
100
AcDbEntity
  8
0
 62
7
100
AcDbSpline
 70
8
 71
3
 72
8
 73
4
 74
0
 40
0
 40
0
 40
0
 40
0
 40
1
 40
1
 40
1
 40
1
 10
5.023169
 20
4.834250
 30
0.0
 10
4.987636
 20
4.836046
 30
0.0
 10
4.970680
 20
4.793150
 30
0.0
 10
5.024012
 20
4.749197
 30
0.0
  0
SPLINE
  5
125
100
AcDbEntity
  8
0
 62
7
100
AcDbSpline
 70
8
 71
3
 72
8
 73
4
 74
0
 40
0
 40
0
 40
0
 40
0
 40
1
 40
1
 40
1
 40
1
 10
5.024012
 20
4.749197
 30
0.0
 10
5.068622
 20
4.712432
 30
0.0
 10
5.092064
 20
4.656602
 30
0.0
 10
5.076605
 20
4.602901
 30
0.0
  0
SPLINE
  5
126
100
AcDbEntity
  8
0
 62
7
100
AcDbSpline
 70
8
 71
3
 72
8
 73
4
 74
0
 40
0
 40
0
 40
0
 40
0
 40
1
 40
1
 40
1
 40
1
 10
5.076605
 20
4.602901
 30
0.0
 10
5.059680
 20
4.544105
 30
0.0
 10
5.047779
 20
4.531287
 30
0.0
 10
4.992748
 20
4.446492
 30
0.0
  0
SPLINE
  5
127
100
AcDbEntity
  8
0
 62
7
100
AcDbSpline
 70
8
 71
3
 72
8
 73
4
 74
0
 40
0
 40
0
 40
0
 40
0
 40
1
 40
1
 40
1
 40
1
 10
4.992748
 20
4.446492
 30
0.0
 10
4.897308
 20
4.308043
 30
0.0
 10
4.827467
 20
4.221449
 30
0.0
 10
4.795554
 20
4.151467
 30
0.0
  0
SPLINE
  5
128
100
AcDbEntity
  8
0
 62
7
100
AcDbSpline
 70
8
 71
3
 72
8
 73
4
 74
0
 40
0
 40
0
 40
0
 40
0
 40
1
 40
1
 40
1
 40
1
 10
4.795554
 20
4.151467
 30
0.0
 10
4.676913
 20
3.891298
 30
0.0
 10
4.585475
 20
3.863290
 30
0.0
 10
4.571129
 20
3.996097
 30
0.0
  0
SPLINE
  5
129
100
AcDbEntity
  8
0
 62
7
100
AcDbSpline
 70
8
 71
3
 72
8
 73
4
 74
0
 40
0
 40
0
 40
0
 40
0
 40
1
 40
1
 40
1
 40
1
 10
4.571129
 20
3.996097
 30
0.0
 10
4.566212
 20
4.041611
 30
0.0
 10
4.493129
 20
4.160199
 30
0.0
 10
4.408723
 20
4.259627
 30
0.0
  0
SPLINE
  5
12a
100
AcDbEntity
  8
0
 62
7
100
AcDbSpline
 70
8
 71
3
 72
8
 73
4
 74
0
 40
0
 40
0
 40
0
 40
0
 40
1
 40
1
 40
1
 40
1
 10
4.408723
 20
4.259627
 30
0.0
 10
4.258337
 20
4.436776
 30
0.0
 10
4.224116
 20
4.654223
 30
0.0
 10
4.286647
 20
4.777082
 30
0.0
  0
SPLINE
  5
12b
100
AcDbEntity
  8
0
 62
7
100
AcDbSpline
 70
8
 71
3
 72
8
 73
4
 74
0
 40
0
 40
0
 40
0
 40
0
 40
1
 40
1
 40
1
 40
1
 10
4.286647
 20
4.777082
 30
0.0
 10
4.357394
 20
4.916085
 30
0.0
 10
4.682242
 20
5.001739
 30
0.0
 10
4.699674
 20
4.872568
 30
0.0
  0
SPLINE
  5
12c
100
AcDbEntity
  8
0
 62
7
100
AcDbSpline
 70
8
 71
3
 72
8
 73
4
 74
0
 40
0
 40
0
 40
0
 40
0
 40
1
 40
1
 40
1
 40
1
 10
4.699674
 20
4.872568
 30
0.0
 10
4.706725
 20
4.820319
 30
0.0
 10
4.779133
 20
4.850468
 30
0.0
 10
4.900191
 20
4.883720
 30
0.0
  0
SPLINE
  5
12d
100
AcDbEntity
  8
0
 62
7
100
AcDbSpline
 70
8
 71
3
 72
8
 73
4
 74
0
 40
0
 40
0
 40
0
 40
0
 40
1
 40
1
 40
1
 40
1
 10
4.900191
 20
4.883720
 30
0.0
 10
5.053644
 20
4.925869
 30
0.0
 10
5.116630
 20
4.923886
 30
0.0
 10
5.190830
 20
4.874569
 30
0.0
  0
SPLINE
  5
12e
100
AcDbEntity
  8
0
 62
7
100
AcDbSpline
 70
8
 71
3
 72
8
 73
4
 74
0
 40
0
 40
0
 40
0
 40
0
 40
1
 40
1
 40
1
 40
1
 10
5.190830
 20
4.874569
 30
0.0
 10
5.314560
 20
4.792332
 30
0.0
 10
5.433341
 20
5.068445
 30
0.0
 10
5.318089
 20
5.170390
 30
0.0
  0
SPLINE
  5
12f
100
AcDbEntity
  8
0
 62
7
100
AcDbSpline
 70
8
 71
3
 72
8
 73
4
 74
0
 40
0
 40
0
 40
0
 40
0
 40
1
 40
1
 40
1
 40
1
 10
5.318089
 20
5.170390
 30
0.0
 10
5.283657
 20
5.200848
 30
0.0
 10
5.214767
 20
5.253440
 30
0.0
 10
5.217161
 20
5.301336
 30
0.0
  0
SPLINE
  5
130
100
AcDbEntity
  8
0
 62
7
100
AcDbSpline
 70
8
 71
3
 72
8
 73
4
 74
0
 40
0
 40
0
 40
0
 40
0
 40
1
 40
1
 40
1
 40
1
 10
5.217161
 20
5.301336
 30
0.0
 10
5.220272
 20
5.363564
 30
0.0
 10
5.244501
 20
5.443595
 30
0.0
 10
5.260303
 20
5.514725
 30
0.0
  0
SPLINE
  5
131
100
AcDbEntity
  8
0
 62
7
100
AcDbSpline
 70
8
 71
3
 72
8
 73
4
 74
0
 40
0
 40
0
 40
0
 40
0
 40
1
 40
1
 40
1
 40
1
 10
5.260303
 20
5.514725
 30
0.0
 10
5.294262
 20
5.613706
 30
0.0
 10
5.260877
 20
5.685564
 30
0.0
 10
5.294431
 20
5.745237
 30
0.0
  0
SPLINE
  5
132
100
AcDbEntity
  8
0
 62
7
100
AcDbSpline
 70
8
 71
3
 72
8
 73
4
 74
0
 40
0
 40
0
 40
0
 40
0
 40
1
 40
1
 40
1
 40
1
 10
5.294431
 20
5.745237
 30
0.0
 10
5.337223
 20
5.794459
 30
0.0
 10
5.331183
 20
5.800905
 30
0.0
 10
5.359708
 20
5.809595
 30
0.0
  0
SPLINE
  5
133
100
AcDbEntity
  8
0
 62
7
100
AcDbSpline
 70
8
 71
3
 72
8
 73
4
 74
0
 40
0
 40
0
 40
0
 40
0
 40
1
 40
1
 40
1
 40
1
 10
5.359708
 20
5.809595
 30
0.0
 10
5.391519
 20
5.819285
 30
0.0
 10
5.358613
 20
5.724881
 30
0.0
 10
5.350462
 20
5.659152
 30
0.0
  0
SPLINE
  5
134
100
AcDbEntity
  8
0
 62
7
100
AcDbSpline
 70
8
 71
3
 72
8
 73
4
 74
0
 40
0
 40
0
 40
0
 40
0
 40
1
 40
1
 40
1
 40
1
 10
5.350462
 20
5.659152
 30
0.0
 10
5.343150
 20
5.600179
 30
0.0
 10
5.380504
 20
5.533880
 30
0.0
 10
5.422744
 20
5.610906
 30
0.0
  0
SPLINE
  5
135
100
AcDbEntity
  8
0
 62
7
100
AcDbSpline
 70
8
 71
3
 72
8
 73
4
 74
0
 40
0
 40
0
 40
0
 40
0
 40
1
 40
1
 40
1
 40
1
 10
5.422744
 20
5.610906
 30
0.0
 10
5.458331
 20
5.675802
 30
0.0
 10
5.424993
 20
5.693350
 30
0.0
 10
5.455977
 20
5.772597
 30
0.0
  0
SPLINE
  5
136
100
AcDbEntity
  8
0
 62
7
100
AcDbSpline
 70
8
 71
3
 72
8
 73
4
 74
0
 40
0
 40
0
 40
0
 40
0
 40
1
 40
1
 40
1
 40
1
 10
5.455977
 20
5.772597
 30
0.0
 10
5.488864
 20
5.856709
 30
0.0
 10
5.635589
 20
5.923571
 30
0.0
 10
5.783085
 20
5.814252
 30
0.0
  0
SPLINE
  5
137
100
AcDbEntity
  8
0
 62
7
100
AcDbSpline
 70
8
 71
3
 72
8
 73
4
 74
0
 40
0
 40
0
 40
0
 40
0
 40
1
 40
1
 40
1
 40
1
 10
5.783085
 20
5.814252
 30
0.0
 10
5.954911
 20
5.686901
 30
0.0
 10
5.959019
 20
5.376104
 30
0.0
 10
5.942795
 20
5.068665
 30
0.0
  0
SPLINE
  5
138
100
AcDbEntity
  8
0
 62
7
100
AcDbSpline
 70
8
 71
3
 72
8
 73
4
 74
0
 40
0
 40
0
 40
0
 40
0
 40
1
 40
1
 40
1
 40
1
 10
5.942795
 20
5.068665
 30
0.0
 10
5.938452
 20
4.986354
 30
0.0
 10
5.816761
 20
4.895052
 30
0.0
 10
5.728986
 20
4.997391
 30
0.0
  0
SPLINE
  5
139
100
AcDbEntity
  8
0
 62
7
100
AcDbSpline
 70
8
 71
3
 72
8
 73
4
 74
0
 40
0
 40
0
 40
0
 40
0
 40
1
 40
1
 40
1
 40
1
 10
5.728986
 20
4.997391
 30
0.0
 10
5.687080
 20
5.046249
 30
0.0
 10
5.555009
 20
5.116047
 30
0.0
 10
5.484812
 20
5.045640
 30
0.0
  0
SPLINE
  5
13a
100
AcDbEntity
  8
0
 62
7
100
AcDbSpline
 70
8
 71
3
 72
8
 73
4
 74
0
 40
0
 40
0
 40
0
 40
0
 40
1
 40
1
 40
1
 40
1
 10
5.484812
 20
5.045640
 30
0.0
 10
5.419201
 20
4.979833
 30
0.0
 10
5.325221
 20
4.692759
 30
0.0
 10
5.271768
 20
4.612436
 30
0.0
  0
SPLINE
  5
13b
100
AcDbEntity
  8
0
 62
7
100
AcDbSpline
 70
8
 71
3
 72
8
 73
4
 74
0
 40
0
 40
0
 40
0
 40
0
 40
1
 40
1
 40
1
 40
1
 10
5.271768
 20
4.612436
 30
0.0
 10
5.187392
 20
4.485648
 30
0.0
 10
5.266513
 20
4.482868
 30
0.0
 10
5.316188
 20
4.547153
 30
0.0
  0
SPLINE
  5
13c
100
AcDbEntity
  8
0
 62
7
100
AcDbSpline
 70
8
 71
3
 72
8
 73
4
 74
0
 40
0
 40
0
 40
0
 40
0
 40
1
 40
1
 40
1
 40
1
 10
5.316188
 20
4.547153
 30
0.0
 10
5.362644
 20
4.607271
 30
0.0
 10
5.387219
 20
4.686275
 30
0.0
 10
5.466200
 20
4.747896
 30
0.0
  0
SPLINE
  5
13d
100
AcDbEntity
  8
0
 62
7
100
AcDbSpline
 70
8
 71
3
 72
8
 73
4
 74
0
 40
0
 40
0
 40
0
 40
0
 40
1
 40
1
 40
1
 40
1
 10
5.466200
 20
4.747896
 30
0.0
 10
5.548751
 20
4.812302
 30
0.0
 10
5.683078
 20
4.932091
 30
0.0
 10
5.598741
 20
4.633179
 30
0.0
  0
SPLINE
  5
13e
100
AcDbEntity
  8
0
 62
7
100
AcDbSpline
 70
8
 71
3
 72
8
 73
4
 74
0
 40
0
 40
0
 40
0
 40
0
 40
1
 40
1
 40
1
 40
1
 10
5.598741
 20
4.633179
 30
0.0
 10
5.571644
 20
4.537142
 30
0.0
 10
5.509079
 20
4.496267
 30
0.0
 10
5.452632
 20
4.453335
 30
0.0
  0
SPLINE
  5
13f
100
AcDbEntity
  8
0
 62
7
100
AcDbSpline
 70
8
 71
3
 72
8
 73
4
 74
0
 40
0
 40
0
 40
0
 40
0
 40
1
 40
1
 40
1
 40
1
 10
5.452632
 20
4.453335
 30
0.0
 10
5.383891
 20
4.401052
 30
0.0
 10
5.196169
 20
4.318674
 30
0.0
 10
5.234724
 20
4.393505
 30
0.0
  0
SPLINE
  5
140
100
AcDbEntity
  8
0
 62
7
100
AcDbSpline
 70
8
 71
3
 72
8
 73
4
 74
0
 40
0
 40
0
 40
0
 40
0
 40
1
 40
1
 40
1
 40
1
 10
5.234724
 20
4.393505
 30
0.0
 10
5.259387
 20
4.441373
 30
0.0
 10
5.218620
 20
4.468940
 30
0.0
 10
5.177713
 20
4.406011
 30
0.0
  0
SPLINE
  5
141
100
AcDbEntity
  8
0
 62
7
100
AcDbSpline
 70
8
 71
3
 72
8
 73
4
 74
0
 40
0
 40
0
 40
0
 40
0
 40
1
 40
1
 40
1
 40
1
 10
5.177713
 20
4.406011
 30
0.0
 10
5.143913
 20
4.354016
 30
0.0
 10
4.930436
 20
3.880089
 30
0.0
 10
4.961978
 20
3.755853
 30
0.0
  0
SPLINE
  5
142
100
AcDbEntity
  8
0
 62
7
100
AcDbSpline
 70
8
 71
3
 72
8
 73
4
 74
0
 40
0
 40
0
 40
0
 40
0
 40
1
 40
1
 40
1
 40
1
 10
4.961978
 20
3.755853
 30
0.0
 10
4.976324
 20
3.699346
 30
0.0
 10
4.936349
 20
3.698385
 30
0.0
 10
4.895410
 20
3.688918
 30
0.0
  0
SPLINE
  5
143
100
AcDbEntity
  8
0
 62
7
100
AcDbSpline
 70
8
 71
3
 72
8
 73
4
 74
0
 40
0
 40
0
 40
0
 40
0
 40
1
 40
1
 40
1
 40
1
 10
4.895410
 20
3.688918
 30
0.0
 10
4.837346
 20
3.694585
 30
0.0
 10
4.810096
 20
3.677033
 30
0.0
 10
4.773457
 20
3.644252
 30
0.0
  0
LWPOLYLINE
  5
144
100
AcDbEntity
  8
0
 62
7
100
AcDbPolyline
 90
1
 70
1
 10
5.057621
 20
5.934435
 30
0.0
  0
SPLINE
  5
145
100
AcDbEntity
  8
0
 62
7
100
AcDbSpline
 70
8
 71
3
 72
8
 73
4
 74
0
 40
0
 40
0
 40
0
 40
0
 40
1
 40
1
 40
1
 40
1
 10
5.178500
 20
3.047180
 30
0.0
 10
5.211949
 20
3.047299
 30
0.0
 10
5.211513
 20
3.120257
 30
0.0
 10
5.197530
 20
3.156921
 30
0.0
  0
SPLINE
  5
146
100
AcDbEntity
  8
0
 62
7
100
AcDbSpline
 70
8
 71
3
 72
8
 73
4
 74
0
 40
0
 40
0
 40
0
 40
0
 40
1
 40
1
 40
1
 40
1
 10
5.197530
 20
3.156921
 30
0.0
 10
5.180333
 20
3.202013
 30
0.0
 10
5.164755
 20
3.213316
 30
0.0
 10
5.128103
 20
3.208201
 30
0.0
  0
SPLINE
  5
147
100
AcDbEntity
  8
0
 62
7
100
AcDbSpline
 70
8
 71
3
 72
8
 73
4
 74
0
 40
0
 40
0
 40
0
 40
0
 40
1
 40
1
 40
1
 40
1
 10
5.128103
 20
3.208201
 30
0.0
 10
5.054078
 20
3.197870
 30
0.0
 10
5.043283
 20
3.227061
 30
0.0
 10
4.987725
 20
3.204349
 30
0.0
  0
SPLINE
  5
148
100
AcDbEntity
  8
0
 62
7
100
AcDbSpline
 70
8
 71
3
 72
8
 73
4
 74
0
 40
0
 40
0
 40
0
 40
0
 40
1
 40
1
 40
1
 40
1
 10
4.987725
 20
3.204349
 30
0.0
 10
4.935590
 20
3.142686
 30
0.0
 10
4.960382
 20
3.174281
 30
0.0
 10
4.883646
 20
3.069811
 30
0.0
  0
SPLINE
  5
149
100
AcDbEntity
  8
0
 62
7
100
AcDbSpline
 70
8
 71
3
 72
8
 73
4
 74
0
 40
0
 40
0
 40
0
 40
0
 40
1
 40
1
 40
1
 40
1
 10
4.883646
 20
3.069811
 30
0.0
 10
4.855421
 20
3.031384
 30
0.0
 10
4.731696
 20
2.875228
 30
0.0
 10
4.737872
 20
2.798068
 30
0.0
  0
SPLINE
  5
14a
100
AcDbEntity
  8
0
 62
7
100
AcDbSpline
 70
8
 71
3
 72
8
 73
4
 74
0
 40
0
 40
0
 40
0
 40
0
 40
1
 40
1
 40
1
 40
1
 10
4.737872
 20
2.798068
 30
0.0
 10
4.742373
 20
2.741830
 30
0.0
 10
4.853056
 20
2.777456
 30
0.0
 10
4.895758
 20
2.736226
 30
0.0
  0
SPLINE
  5
14b
100
AcDbEntity
  8
0
 62
7
100
AcDbSpline
 70
8
 71
3
 72
8
 73
4
 74
0
 40
0
 40
0
 40
0
 40
0
 40
1
 40
1
 40
1
 40
1
 10
4.895758
 20
2.736226
 30
0.0
 10
5.005152
 20
2.630603
 30
0.0
 10
4.934644
 20
2.535125
 30
0.0
 10
4.807392
 20
2.458234
 30
0.0
  0
SPLINE
  5
14c
100
AcDbEntity
  8
0
 62
7
100
AcDbSpline
 70
8
 71
3
 72
8
 73
4
 74
0
 40
0
 40
0
 40
0
 40
0
 40
1
 40
1
 40
1
 40
1
 10
4.807392
 20
2.458234
 30
0.0
 10
4.724821
 20
2.408341
 30
0.0
 10
4.711450
 20
2.360575
 30
0.0
 10
4.718515
 20
2.140723
 30
0.0
  0
SPLINE
  5
14d
100
AcDbEntity
  8
0
 62
7
100
AcDbSpline
 70
8
 71
3
 72
8
 73
4
 74
0
 40
0
 40
0
 40
0
 40
0
 40
1
 40
1
 40
1
 40
1
 10
4.718515
 20
2.140723
 30
0.0
 10
4.724467
 20
1.955487
 30
0.0
 10
4.725084
 20
1.859955
 30
0.0
 10
4.660390
 20
1.752059
 30
0.0
  0
SPLINE
  5
14e
100
AcDbEntity
  8
0
 62
7
100
AcDbSpline
 70
8
 71
3
 72
8
 73
4
 74
0
 40
0
 40
0
 40
0
 40
0
 40
1
 40
1
 40
1
 40
1
 10
4.660390
 20
1.752059
 30
0.0
 10
4.622968
 20
1.689649
 30
0.0
 10
4.565388
 20
1.553538
 30
0.0
 10
4.557272
 20
1.466170
 30
0.0
  0
SPLINE
  5
14f
100
AcDbEntity
  8
0
 62
7
100
AcDbSpline
 70
8
 71
3
 72
8
 73
4
 74
0
 40
0
 40
0
 40
0
 40
0
 40
1
 40
1
 40
1
 40
1
 10
4.557272
 20
1.466170
 30
0.0
 10
4.534138
 20
1.217154
 30
0.0
 10
4.648581
 20
0.965465
 30
0.0
 10
4.720657
 20
0.842808
 30
0.0
  0
SPLINE
  5
150
100
AcDbEntity
  8
0
 62
7
100
AcDbSpline
 70
8
 71
3
 72
8
 73
4
 74
0
 40
0
 40
0
 40
0
 40
0
 40
1
 40
1
 40
1
 40
1
 10
4.720657
 20
0.842808
 30
0.0
 10
4.766333
 20
0.765077
 30
0.0
 10
4.825222
 20
0.672616
 30
0.0
 10
4.862179
 20
0.645793
 30
0.0
  0
SPLINE
  5
151
100
AcDbEntity
  8
0
 62
7
100
AcDbSpline
 70
8
 71
3
 72
8
 73
4
 74
0
 40
0
 40
0
 40
0
 40
0
 40
1
 40
1
 40
1
 40
1
 10
4.862179
 20
0.645793
 30
0.0
 10
4.902069
 20
0.616841
 30
0.0
 10
4.959437
 20
0.550381
 30
0.0
 10
4.986215
 20
0.554118
 30
0.0
  0
SPLINE
  5
152
100
AcDbEntity
  8
0
 62
7
100
AcDbSpline
 70
8
 71
3
 72
8
 73
4
 74
0
 40
0
 40
0
 40
0
 40
0
 40
1
 40
1
 40
1
 40
1
 10
4.986215
 20
0.554118
 30
0.0
 10
5.012994
 20
0.557855
 30
0.0
 10
5.033838
 20
0.588751
 30
0.0
 10
5.009208
 20
0.617938
 30
0.0
  0
SPLINE
  5
153
100
AcDbEntity
  8
0
 62
7
100
AcDbSpline
 70
8
 71
3
 72
8
 73
4
 74
0
 40
0
 40
0
 40
0
 40
0
 40
1
 40
1
 40
1
 40
1
 10
5.009208
 20
0.617938
 30
0.0
 10
4.942192
 20
0.697354
 30
0.0
 10
5.002312
 20
0.681090
 30
0.0
 10
5.041661
 20
0.686581
 30
0.0
  0
SPLINE
  5
154
100
AcDbEntity
  8
0
 62
7
100
AcDbSpline
 70
8
 71
3
 72
8
 73
4
 74
0
 40
0
 40
0
 40
0
 40
0
 40
1
 40
1
 40
1
 40
1
 10
5.041661
 20
0.686581
 30
0.0
 10
5.126062
 20
0.698360
 30
0.0
 10
5.141988
 20
0.545947
 30
0.0
 10
5.060833
 20
0.503107
 30
0.0
  0
SPLINE
  5
155
100
AcDbEntity
  8
0
 62
7
100
AcDbSpline
 70
8
 71
3
 72
8
 73
4
 74
0
 40
0
 40
0
 40
0
 40
0
 40
1
 40
1
 40
1
 40
1
 10
5.060833
 20
0.503107
 30
0.0
 10
5.026380
 20
0.484919
 30
0.0
 10
5.005042
 20
0.478415
 30
0.0
 10
5.002244
 20
0.444081
 30
0.0
  0
SPLINE
  5
156
100
AcDbEntity
  8
0
 62
7
100
AcDbSpline
 70
8
 71
3
 72
8
 73
4
 74
0
 40
0
 40
0
 40
0
 40
0
 40
1
 40
1
 40
1
 40
1
 10
5.002244
 20
0.444081
 30
0.0
 10
4.996634
 20
0.375239
 30
0.0
 10
5.055147
 20
0.320443
 30
0.0
 10
5.026682
 20
0.251554
 30
0.0
  0
LWPOLYLINE
  5
157
100
AcDbEntity
  8
0
 62
7
100
AcDbPolyline
 90
1
 70
1
 10
4.773457
 20
3.644252
 30
0.0
  0
SPLINE
  5
158
100
AcDbEntity
  8
0
 62
7
100
AcDbSpline
 70
8
 71
3
 72
8
 73
4
 74
0
 40
0
 40
0
 40
0
 40
0
 40
1
 40
1
 40
1
 40
1
 10
4.963779
 20
0.099316
 30
0.0
 10
4.940627
 20
0.043284
 30
0.0
 10
4.899967
 20
0.147914
 30
0.0
 10
4.835431
 20
0.216908
 30
0.0
  0
SPLINE
  5
159
100
AcDbEntity
  8
0
 62
7
100
AcDbSpline
 70
8
 71
3
 72
8
 73
4
 74
0
 40
0
 40
0
 40
0
 40
0
 40
1
 40
1
 40
1
 40
1
 10
4.835431
 20
0.216908
 30
0.0
 10
4.771164
 20
0.285614
 30
0.0
 10
4.728118
 20
0.364358
 30
0.0
 10
4.760276
 20
0.401465
 30
0.0
  0
SPLINE
  5
15a
100
AcDbEntity
  8
0
 62
7
100
AcDbSpline
 70
8
 71
3
 72
8
 73
4
 74
0
 40
0
 40
0
 40
0
 40
0
 40
1
 40
1
 40
1
 40
1
 10
4.760276
 20
0.401465
 30
0.0
 10
4.855908
 20
0.511817
 30
0.0
 10
4.812470
 20
0.552107
 30
0.0
 10
4.721557
 20
0.671264
 30
0.0
  0
SPLINE
  5
15b
100
AcDbEntity
  8
0
 62
7
100
AcDbSpline
 70
8
 71
3
 72
8
 73
4
 74
0
 40
0
 40
0
 40
0
 40
0
 40
1
 40
1
 40
1
 40
1
 10
4.721557
 20
0.671264
 30
0.0
 10
4.661796
 20
0.749591
 30
0.0
 10
4.517934
 20
1.080566
 30
0.0
 10
4.493541
 20
1.219135
 30
0.0
  0
SPLINE
  5
15c
100
AcDbEntity
  8
0
 62
7
100
AcDbSpline
 70
8
 71
3
 72
8
 73
4
 74
0
 40
0
 40
0
 40
0
 40
0
 40
1
 40
1
 40
1
 40
1
 10
4.493541
 20
1.219135
 30
0.0
 10
4.452561
 20
1.521212
 30
0.0
 10
4.445974
 20
1.562568
 30
0.0
 10
4.330810
 20
1.501774
 30
0.0
  0
SPLINE
  5
15d
100
AcDbEntity
  8
0
 62
7
100
AcDbSpline
 70
8
 71
3
 72
8
 73
4
 74
0
 40
0
 40
0
 40
0
 40
0
 40
1
 40
1
 40
1
 40
1
 10
4.330810
 20
1.501774
 30
0.0
 10
4.253667
 20
1.461051
 30
0.0
 10
4.301835
 20
1.375264
 30
0.0
 10
4.323398
 20
1.244653
 30
0.0
  0
SPLINE
  5
15e
100
AcDbEntity
  8
0
 62
7
100
AcDbSpline
 70
8
 71
3
 72
8
 73
4
 74
0
 40
0
 40
0
 40
0
 40
0
 40
1
 40
1
 40
1
 40
1
 10
4.323398
 20
1.244653
 30
0.0
 10
4.343114
 20
1.125220
 30
0.0
 10
4.371788
 20
1.193640
 30
0.0
 10
4.425343
 20
1.115930
 30
0.0
  0
SPLINE
  5
15f
100
AcDbEntity
  8
0
 62
7
100
AcDbSpline
 70
8
 71
3
 72
8
 73
4
 74
0
 40
0
 40
0
 40
0
 40
0
 40
1
 40
1
 40
1
 40
1
 10
4.425343
 20
1.115930
 30
0.0
 10
4.451239
 20
1.079564
 30
0.0
 10
4.515759
 20
0.995754
 30
0.0
 10
4.322005
 20
0.777433
 30
0.0
  0
SPLINE
  5
160
100
AcDbEntity
  8
0
 62
7
100
AcDbSpline
 70
8
 71
3
 72
8
 73
4
 74
0
 40
0
 40
0
 40
0
 40
0
 40
1
 40
1
 40
1
 40
1
 10
4.322005
 20
0.777433
 30
0.0
 10
4.079370
 20
0.504035
 30
0.0
 10
4.082350
 20
0.504055
 30
0.0
 10
3.967814
 20
0.775021
 30
0.0
  0
SPLINE
  5
161
100
AcDbEntity
  8
0
 62
7
100
AcDbSpline
 70
8
 71
3
 72
8
 73
4
 74
0
 40
0
 40
0
 40
0
 40
0
 40
1
 40
1
 40
1
 40
1
 10
3.967814
 20
0.775021
 30
0.0
 10
3.830163
 20
1.100670
 30
0.0
 10
3.921889
 20
1.328496
 30
0.0
 10
4.157185
 20
1.245375
 30
0.0
  0
SPLINE
  5
162
100
AcDbEntity
  8
0
 62
7
100
AcDbSpline
 70
8
 71
3
 72
8
 73
4
 74
0
 40
0
 40
0
 40
0
 40
0
 40
1
 40
1
 40
1
 40
1
 10
4.157185
 20
1.245375
 30
0.0
 10
4.227838
 20
1.220416
 30
0.0
 10
4.245158
 20
1.227643
 30
0.0
 10
4.239531
 20
1.279733
 30
0.0
  0
SPLINE
  5
163
100
AcDbEntity
  8
0
 62
7
100
AcDbSpline
 70
8
 71
3
 72
8
 73
4
 74
0
 40
0
 40
0
 40
0
 40
0
 40
1
 40
1
 40
1
 40
1
 10
4.239531
 20
1.279733
 30
0.0
 10
4.224228
 20
1.421391
 30
0.0
 10
3.802494
 20
1.301502
 30
0.0
 10
3.680099
 20
1.120700
 30
0.0
  0
SPLINE
  5
164
100
AcDbEntity
  8
0
 62
7
100
AcDbSpline
 70
8
 71
3
 72
8
 73
4
 74
0
 40
0
 40
0
 40
0
 40
0
 40
1
 40
1
 40
1
 40
1
 10
3.680099
 20
1.120700
 30
0.0
 10
3.601608
 20
1.004751
 30
0.0
 10
3.603886
 20
0.785131
 30
0.0
 10
3.683465
 20
0.796237
 30
0.0
  0
SPLINE
  5
165
100
AcDbEntity
  8
0
 62
7
100
AcDbSpline
 70
8
 71
3
 72
8
 73
4
 74
0
 40
0
 40
0
 40
0
 40
0
 40
1
 40
1
 40
1
 40
1
 10
3.683465
 20
0.796237
 30
0.0
 10
3.722774
 20
0.801723
 30
0.0
 10
3.756983
 20
0.787263
 30
0.0
 10
3.759485
 20
0.764104
 30
0.0
  0
SPLINE
  5
166
100
AcDbEntity
  8
0
 62
7
100
AcDbSpline
 70
8
 71
3
 72
8
 73
4
 74
0
 40
0
 40
0
 40
0
 40
0
 40
1
 40
1
 40
1
 40
1
 10
3.759485
 20
0.764104
 30
0.0
 10
3.766369
 20
0.700376
 30
0.0
 10
3.650946
 20
0.697791
 30
0.0
 10
3.581814
 20
0.760125
 30
0.0
  0
SPLINE
  5
167
100
AcDbEntity
  8
0
 62
7
100
AcDbSpline
 70
8
 71
3
 72
8
 73
4
 74
0
 40
0
 40
0
 40
0
 40
0
 40
1
 40
1
 40
1
 40
1
 10
3.581814
 20
0.760125
 30
0.0
 10
3.400631
 20
0.923488
 30
0.0
 10
3.575182
 20
1.326571
 30
0.0
 10
4.112673
 20
1.470497
 30
0.0
  0
SPLINE
  5
168
100
AcDbEntity
  8
0
 62
7
100
AcDbSpline
 70
8
 71
3
 72
8
 73
4
 74
0
 40
0
 40
0
 40
0
 40
0
 40
1
 40
1
 40
1
 40
1
 10
4.112673
 20
1.470497
 30
0.0
 10
4.262022
 20
1.510489
 30
0.0
 10
4.492110
 20
1.681312
 30
0.0
 10
4.535589
 20
1.739450
 30
0.0
  0
SPLINE
  5
169
100
AcDbEntity
  8
0
 62
7
100
AcDbSpline
 70
8
 71
3
 72
8
 73
4
 74
0
 40
0
 40
0
 40
0
 40
0
 40
1
 40
1
 40
1
 40
1
 10
4.535589
 20
1.739450
 30
0.0
 10
4.630892
 20
1.866883
 30
0.0
 10
4.674055
 20
2.045790
 30
0.0
 10
4.607248
 20
2.036466
 30
0.0
  0
SPLINE
  5
16a
100
AcDbEntity
  8
0
 62
7
100
AcDbSpline
 70
8
 71
3
 72
8
 73
4
 74
0
 40
0
 40
0
 40
0
 40
0
 40
1
 40
1
 40
1
 40
1
 10
4.607248
 20
2.036466
 30
0.0
 10
4.581427
 20
2.032863
 30
0.0
 10
4.567523
 20
1.993437
 30
0.0
 10
4.569130
 20
1.948184
 30
0.0
  0
SPLINE
  5
16b
100
AcDbEntity
  8
0
 62
7
100
AcDbSpline
 70
8
 71
3
 72
8
 73
4
 74
0
 40
0
 40
0
 40
0
 40
0
 40
1
 40
1
 40
1
 40
1
 10
4.569130
 20
1.948184
 30
0.0
 10
4.571684
 20
1.876289
 30
0.0
 10
4.559857
 20
1.777721
 30
0.0
 10
4.156549
 20
1.737931
 30
0.0
  0
SPLINE
  5
16c
100
AcDbEntity
  8
0
 62
7
100
AcDbSpline
 70
8
 71
3
 72
8
 73
4
 74
0
 40
0
 40
0
 40
0
 40
0
 40
1
 40
1
 40
1
 40
1
 10
4.156549
 20
1.737931
 30
0.0
 10
3.797175
 20
1.702475
 30
0.0
 10
3.784317
 20
1.699259
 30
0.0
 10
3.924236
 20
1.954812
 30
0.0
  0
SPLINE
  5
16d
100
AcDbEntity
  8
0
 62
7
100
AcDbSpline
 70
8
 71
3
 72
8
 73
4
 74
0
 40
0
 40
0
 40
0
 40
0
 40
1
 40
1
 40
1
 40
1
 10
3.924236
 20
1.954812
 30
0.0
 10
4.062703
 20
2.207716
 30
0.0
 10
4.248438
 20
2.298163
 30
0.0
 10
4.396721
 20
2.184899
 30
0.0
  0
SPLINE
  5
16e
100
AcDbEntity
  8
0
 62
7
100
AcDbSpline
 70
8
 71
3
 72
8
 73
4
 74
0
 40
0
 40
0
 40
0
 40
0
 40
1
 40
1
 40
1
 40
1
 10
4.396721
 20
2.184899
 30
0.0
 10
4.546891
 20
2.070195
 30
0.0
 10
4.645031
 20
2.072140
 30
0.0
 10
4.632346
 20
2.189568
 30
0.0
  0
SPLINE
  5
16f
100
AcDbEntity
  8
0
 62
7
100
AcDbSpline
 70
8
 71
3
 72
8
 73
4
 74
0
 40
0
 40
0
 40
0
 40
0
 40
1
 40
1
 40
1
 40
1
 10
4.632346
 20
2.189568
 30
0.0
 10
4.624360
 20
2.263492
 30
0.0
 10
4.603540
 20
2.282841
 30
0.0
 10
4.557904
 20
2.258750
 30
0.0
  0
SPLINE
  5
170
100
AcDbEntity
  8
0
 62
7
100
AcDbSpline
 70
8
 71
3
 72
8
 73
4
 74
0
 40
0
 40
0
 40
0
 40
0
 40
1
 40
1
 40
1
 40
1
 10
4.557904
 20
2.258750
 30
0.0
 10
4.442130
 20
2.197634
 30
0.0
 10
4.486340
 20
2.457630
 30
0.0
 10
4.637460
 20
2.825111
 30
0.0
  0
SPLINE
  5
171
100
AcDbEntity
  8
0
 62
7
100
AcDbSpline
 70
8
 71
3
 72
8
 73
4
 74
0
 40
0
 40
0
 40
0
 40
0
 40
1
 40
1
 40
1
 40
1
 10
4.637460
 20
2.825111
 30
0.0
 10
4.680111
 20
2.930545
 30
0.0
 10
4.746493
 20
3.054961
 30
0.0
 10
4.836062
 20
3.154368
 30
0.0
  0
SPLINE
  5
172
100
AcDbEntity
  8
0
 62
7
100
AcDbSpline
 70
8
 71
3
 72
8
 73
4
 74
0
 40
0
 40
0
 40
0
 40
0
 40
1
 40
1
 40
1
 40
1
 10
4.836062
 20
3.154368
 30
0.0
 10
4.882163
 20
3.205534
 30
0.0
 10
4.936305
 20
3.334562
 30
0.0
 10
4.930693
 20
3.383030
 30
0.0
  0
SPLINE
  5
173
100
AcDbEntity
  8
0
 62
7
100
AcDbSpline
 70
8
 71
3
 72
8
 73
4
 74
0
 40
0
 40
0
 40
0
 40
0
 40
1
 40
1
 40
1
 40
1
 10
4.930693
 20
3.383030
 30
0.0
 10
4.924642
 20
3.435298
 30
0.0
 10
4.888806
 20
3.479671
 30
0.0
 10
4.917829
 20
3.580711
 30
0.0
  0
SPLINE
  5
174
100
AcDbEntity
  8
0
 62
7
100
AcDbSpline
 70
8
 71
3
 72
8
 73
4
 74
0
 40
0
 40
0
 40
0
 40
0
 40
1
 40
1
 40
1
 40
1
 10
4.917829
 20
3.580711
 30
0.0
 10
4.927581
 20
3.612560
 30
0.0
 10
4.985815
 20
3.668680
 30
0.0
 10
4.997859
 20
3.636789
 30
0.0
  0
SPLINE
  5
175
100
AcDbEntity
  8
0
 62
7
100
AcDbSpline
 70
8
 71
3
 72
8
 73
4
 74
0
 40
0
 40
0
 40
0
 40
0
 40
1
 40
1
 40
1
 40
1
 10
4.997859
 20
3.636789
 30
0.0
 10
5.020658
 20
3.576418
 30
0.0
 10
5.028784
 20
3.540986
 30
0.0
 10
5.072858
 20
3.543266
 30
0.0
  0
SPLINE
  5
176
100
AcDbEntity
  8
0
 62
7
100
AcDbSpline
 70
8
 71
3
 72
8
 73
4
 74
0
 40
0
 40
0
 40
0
 40
0
 40
1
 40
1
 40
1
 40
1
 10
5.072858
 20
3.543266
 30
0.0
 10
5.152480
 20
3.547385
 30
0.0
 10
5.220111
 20
3.645305
 30
0.0
 10
5.201732
 20
3.714508
 30
0.0
  0
SPLINE
  5
177
100
AcDbEntity
  8
0
 62
7
100
AcDbSpline
 70
8
 71
3
 72
8
 73
4
 74
0
 40
0
 40
0
 40
0
 40
0
 40
1
 40
1
 40
1
 40
1
 10
5.201732
 20
3.714508
 30
0.0
 10
5.180145
 20
3.795793
 30
0.0
 10
5.130994
 20
3.835423
 30
0.0
 10
5.211058
 20
4.026223
 30
0.0
  0
SPLINE
  5
178
100
AcDbEntity
  8
0
 62
7
100
AcDbSpline
 70
8
 71
3
 72
8
 73
4
 74
0
 40
0
 40
0
 40
0
 40
0
 40
1
 40
1
 40
1
 40
1
 10
5.211058
 20
4.026223
 30
0.0
 10
5.328499
 20
4.306094
 30
0.0
 10
5.362878
 20
4.195478
 30
0.0
 10
5.431116
 20
3.976333
 30
0.0
  0
SPLINE
  5
179
100
AcDbEntity
  8
0
 62
7
100
AcDbSpline
 70
8
 71
3
 72
8
 73
4
 74
0
 40
0
 40
0
 40
0
 40
0
 40
1
 40
1
 40
1
 40
1
 10
5.431116
 20
3.976333
 30
0.0
 10
5.463319
 20
3.872910
 30
0.0
 10
5.467203
 20
3.836619
 30
0.0
 10
5.452096
 20
3.754885
 30
0.0
  0
SPLINE
  5
17a
100
AcDbEntity
  8
0
 62
7
100
AcDbSpline
 70
8
 71
3
 72
8
 73
4
 74
0
 40
0
 40
0
 40
0
 40
0
 40
1
 40
1
 40
1
 40
1
 10
5.452096
 20
3.754885
 30
0.0
 10
5.439119
 20
3.684680
 30
0.0
 10
5.421017
 20
3.616119
 30
0.0
 10
5.331761
 20
3.582416
 30
0.0
  0
SPLINE
  5
17b
100
AcDbEntity
  8
0
 62
7
100
AcDbSpline
 70
8
 71
3
 72
8
 73
4
 74
0
 40
0
 40
0
 40
0
 40
0
 40
1
 40
1
 40
1
 40
1
 10
5.331761
 20
3.582416
 30
0.0
 10
5.228671
 20
3.543490
 30
0.0
 10
5.228749
 20
3.500757
 30
0.0
 10
5.119933
 20
3.465480
 30
0.0
  0
SPLINE
  5
17c
100
AcDbEntity
  8
0
 62
7
100
AcDbSpline
 70
8
 71
3
 72
8
 73
4
 74
0
 40
0
 40
0
 40
0
 40
0
 40
1
 40
1
 40
1
 40
1
 10
5.119933
 20
3.465480
 30
0.0
 10
4.978942
 20
3.419772
 30
0.0
 10
4.962088
 20
3.294373
 30
0.0
 10
5.101884
 20
3.294904
 30
0.0
  0
SPLINE
  5
17d
100
AcDbEntity
  8
0
 62
7
100
AcDbSpline
 70
8
 71
3
 72
8
 73
4
 74
0
 40
0
 40
0
 40
0
 40
0
 40
1
 40
1
 40
1
 40
1
 10
5.101884
 20
3.294904
 30
0.0
 10
5.168229
 20
3.295156
 30
0.0
 10
5.217399
 20
3.282785
 30
0.0
 10
5.232728
 20
3.224292
 30
0.0
  0
SPLINE
  5
17e
100
AcDbEntity
  8
0
 62
7
100
AcDbSpline
 70
8
 71
3
 72
8
 73
4
 74
0
 40
0
 40
0
 40
0
 40
0
 40
1
 40
1
 40
1
 40
1
 10
5.232728
 20
3.224292
 30
0.0
 10
5.245819
 20
3.174336
 30
0.0
 10
5.249332
 20
3.058157
 30
0.0
 10
5.336286
 20
3.100312
 30
0.0
  0
SPLINE
  5
17f
100
AcDbEntity
  8
0
 62
7
100
AcDbSpline
 70
8
 71
3
 72
8
 73
4
 74
0
 40
0
 40
0
 40
0
 40
0
 40
1
 40
1
 40
1
 40
1
 10
5.336286
 20
3.100312
 30
0.0
 10
5.449804
 20
3.155344
 30
0.0
 10
5.485429
 20
3.000084
 30
0.0
 10
5.458950
 20
2.732219
 30
0.0
  0
SPLINE
  5
180
100
AcDbEntity
  8
0
 62
7
100
AcDbSpline
 70
8
 71
3
 72
8
 73
4
 74
0
 40
0
 40
0
 40
0
 40
0
 40
1
 40
1
 40
1
 40
1
 10
5.458950
 20
2.732219
 30
0.0
 10
5.439796
 20
2.538447
 30
0.0
 10
5.423086
 20
2.500791
 30
0.0
 10
5.370364
 20
2.532594
 30
0.0
  0
SPLINE
  5
181
100
AcDbEntity
  8
0
 62
7
100
AcDbSpline
 70
8
 71
3
 72
8
 73
4
 74
0
 40
0
 40
0
 40
0
 40
0
 40
1
 40
1
 40
1
 40
1
 10
5.370364
 20
2.532594
 30
0.0
 10
5.318084
 20
2.564131
 30
0.0
 10
5.306872
 20
2.545917
 30
0.0
 10
5.312991
 20
2.439390
 30
0.0
  0
SPLINE
  5
182
100
AcDbEntity
  8
0
 62
7
100
AcDbSpline
 70
8
 71
3
 72
8
 73
4
 74
0
 40
0
 40
0
 40
0
 40
0
 40
1
 40
1
 40
1
 40
1
 10
5.312991
 20
2.439390
 30
0.0
 10
5.317175
 20
2.366570
 30
0.0
 10
5.312501
 20
2.304857
 30
0.0
 10
5.321508
 20
2.257232
 30
0.0
  0
SPLINE
  5
183
100
AcDbEntity
  8
0
 62
7
100
AcDbSpline
 70
8
 71
3
 72
8
 73
4
 74
0
 40
0
 40
0
 40
0
 40
0
 40
1
 40
1
 40
1
 40
1
 10
5.321508
 20
2.257232
 30
0.0
 10
5.326570
 20
2.230470
 30
0.0
 10
5.360140
 20
2.205686
 30
0.0
 10
5.428748
 20
2.214757
 30
0.0
  0
SPLINE
  5
184
100
AcDbEntity
  8
0
 62
7
100
AcDbSpline
 70
8
 71
3
 72
8
 73
4
 74
0
 40
0
 40
0
 40
0
 40
0
 40
1
 40
1
 40
1
 40
1
 10
5.428748
 20
2.214757
 30
0.0
 10
5.598787
 20
2.237238
 30
0.0
 10
5.678607
 20
2.111972
 30
0.0
 10
5.680083
 20
1.850434
 30
0.0
  0
SPLINE
  5
185
100
AcDbEntity
  8
0
 62
7
100
AcDbSpline
 70
8
 71
3
 72
8
 73
4
 74
0
 40
0
 40
0
 40
0
 40
0
 40
1
 40
1
 40
1
 40
1
 10
5.680083
 20
1.850434
 30
0.0
 10
5.681752
 20
1.554809
 30
0.0
 10
5.679179
 20
1.552974
 30
0.0
 10
5.402941
 20
1.652746
 30
0.0
  0
SPLINE
  5
186
100
AcDbEntity
  8
0
 62
7
100
AcDbSpline
 70
8
 71
3
 72
8
 73
4
 74
0
 40
0
 40
0
 40
0
 40
0
 40
1
 40
1
 40
1
 40
1
 10
5.402941
 20
1.652746
 30
0.0
 10
5.212728
 20
1.721447
 30
0.0
 10
5.157134
 20
1.725964
 30
0.0
 10
5.108861
 20
1.676637
 30
0.0
  0
SPLINE
  5
187
100
AcDbEntity
  8
0
 62
7
100
AcDbSpline
 70
8
 71
3
 72
8
 73
4
 74
0
 40
0
 40
0
 40
0
 40
0
 40
1
 40
1
 40
1
 40
1
 10
5.108861
 20
1.676637
 30
0.0
 10
5.076121
 20
1.643184
 30
0.0
 10
5.050937
 20
1.635783
 30
0.0
 10
5.032336
 20
1.649570
 30
0.0
  0
SPLINE
  5
188
100
AcDbEntity
  8
0
 62
7
100
AcDbSpline
 70
8
 71
3
 72
8
 73
4
 74
0
 40
0
 40
0
 40
0
 40
0
 40
1
 40
1
 40
1
 40
1
 10
5.032336
 20
1.649570
 30
0.0
 10
5.013735
 20
1.663356
 30
0.0
 10
5.008905
 20
1.687636
 30
0.0
 10
5.042162
 20
1.714148
 30
0.0
  0
SPLINE
  5
189
100
AcDbEntity
  8
0
 62
7
100
AcDbSpline
 70
8
 71
3
 72
8
 73
4
 74
0
 40
0
 40
0
 40
0
 40
0
 40
1
 40
1
 40
1
 40
1
 10
5.042162
 20
1.714148
 30
0.0
 10
5.092878
 20
1.754577
 30
0.0
 10
5.087914
 20
1.778953
 30
0.0
 10
5.025591
 20
1.752254
 30
0.0
  0
SPLINE
  5
18a
100
AcDbEntity
  8
0
 62
7
100
AcDbSpline
 70
8
 71
3
 72
8
 73
4
 74
0
 40
0
 40
0
 40
0
 40
0
 40
1
 40
1
 40
1
 40
1
 10
5.025591
 20
1.752254
 30
0.0
 10
4.985680
 20
1.735156
 30
0.0
 10
4.951213
 20
1.717524
 30
0.0
 10
4.954466
 20
1.687417
 30
0.0
  0
SPLINE
  5
18b
100
AcDbEntity
  8
0
 62
7
100
AcDbSpline
 70
8
 71
3
 72
8
 73
4
 74
0
 40
0
 40
0
 40
0
 40
0
 40
1
 40
1
 40
1
 40
1
 10
4.954466
 20
1.687417
 30
0.0
 10
4.963324
 20
1.605413
 30
0.0
 10
5.065043
 20
1.544701
 30
0.0
 10
5.169217
 20
1.559240
 30
0.0
  0
SPLINE
  5
18c
100
AcDbEntity
  8
0
 62
7
100
AcDbSpline
 70
8
 71
3
 72
8
 73
4
 74
0
 40
0
 40
0
 40
0
 40
0
 40
1
 40
1
 40
1
 40
1
 10
5.169217
 20
1.559240
 30
0.0
 10
5.378414
 20
1.588435
 30
0.0
 10
5.440251
 20
1.402989
 30
0.0
 10
5.355279
 20
1.001252
 30
0.0
  0
SPLINE
  5
18d
100
AcDbEntity
  8
0
 62
7
100
AcDbSpline
 70
8
 71
3
 72
8
 73
4
 74
0
 40
0
 40
0
 40
0
 40
0
 40
1
 40
1
 40
1
 40
1
 10
5.355279
 20
1.001252
 30
0.0
 10
5.298174
 20
0.731267
 30
0.0
 10
5.284871
 20
0.724049
 30
0.0
 10
5.065605
 20
0.844094
 30
0.0
  0
SPLINE
  5
18e
100
AcDbEntity
  8
0
 62
7
100
AcDbSpline
 70
8
 71
3
 72
8
 73
4
 74
0
 40
0
 40
0
 40
0
 40
0
 40
1
 40
1
 40
1
 40
1
 10
5.065605
 20
0.844094
 30
0.0
 10
4.682174
 20
1.054014
 30
0.0
 10
4.551844
 20
1.515823
 30
0.0
 10
4.863746
 20
1.559351
 30
0.0
  0
SPLINE
  5
18f
100
AcDbEntity
  8
0
 62
7
100
AcDbSpline
 70
8
 71
3
 72
8
 73
4
 74
0
 40
0
 40
0
 40
0
 40
0
 40
1
 40
1
 40
1
 40
1
 10
4.863746
 20
1.559351
 30
0.0
 10
4.887953
 20
1.562730
 30
0.0
 10
4.901585
 20
1.607869
 30
0.0
 10
4.894040
 20
1.659661
 30
0.0
  0
SPLINE
  5
190
100
AcDbEntity
  8
0
 62
7
100
AcDbSpline
 70
8
 71
3
 72
8
 73
4
 74
0
 40
0
 40
0
 40
0
 40
0
 40
1
 40
1
 40
1
 40
1
 10
4.894040
 20
1.659661
 30
0.0
 10
4.885379
 20
1.719123
 30
0.0
 10
4.915137
 20
1.774270
 30
0.0
 10
4.974784
 20
1.809293
 30
0.0
  0
SPLINE
  5
191
100
AcDbEntity
  8
0
 62
7
100
AcDbSpline
 70
8
 71
3
 72
8
 73
4
 74
0
 40
0
 40
0
 40
0
 40
0
 40
1
 40
1
 40
1
 40
1
 10
4.974784
 20
1.809293
 30
0.0
 10
5.026737
 20
1.839798
 30
0.0
 10
5.065572
 20
1.898756
 30
0.0
 10
5.061083
 20
1.940309
 30
0.0
  0
SPLINE
  5
192
100
AcDbEntity
  8
0
 62
7
100
AcDbSpline
 70
8
 71
3
 72
8
 73
4
 74
0
 40
0
 40
0
 40
0
 40
0
 40
1
 40
1
 40
1
 40
1
 10
5.061083
 20
1.940309
 30
0.0
 10
5.056594
 20
1.981863
 30
0.0
 10
5.081432
 20
2.030911
 30
0.0
 10
5.116277
 20
2.049306
 30
0.0
  0
SPLINE
  5
193
100
AcDbEntity
  8
0
 62
7
100
AcDbSpline
 70
8
 71
3
 72
8
 73
4
 74
0
 40
0
 40
0
 40
0
 40
0
 40
1
 40
1
 40
1
 40
1
 10
5.116277
 20
2.049306
 30
0.0
 10
5.151123
 20
2.067700
 30
0.0
 10
5.175391
 20
2.122012
 30
0.0
 10
5.170207
 20
2.169998
 30
0.0
  0
SPLINE
  5
194
100
AcDbEntity
  8
0
 62
7
100
AcDbSpline
 70
8
 71
3
 72
8
 73
4
 74
0
 40
0
 40
0
 40
0
 40
0
 40
1
 40
1
 40
1
 40
1
 10
5.170207
 20
2.169998
 30
0.0
 10
5.165024
 20
2.217985
 30
0.0
 10
5.176994
 20
2.320532
 30
0.0
 10
5.196809
 20
2.397881
 30
0.0
  0
SPLINE
  5
195
100
AcDbEntity
  8
0
 62
7
100
AcDbSpline
 70
8
 71
3
 72
8
 73
4
 74
0
 40
0
 40
0
 40
0
 40
0
 40
1
 40
1
 40
1
 40
1
 10
5.196809
 20
2.397881
 30
0.0
 10
5.226262
 20
2.512853
 30
0.0
 10
5.255174
 20
2.613066
 30
0.0
 10
5.161158
 20
2.692415
 30
0.0
  0
SPLINE
  5
196
100
AcDbEntity
  8
0
 62
7
100
AcDbSpline
 70
8
 71
3
 72
8
 73
4
 74
0
 40
0
 40
0
 40
0
 40
0
 40
1
 40
1
 40
1
 40
1
 10
5.161158
 20
2.692415
 30
0.0
 10
5.092917
 20
2.750008
 30
0.0
 10
5.044774
 20
2.843032
 30
0.0
 10
5.041630
 20
2.926429
 30
0.0
  0
SPLINE
  5
197
100
AcDbEntity
  8
0
 62
7
100
AcDbSpline
 70
8
 71
3
 72
8
 73
4
 74
0
 40
0
 40
0
 40
0
 40
0
 40
1
 40
1
 40
1
 40
1
 10
5.041630
 20
2.926429
 30
0.0
 10
5.046517
 20
3.012330
 30
0.0
 10
5.086187
 20
3.046850
 30
0.0
 10
5.178500
 20
3.047180
 30
0.0
  0
LWPOLYLINE
  5
198
100
AcDbEntity
  8
0
 62
7
100
AcDbPolyline
 90
2
 70
0
 10
5.026682
 20
0.251554
 30
0.0
 10
4.963779
 20
0.099316
 30
0.0
  0
SPLINE
  5
199
100
AcDbEntity
  8
0
 62
7
100
AcDbSpline
 70
8
 71
3
 72
8
 73
4
 74
0
 40
0
 40
0
 40
0
 40
0
 40
1
 40
1
 40
1
 40
1
 10
2.753990
 20
5.523400
 30
0.0
 10
2.703841
 20
5.552498
 30
0.0
 10
2.662948
 20
5.593931
 30
0.0
 10
2.568065
 20
5.607173
 30
0.0
  0
SPLINE
  5
19a
100
AcDbEntity
  8
0
 62
7
100
AcDbSpline
 70
8
 71
3
 72
8
 73
4
 74
0
 40
0
 40
0
 40
0
 40
0
 40
1
 40
1
 40
1
 40
1
 10
2.568065
 20
5.607173
 30
0.0
 10
2.509012
 20
5.615414
 30
0.0
 10
2.553306
 20
5.538426
 30
0.0
 10
2.635254
 20
5.490390
 30
0.0
  0
SPLINE
  5
19b
100
AcDbEntity
  8
0
 62
7
100
AcDbSpline
 70
8
 71
3
 72
8
 73
4
 74
0
 40
0
 40
0
 40
0
 40
0
 40
1
 40
1
 40
1
 40
1
 10
2.635254
 20
5.490390
 30
0.0
 10
2.755488
 20
5.419911
 30
0.0
 10
2.686083
 20
5.262684
 30
0.0
 10
2.633562
 20
5.147165
 30
0.0
  0
SPLINE
  5
19c
100
AcDbEntity
  8
0
 62
7
100
AcDbSpline
 70
8
 71
3
 72
8
 73
4
 74
0
 40
0
 40
0
 40
0
 40
0
 40
1
 40
1
 40
1
 40
1
 10
2.633562
 20
5.147165
 30
0.0
 10
2.618648
 20
5.114362
 30
0.0
 10
2.575107
 20
5.046106
 30
0.0
 10
2.491176
 20
4.950818
 30
0.0
  0
SPLINE
  5
19d
100
AcDbEntity
  8
0
 62
7
100
AcDbSpline
 70
8
 71
3
 72
8
 73
4
 74
0
 40
0
 40
0
 40
0
 40
0
 40
1
 40
1
 40
1
 40
1
 10
2.491176
 20
4.950818
 30
0.0
 10
2.249582
 20
4.676536
 30
0.0
 10
2.161889
 20
4.865471
 30
0.0
 10
2.159016
 20
5.155404
 30
0.0
  0
SPLINE
  5
19e
100
AcDbEntity
  8
0
 62
7
100
AcDbSpline
 70
8
 71
3
 72
8
 73
4
 74
0
 40
0
 40
0
 40
0
 40
0
 40
1
 40
1
 40
1
 40
1
 10
2.159016
 20
5.155404
 30
0.0
 10
2.157138
 20
5.344832
 30
0.0
 10
2.268002
 20
5.563707
 30
0.0
 10
2.377727
 20
5.589533
 30
0.0
  0
SPLINE
  5
19f
100
AcDbEntity
  8
0
 62
7
100
AcDbSpline
 70
8
 71
3
 72
8
 73
4
 74
0
 40
0
 40
0
 40
0
 40
0
 40
1
 40
1
 40
1
 40
1
 10
2.377727
 20
5.589533
 30
0.0
 10
2.476790
 20
5.612849
 30
0.0
 10
2.456437
 20
5.637509
 30
0.0
 10
2.358325
 20
5.633735
 30
0.0
  0
SPLINE
  5
1a0
100
AcDbEntity
  8
0
 62
7
100
AcDbSpline
 70
8
 71
3
 72
8
 73
4
 74
0
 40
0
 40
0
 40
0
 40
0
 40
1
 40
1
 40
1
 40
1
 10
2.358325
 20
5.633735
 30
0.0
 10
2.117561
 20
5.624473
 30
0.0
 10
1.411883
 20
5.174929
 30
0.0
 10
1.396719
 20
5.025069
 30
0.0
  0
SPLINE
  5
1a1
100
AcDbEntity
  8
0
 62
7
100
AcDbSpline
 70
8
 71
3
 72
8
 73
4
 74
0
 40
0
 40
0
 40
0
 40
0
 40
1
 40
1
 40
1
 40
1
 10
1.396719
 20
5.025069
 30
0.0
 10
1.380000
 20
4.859839
 30
0.0
 10
1.481751
 20
4.865058
 30
0.0
 10
1.553963
 20
4.903164
 30
0.0
  0
SPLINE
  5
1a2
100
AcDbEntity
  8
0
 62
7
100
AcDbSpline
 70
8
 71
3
 72
8
 73
4
 74
0
 40
0
 40
0
 40
0
 40
0
 40
1
 40
1
 40
1
 40
1
 10
1.553963
 20
4.903164
 30
0.0
 10
1.600546
 20
4.927746
 30
0.0
 10
1.638836
 20
4.926320
 30
0.0
 10
1.654122
 20
4.907618
 30
0.0
  0
SPLINE
  5
1a3
100
AcDbEntity
  8
0
 62
7
100
AcDbSpline
 70
8
 71
3
 72
8
 73
4
 74
0
 40
0
 40
0
 40
0
 40
0
 40
1
 40
1
 40
1
 40
1
 10
1.654122
 20
4.907618
 30
0.0
 10
1.717050
 20
4.830627
 30
0.0
 10
1.484940
 20
4.721615
 30
0.0
 10
1.393073
 20
4.785015
 30
0.0
  0
SPLINE
  5
1a4
100
AcDbEntity
  8
0
 62
7
100
AcDbSpline
 70
8
 71
3
 72
8
 73
4
 74
0
 40
0
 40
0
 40
0
 40
0
 40
1
 40
1
 40
1
 40
1
 10
1.393073
 20
4.785015
 30
0.0
 10
1.297798
 20
4.850767
 30
0.0
 10
1.252598
 20
5.025794
 30
0.0
 10
1.328075
 20
5.128480
 30
0.0
  0
SPLINE
  5
1a5
100
AcDbEntity
  8
0
 62
7
100
AcDbSpline
 70
8
 71
3
 72
8
 73
4
 74
0
 40
0
 40
0
 40
0
 40
0
 40
1
 40
1
 40
1
 40
1
 10
1.328075
 20
5.128480
 30
0.0
 10
1.388740
 20
5.189529
 30
0.0
 10
1.469263
 20
5.274288
 30
0.0
 10
1.469110
 20
5.352703
 30
0.0
  0
SPLINE
  5
1a6
100
AcDbEntity
  8
0
 62
7
100
AcDbSpline
 70
8
 71
3
 72
8
 73
4
 74
0
 40
0
 40
0
 40
0
 40
0
 40
1
 40
1
 40
1
 40
1
 10
1.469110
 20
5.352703
 30
0.0
 10
1.469058
 20
5.381866
 30
0.0
 10
1.458923
 20
5.445184
 30
0.0
 10
1.434321
 20
5.459383
 30
0.0
  0
SPLINE
  5
1a7
100
AcDbEntity
  8
0
 62
7
100
AcDbSpline
 70
8
 71
3
 72
8
 73
4
 74
0
 40
0
 40
0
 40
0
 40
0
 40
1
 40
1
 40
1
 40
1
 10
1.434321
 20
5.459383
 30
0.0
 10
1.376291
 20
5.492877
 30
0.0
 10
1.312637
 20
5.517512
 30
0.0
 10
1.321824
 20
5.480305
 30
0.0
  0
SPLINE
  5
1a8
100
AcDbEntity
  8
0
 62
7
100
AcDbSpline
 70
8
 71
3
 72
8
 73
4
 74
0
 40
0
 40
0
 40
0
 40
0
 40
1
 40
1
 40
1
 40
1
 10
1.321824
 20
5.480305
 30
0.0
 10
1.348116
 20
5.373826
 30
0.0
 10
1.338671
 20
5.320613
 30
0.0
 10
1.333636
 20
5.296737
 30
0.0
  0
SPLINE
  5
1a9
100
AcDbEntity
  8
0
 62
7
100
AcDbSpline
 70
8
 71
3
 72
8
 73
4
 74
0
 40
0
 40
0
 40
0
 40
0
 40
1
 40
1
 40
1
 40
1
 10
1.333636
 20
5.296737
 30
0.0
 10
1.314830
 20
5.207556
 30
0.0
 10
1.249997
 20
5.105469
 30
0.0
 10
1.185234
 20
5.031191
 30
0.0
  0
SPLINE
  5
1aa
100
AcDbEntity
  8
0
 62
7
100
AcDbSpline
 70
8
 71
3
 72
8
 73
4
 74
0
 40
0
 40
0
 40
0
 40
0
 40
1
 40
1
 40
1
 40
1
 10
1.185234
 20
5.031191
 30
0.0
 10
1.047440
 20
4.873150
 30
0.0
 10
0.990973
 20
4.927546
 30
0.0
 10
0.922728
 20
5.147445
 30
0.0
  0
SPLINE
  5
1ab
100
AcDbEntity
  8
0
 62
7
100
AcDbSpline
 70
8
 71
3
 72
8
 73
4
 74
0
 40
0
 40
0
 40
0
 40
0
 40
1
 40
1
 40
1
 40
1
 10
0.922728
 20
5.147445
 30
0.0
 10
0.835492
 20
5.428540
 30
0.0
 10
0.961096
 20
5.658603
 30
0.0
 10
1.127000
 20
5.571024
 30
0.0
  0
SPLINE
  5
1ac
100
AcDbEntity
  8
0
 62
7
100
AcDbSpline
 70
8
 71
3
 72
8
 73
4
 74
0
 40
0
 40
0
 40
0
 40
0
 40
1
 40
1
 40
1
 40
1
 10
1.127000
 20
5.571024
 30
0.0
 10
1.162440
 20
5.552316
 30
0.0
 10
1.206689
 20
5.555426
 30
0.0
 10
1.225331
 20
5.577935
 30
0.0
  0
SPLINE
  5
1ad
100
AcDbEntity
  8
0
 62
7
100
AcDbSpline
 70
8
 71
3
 72
8
 73
4
 74
0
 40
0
 40
0
 40
0
 40
0
 40
1
 40
1
 40
1
 40
1
 10
1.225331
 20
5.577935
 30
0.0
 10
1.280623
 20
5.644698
 30
0.0
 10
1.403816
 20
5.582249
 30
0.0
 10
1.513433
 20
5.492913
 30
0.0
  0
SPLINE
  5
1ae
100
AcDbEntity
  8
0
 62
7
100
AcDbSpline
 70
8
 71
3
 72
8
 73
4
 74
0
 40
0
 40
0
 40
0
 40
0
 40
1
 40
1
 40
1
 40
1
 10
1.513433
 20
5.492913
 30
0.0
 10
1.595599
 20
5.425949
 30
0.0
 10
1.623202
 20
5.376981
 30
0.0
 10
1.772423
 20
5.520883
 30
0.0
  0
SPLINE
  5
1af
100
AcDbEntity
  8
0
 62
7
100
AcDbSpline
 70
8
 71
3
 72
8
 73
4
 74
0
 40
0
 40
0
 40
0
 40
0
 40
1
 40
1
 40
1
 40
1
 10
1.772423
 20
5.520883
 30
0.0
 10
1.889548
 20
5.633834
 30
0.0
 10
1.929323
 20
5.647067
 30
0.0
 10
1.832431
 20
5.667094
 30
0.0
  0
SPLINE
  5
1b0
100
AcDbEntity
  8
0
 62
7
100
AcDbSpline
 70
8
 71
3
 72
8
 73
4
 74
0
 40
0
 40
0
 40
0
 40
0
 40
1
 40
1
 40
1
 40
1
 10
1.832431
 20
5.667094
 30
0.0
 10
1.769754
 20
5.680049
 30
0.0
 10
1.702455
 20
5.656382
 30
0.0
 10
1.684778
 20
5.623586
 30
0.0
  0
SPLINE
  5
1b1
100
AcDbEntity
  8
0
 62
7
100
AcDbSpline
 70
8
 71
3
 72
8
 73
4
 74
0
 40
0
 40
0
 40
0
 40
0
 40
1
 40
1
 40
1
 40
1
 10
1.684778
 20
5.623586
 30
0.0
 10
1.597914
 20
5.462428
 30
0.0
 10
1.411433
 20
5.600531
 30
0.0
 10
1.191401
 20
5.988970
 30
0.0
  0
SPLINE
  5
1b2
100
AcDbEntity
  8
0
 62
7
100
AcDbSpline
 70
8
 71
3
 72
8
 73
4
 74
0
 40
0
 40
0
 40
0
 40
0
 40
1
 40
1
 40
1
 40
1
 10
1.191401
 20
5.988970
 30
0.0
 10
1.154350
 20
6.054380
 30
0.0
 10
1.095270
 20
6.111911
 30
0.0
 10
1.060114
 20
6.116818
 30
0.0
  0
SPLINE
  5
1b3
100
AcDbEntity
  8
0
 62
7
100
AcDbSpline
 70
8
 71
3
 72
8
 73
4
 74
0
 40
0
 40
0
 40
0
 40
0
 40
1
 40
1
 40
1
 40
1
 10
1.060114
 20
6.116818
 30
0.0
 10
0.927450
 20
6.135332
 30
0.0
 10
1.011033
 20
6.199062
 30
0.0
 10
1.171855
 20
6.202017
 30
0.0
  0
SPLINE
  5
1b4
100
AcDbEntity
  8
0
 62
7
100
AcDbSpline
 70
8
 71
3
 72
8
 73
4
 74
0
 40
0
 40
0
 40
0
 40
0
 40
1
 40
1
 40
1
 40
1
 10
1.171855
 20
6.202017
 30
0.0
 10
1.586931
 20
6.209643
 30
0.0
 10
1.880448
 20
6.043140
 30
0.0
 10
1.801798
 20
5.844670
 30
0.0
  0
SPLINE
  5
1b5
100
AcDbEntity
  8
0
 62
7
100
AcDbSpline
 70
8
 71
3
 72
8
 73
4
 74
0
 40
0
 40
0
 40
0
 40
0
 40
1
 40
1
 40
1
 40
1
 10
1.801798
 20
5.844670
 30
0.0
 10
1.768143
 20
5.759743
 30
0.0
 10
2.017138
 20
5.659428
 30
0.0
 10
2.151172
 20
5.703914
 30
0.0
  0
SPLINE
  5
1b6
100
AcDbEntity
  8
0
 62
7
100
AcDbSpline
 70
8
 71
3
 72
8
 73
4
 74
0
 40
0
 40
0
 40
0
 40
0
 40
1
 40
1
 40
1
 40
1
 10
2.151172
 20
5.703914
 30
0.0
 10
2.313762
 20
5.757877
 30
0.0
 10
2.705071
 20
5.717118
 30
0.0
 10
2.749848
 20
5.641555
 30
0.0
  0
SPLINE
  5
1b7
100
AcDbEntity
  8
0
 62
7
100
AcDbSpline
 70
8
 71
3
 72
8
 73
4
 74
0
 40
0
 40
0
 40
0
 40
0
 40
1
 40
1
 40
1
 40
1
 10
2.749848
 20
5.641555
 30
0.0
 10
2.784718
 20
5.582711
 30
0.0
 10
2.813979
 20
5.575602
 30
0.0
 10
2.909699
 20
5.602720
 30
0.0
  0
SPLINE
  5
1b8
100
AcDbEntity
  8
0
 62
7
100
AcDbSpline
 70
8
 71
3
 72
8
 73
4
 74
0
 40
0
 40
0
 40
0
 40
0
 40
1
 40
1
 40
1
 40
1
 10
2.909699
 20
5.602720
 30
0.0
 10
3.132941
 20
5.665965
 30
0.0
 10
3.315352
 20
5.996537
 30
0.0
 10
3.163097
 20
6.076910
 30
0.0
  0
SPLINE
  5
1b9
100
AcDbEntity
  8
0
 62
7
100
AcDbSpline
 70
8
 71
3
 72
8
 73
4
 74
0
 40
0
 40
0
 40
0
 40
0
 40
1
 40
1
 40
1
 40
1
 10
3.163097
 20
6.076910
 30
0.0
 10
3.060837
 20
6.130892
 30
0.0
 10
2.996844
 20
6.109203
 30
0.0
 10
3.038865
 20
6.008758
 30
0.0
  0
SPLINE
  5
1ba
100
AcDbEntity
  8
0
 62
7
100
AcDbSpline
 70
8
 71
3
 72
8
 73
4
 74
0
 40
0
 40
0
 40
0
 40
0
 40
1
 40
1
 40
1
 40
1
 10
3.038865
 20
6.008758
 30
0.0
 10
3.113521
 20
5.830304
 30
0.0
 10
2.890248
 20
5.736467
 30
0.0
 10
2.527154
 20
5.793695
 30
0.0
  0
SPLINE
  5
1bb
100
AcDbEntity
  8
0
 62
7
100
AcDbSpline
 70
8
 71
3
 72
8
 73
4
 74
0
 40
0
 40
0
 40
0
 40
0
 40
1
 40
1
 40
1
 40
1
 10
2.527154
 20
5.793695
 30
0.0
 10
2.195019
 20
5.846044
 30
0.0
 10
2.182753
 20
5.858208
 30
0.0
 10
2.297938
 20
6.020992
 30
0.0
  0
SPLINE
  5
1bc
100
AcDbEntity
  8
0
 62
7
100
AcDbSpline
 70
8
 71
3
 72
8
 73
4
 74
0
 40
0
 40
0
 40
0
 40
0
 40
1
 40
1
 40
1
 40
1
 10
2.297938
 20
6.020992
 30
0.0
 10
2.437334
 20
6.217990
 30
0.0
 10
2.645050
 20
6.285681
 30
0.0
 10
2.785511
 20
6.288917
 30
0.0
  0
SPLINE
  5
1bd
100
AcDbEntity
  8
0
 62
7
100
AcDbSpline
 70
8
 71
3
 72
8
 73
4
 74
0
 40
0
 40
0
 40
0
 40
0
 40
1
 40
1
 40
1
 40
1
 10
2.785511
 20
6.288917
 30
0.0
 10
2.944404
 20
6.292578
 30
0.0
 10
2.993790
 20
6.202058
 30
0.0
 10
3.054676
 20
6.210354
 30
0.0
  0
SPLINE
  5
1be
100
AcDbEntity
  8
0
 62
7
100
AcDbSpline
 70
8
 71
3
 72
8
 73
4
 74
0
 40
0
 40
0
 40
0
 40
0
 40
1
 40
1
 40
1
 40
1
 10
3.054676
 20
6.210354
 30
0.0
 10
3.385377
 20
6.255418
 30
0.0
 10
3.408334
 20
5.834528
 30
0.0
 10
3.131564
 20
5.641919
 30
0.0
  0
SPLINE
  5
1bf
100
AcDbEntity
  8
0
 62
7
100
AcDbSpline
 70
8
 71
3
 72
8
 73
4
 74
0
 40
0
 40
0
 40
0
 40
0
 40
1
 40
1
 40
1
 40
1
 10
3.131564
 20
5.641919
 30
0.0
 10
3.052141
 20
5.586648
 30
0.0
 10
2.968852
 20
5.556800
 30
0.0
 10
2.972019
 20
5.508011
 30
0.0
  0
SPLINE
  5
1c0
100
AcDbEntity
  8
0
 62
7
100
AcDbSpline
 70
8
 71
3
 72
8
 73
4
 74
0
 40
0
 40
0
 40
0
 40
0
 40
1
 40
1
 40
1
 40
1
 10
2.972019
 20
5.508011
 30
0.0
 10
2.973555
 20
5.484346
 30
0.0
 10
3.010299
 20
5.462131
 30
0.0
 10
3.033152
 20
5.435857
 30
0.0
  0
SPLINE
  5
1c1
100
AcDbEntity
  8
0
 62
7
100
AcDbSpline
 70
8
 71
3
 72
8
 73
4
 74
0
 40
0
 40
0
 40
0
 40
0
 40
1
 40
1
 40
1
 40
1
 10
3.033152
 20
5.435857
 30
0.0
 10
3.049438
 20
5.415108
 30
0.0
 10
2.995178
 20
5.370962
 30
0.0
 10
2.967078
 20
5.396006
 30
0.0
  0
SPLINE
  5
1c2
100
AcDbEntity
  8
0
 62
7
100
AcDbSpline
 70
8
 71
3
 72
8
 73
4
 74
0
 40
0
 40
0
 40
0
 40
0
 40
1
 40
1
 40
1
 40
1
 10
2.967078
 20
5.396006
 30
0.0
 10
2.897645
 20
5.457889
 30
0.0
 10
2.824894
 20
5.482260
 30
0.0
 10
2.753990
 20
5.523400
 30
0.0
  0
LWPOLYLINE
  5
1c3
100
AcDbEntity
  8
0
 62
7
100
AcDbPolyline
 90
1
 70
1
 10
5.178500
 20
3.047180
 30
0.0
  0
SPLINE
  5
1c4
100
AcDbEntity
  8
0
 62
7
100
AcDbSpline
 70
8
 71
3
 72
8
 73
4
 74
0
 40
0
 40
0
 40
0
 40
0
 40
1
 40
1
 40
1
 40
1
 10
7.312921
 20
5.918389
 30
0.0
 10
7.411270
 20
5.929942
 30
0.0
 10
7.382982
 20
5.886709
 30
0.0
 10
7.311502
 20
5.848864
 30
0.0
  0
SPLINE
  5
1c5
100
AcDbEntity
  8
0
 62
7
100
AcDbSpline
 70
8
 71
3
 72
8
 73
4
 74
0
 40
0
 40
0
 40
0
 40
0
 40
1
 40
1
 40
1
 40
1
 10
7.311502
 20
5.848864
 30
0.0
 10
7.253848
 20
5.818339
 30
0.0
 10
7.248261
 20
5.746447
 30
0.0
 10
7.251709
 20
5.714533
 30
0.0
  0
SPLINE
  5
1c6
100
AcDbEntity
  8
0
 62
7
100
AcDbSpline
 70
8
 71
3
 72
8
 73
4
 74
0
 40
0
 40
0
 40
0
 40
0
 40
1
 40
1
 40
1
 40
1
 10
7.251709
 20
5.714533
 30
0.0
 10
7.255156
 20
5.682619
 30
0.0
 10
7.255544
 20
5.614066
 30
0.0
 10
7.292326
 20
5.534864
 30
0.0
  0
SPLINE
  5
1c7
100
AcDbEntity
  8
0
 62
7
100
AcDbSpline
 70
8
 71
3
 72
8
 73
4
 74
0
 40
0
 40
0
 40
0
 40
0
 40
1
 40
1
 40
1
 40
1
 10
7.292326
 20
5.534864
 30
0.0
 10
7.320272
 20
5.478432
 30
0.0
 10
7.334855
 20
5.402026
 30
0.0
 10
7.366516
 20
5.316244
 30
0.0
  0
SPLINE
  5
1c8
100
AcDbEntity
  8
0
 62
7
100
AcDbSpline
 70
8
 71
3
 72
8
 73
4
 74
0
 40
0
 40
0
 40
0
 40
0
 40
1
 40
1
 40
1
 40
1
 10
7.366516
 20
5.316244
 30
0.0
 10
7.386763
 20
5.261391
 30
0.0
 10
7.413930
 20
5.177126
 30
0.0
 10
7.443948
 20
5.145004
 30
0.0
  0
SPLINE
  5
1c9
100
AcDbEntity
  8
0
 62
7
100
AcDbSpline
 70
8
 71
3
 72
8
 73
4
 74
0
 40
0
 40
0
 40
0
 40
0
 40
1
 40
1
 40
1
 40
1
 10
7.443948
 20
5.145004
 30
0.0
 10
7.506814
 20
5.077735
 30
0.0
 10
7.550768
 20
5.088929
 30
0.0
 10
7.696020
 20
5.248641
 30
0.0
  0
SPLINE
  5
1ca
100
AcDbEntity
  8
0
 62
7
100
AcDbSpline
 70
8
 71
3
 72
8
 73
4
 74
0
 40
0
 40
0
 40
0
 40
0
 40
1
 40
1
 40
1
 40
1
 10
7.696020
 20
5.248641
 30
0.0
 10
7.881416
 20
5.452492
 30
0.0
 10
7.935185
 20
5.426766
 30
0.0
 10
8.125773
 20
5.289045
 30
0.0
  0
SPLINE
  5
1cb
100
AcDbEntity
  8
0
 62
7
100
AcDbSpline
 70
8
 71
3
 72
8
 73
4
 74
0
 40
0
 40
0
 40
0
 40
0
 40
1
 40
1
 40
1
 40
1
 10
8.125773
 20
5.289045
 30
0.0
 10
8.252152
 20
5.197722
 30
0.0
 10
8.363256
 20
5.125054
 30
0.0
 10
8.572049
 20
5.141179
 30
0.0
  0
SPLINE
  5
1cc
100
AcDbEntity
  8
0
 62
7
100
AcDbSpline
 70
8
 71
3
 72
8
 73
4
 74
0
 40
0
 40
0
 40
0
 40
0
 40
1
 40
1
 40
1
 40
1
 10
8.572049
 20
5.141179
 30
0.0
 10
8.675119
 20
5.149138
 30
0.0
 10
8.734752
 20
5.241163
 30
0.0
 10
8.777350
 20
4.988021
 30
0.0
  0
SPLINE
  5
1cd
100
AcDbEntity
  8
0
 62
7
100
AcDbSpline
 70
8
 71
3
 72
8
 73
4
 74
0
 40
0
 40
0
 40
0
 40
0
 40
1
 40
1
 40
1
 40
1
 10
8.777350
 20
4.988021
 30
0.0
 10
8.790942
 20
4.907251
 30
0.0
 10
8.900376
 20
4.878972
 30
0.0
 10
9.321101
 20
4.857436
 30
0.0
  0
SPLINE
  5
1ce
100
AcDbEntity
  8
0
 62
7
100
AcDbSpline
 70
8
 71
3
 72
8
 73
4
 74
0
 40
0
 40
0
 40
0
 40
0
 40
1
 40
1
 40
1
 40
1
 10
9.321101
 20
4.857436
 30
0.0
 10
9.762544
 20
4.834839
 30
0.0
 10
9.883560
 20
4.783314
 30
0.0
 10
9.496756
 20
5.203374
 30
0.0
  0
SPLINE
  5
1cf
100
AcDbEntity
  8
0
 62
7
100
AcDbSpline
 70
8
 71
3
 72
8
 73
4
 74
0
 40
0
 40
0
 40
0
 40
0
 40
1
 40
1
 40
1
 40
1
 10
9.496756
 20
5.203374
 30
0.0
 10
9.048837
 20
5.587051
 30
0.0
 10
8.901303
 20
5.548038
 30
0.0
 10
8.789744
 20
5.405998
 30
0.0
  0
SPLINE
  5
1d0
100
AcDbEntity
  8
0
 62
7
100
AcDbSpline
 70
8
 71
3
 72
8
 73
4
 74
0
 40
0
 40
0
 40
0
 40
0
 40
1
 40
1
 40
1
 40
1
 10
8.789744
 20
5.405998
 30
0.0
 10
8.672535
 20
5.256765
 30
0.0
 10
8.393648
 20
5.207913
 30
0.0
 10
8.233419
 20
5.308548
 30
0.0
  0
SPLINE
  5
1d1
100
AcDbEntity
  8
0
 62
7
100
AcDbSpline
 70
8
 71
3
 72
8
 73
4
 74
0
 40
0
 40
0
 40
0
 40
0
 40
1
 40
1
 40
1
 40
1
 10
8.233419
 20
5.308548
 30
0.0
 10
8.068129
 20
5.412361
 30
0.0
 10
8.090769
 20
5.460298
 30
0.0
 10
8.275625
 20
5.397914
 30
0.0
  0
SPLINE
  5
1d2
100
AcDbEntity
  8
0
 62
7
100
AcDbSpline
 70
8
 71
3
 72
8
 73
4
 74
0
 40
0
 40
0
 40
0
 40
0
 40
1
 40
1
 40
1
 40
1
 10
8.275625
 20
5.397914
 30
0.0
 10
8.458116
 20
5.336329
 30
0.0
 10
8.579108
 20
5.392871
 30
0.0
 10
8.673214
 20
5.583717
 30
0.0
  0
SPLINE
  5
1d3
100
AcDbEntity
  8
0
 62
7
100
AcDbSpline
 70
8
 71
3
 72
8
 73
4
 74
0
 40
0
 40
0
 40
0
 40
0
 40
1
 40
1
 40
1
 40
1
 10
8.673214
 20
5.583717
 30
0.0
 10
8.770089
 20
5.780179
 30
0.0
 10
8.774698
 20
6.325968
 30
0.0
 10
8.679013
 20
6.270330
 30
0.0
  0
SPLINE
  5
1d4
100
AcDbEntity
  8
0
 62
7
100
AcDbSpline
 70
8
 71
3
 72
8
 73
4
 74
0
 40
0
 40
0
 40
0
 40
0
 40
1
 40
1
 40
1
 40
1
 10
8.679013
 20
6.270330
 30
0.0
 10
8.646664
 20
6.251521
 30
0.0
 10
8.496946
 20
6.168210
 30
0.0
 10
8.346307
 20
6.085196
 30
0.0
  0
SPLINE
  5
1d5
100
AcDbEntity
  8
0
 62
7
100
AcDbSpline
 70
8
 71
3
 72
8
 73
4
 74
0
 40
0
 40
0
 40
0
 40
0
 40
1
 40
1
 40
1
 40
1
 10
8.346307
 20
6.085196
 30
0.0
 10
7.952879
 20
5.868388
 30
0.0
 10
7.921406
 20
5.666791
 30
0.0
 10
8.032252
 20
5.543531
 30
0.0
  0
SPLINE
  5
1d6
100
AcDbEntity
  8
0
 62
7
100
AcDbSpline
 70
8
 71
3
 72
8
 73
4
 74
0
 40
0
 40
0
 40
0
 40
0
 40
1
 40
1
 40
1
 40
1
 10
8.032252
 20
5.543531
 30
0.0
 10
8.097021
 20
5.471509
 30
0.0
 10
8.074113
 20
5.469452
 30
0.0
 10
8.041409
 20
5.466643
 30
0.0
  0
SPLINE
  5
1d7
100
AcDbEntity
  8
0
 62
7
100
AcDbSpline
 70
8
 71
3
 72
8
 73
4
 74
0
 40
0
 40
0
 40
0
 40
0
 40
1
 40
1
 40
1
 40
1
 10
8.041409
 20
5.466643
 30
0.0
 10
7.997974
 20
5.462913
 30
0.0
 10
7.898791
 20
5.486832
 30
0.0
 10
7.894102
 20
5.558675
 30
0.0
  0
SPLINE
  5
1d8
100
AcDbEntity
  8
0
 62
7
100
AcDbSpline
 70
8
 71
3
 72
8
 73
4
 74
0
 40
0
 40
0
 40
0
 40
0
 40
1
 40
1
 40
1
 40
1
 10
7.894102
 20
5.558675
 30
0.0
 10
7.875815
 20
5.838932
 30
0.0
 10
7.772426
 20
5.890155
 30
0.0
 10
7.675368
 20
5.883953
 30
0.0
  0
SPLINE
  5
1d9
100
AcDbEntity
  8
0
 62
7
100
AcDbSpline
 70
8
 71
3
 72
8
 73
4
 74
0
 40
0
 40
0
 40
0
 40
0
 40
1
 40
1
 40
1
 40
1
 10
7.675368
 20
5.883953
 30
0.0
 10
7.629504
 20
5.881022
 30
0.0
 10
7.600898
 20
5.848187
 30
0.0
 10
7.566913
 20
5.863362
 30
0.0
  0
SPLINE
  5
1da
100
AcDbEntity
  8
0
 62
7
100
AcDbSpline
 70
8
 71
3
 72
8
 73
4
 74
0
 40
0
 40
0
 40
0
 40
0
 40
1
 40
1
 40
1
 40
1
 10
7.566913
 20
5.863362
 30
0.0
 10
7.519944
 20
5.884335
 30
0.0
 10
7.501839
 20
5.959543
 30
0.0
 10
7.461149
 20
5.978902
 30
0.0
  0
SPLINE
  5
1db
100
AcDbEntity
  8
0
 62
7
100
AcDbSpline
 70
8
 71
3
 72
8
 73
4
 74
0
 40
0
 40
0
 40
0
 40
0
 40
1
 40
1
 40
1
 40
1
 10
7.461149
 20
5.978902
 30
0.0
 10
7.331193
 20
6.040733
 30
0.0
 10
7.214906
 20
6.013431
 30
0.0
 10
7.122489
 20
5.947426
 30
0.0
  0
SPLINE
  5
1dc
100
AcDbEntity
  8
0
 62
7
100
AcDbSpline
 70
8
 71
3
 72
8
 73
4
 74
0
 40
0
 40
0
 40
0
 40
0
 40
1
 40
1
 40
1
 40
1
 10
7.122489
 20
5.947426
 30
0.0
 10
7.103349
 20
5.933756
 30
0.0
 10
7.058534
 20
5.917254
 30
0.0
 10
7.061261
 20
5.872969
 30
0.0
  0
SPLINE
  5
1dd
100
AcDbEntity
  8
0
 62
7
100
AcDbSpline
 70
8
 71
3
 72
8
 73
4
 74
0
 40
0
 40
0
 40
0
 40
0
 40
1
 40
1
 40
1
 40
1
 10
7.061261
 20
5.872969
 30
0.0
 10
7.064382
 20
5.822312
 30
0.0
 10
7.096121
 20
5.797230
 30
0.0
 10
7.117720
 20
5.798367
 30
0.0
  0
SPLINE
  5
1de
100
AcDbEntity
  8
0
 62
7
100
AcDbSpline
 70
8
 71
3
 72
8
 73
4
 74
0
 40
0
 40
0
 40
0
 40
0
 40
1
 40
1
 40
1
 40
1
 10
7.117720
 20
5.798367
 30
0.0
 10
7.137967
 20
5.799497
 30
0.0
 10
7.202100
 20
5.905372
 30
0.0
 10
7.312921
 20
5.918389
 30
0.0
  0
LWPOLYLINE
  5
1df
100
AcDbEntity
  8
0
 62
7
100
AcDbPolyline
 90
1
 70
1
 10
2.753990
 20
5.523400
 30
0.0
  0
SPLINE
  5
1e0
100
AcDbEntity
  8
0
 62
7
100
AcDbSpline
 70
8
 71
3
 72
8
 73
4
 74
0
 40
0
 40
0
 40
0
 40
0
 40
1
 40
1
 40
1
 40
1
 10
7.597086
 20
3.628206
 30
0.0
 10
7.669778
 20
3.563167
 30
0.0
 10
7.677835
 20
3.518359
 30
0.0
 10
7.587016
 20
3.417984
 30
0.0
  0
SPLINE
  5
1e1
100
AcDbEntity
  8
0
 62
7
100
AcDbSpline
 70
8
 71
3
 72
8
 73
4
 74
0
 40
0
 40
0
 40
0
 40
0
 40
1
 40
1
 40
1
 40
1
 10
7.587016
 20
3.417984
 30
0.0
 10
7.588267
 20
3.319583
 30
0.0
 10
7.672509
 20
3.166011
 30
0.0
 10
7.767314
 20
3.070535
 30
0.0
  0
SPLINE
  5
1e2
100
AcDbEntity
  8
0
 62
7
100
AcDbSpline
 70
8
 71
3
 72
8
 73
4
 74
0
 40
0
 40
0
 40
0
 40
0
 40
1
 40
1
 40
1
 40
1
 10
7.767314
 20
3.070535
 30
0.0
 10
7.891643
 20
2.945328
 30
0.0
 10
8.011665
 20
2.924968
 30
0.0
 10
8.027127
 20
2.936429
 30
0.0
  0
SPLINE
  5
1e3
100
AcDbEntity
  8
0
 62
7
100
AcDbSpline
 70
8
 71
3
 72
8
 73
4
 74
0
 40
0
 40
0
 40
0
 40
0
 40
1
 40
1
 40
1
 40
1
 10
8.027127
 20
2.936429
 30
0.0
 10
8.252858
 20
3.103732
 30
0.0
 10
8.143634
 20
3.690781
 30
0.0
 10
7.828687
 20
3.645771
 30
0.0
  0
SPLINE
  5
1e4
100
AcDbEntity
  8
0
 62
7
100
AcDbSpline
 70
8
 71
3
 72
8
 73
4
 74
0
 40
0
 40
0
 40
0
 40
0
 40
1
 40
1
 40
1
 40
1
 10
7.828687
 20
3.645771
 30
0.0
 10
7.695946
 20
3.626801
 30
0.0
 10
7.516271
 20
3.755913
 30
0.0
 10
7.498781
 20
3.916635
 30
0.0
  0
SPLINE
  5
1e5
100
AcDbEntity
  8
0
 62
7
100
AcDbSpline
 70
8
 71
3
 72
8
 73
4
 74
0
 40
0
 40
0
 40
0
 40
0
 40
1
 40
1
 40
1
 40
1
 10
7.498781
 20
3.916635
 30
0.0
 10
7.490988
 20
3.988248
 30
0.0
 10
7.446583
 20
4.146419
 30
0.0
 10
7.290360
 20
4.426888
 30
0.0
  0
SPLINE
  5
1e6
100
AcDbEntity
  8
0
 62
7
100
AcDbSpline
 70
8
 71
3
 72
8
 73
4
 74
0
 40
0
 40
0
 40
0
 40
0
 40
1
 40
1
 40
1
 40
1
 10
7.290360
 20
4.426888
 30
0.0
 10
7.240017
 20
4.501711
 30
0.0
 10
7.226928
 20
4.572399
 30
0.0
 10
7.206396
 20
4.615435
 30
0.0
  0
SPLINE
  5
1e7
100
AcDbEntity
  8
0
 62
7
100
AcDbSpline
 70
8
 71
3
 72
8
 73
4
 74
0
 40
0
 40
0
 40
0
 40
0
 40
1
 40
1
 40
1
 40
1
 10
7.206396
 20
4.615435
 30
0.0
 10
7.183348
 20
4.663745
 30
0.0
 10
7.156720
 20
4.677697
 30
0.0
 10
7.173511
 20
4.741564
 30
0.0
  0
SPLINE
  5
1e8
100
AcDbEntity
  8
0
 62
7
100
AcDbSpline
 70
8
 71
3
 72
8
 73
4
 74
0
 40
0
 40
0
 40
0
 40
0
 40
1
 40
1
 40
1
 40
1
 10
7.173511
 20
4.741564
 30
0.0
 10
7.189052
 20
4.800676
 30
0.0
 10
7.255264
 20
4.813547
 30
0.0
 10
7.347374
 20
4.818204
 30
0.0
  0
SPLINE
  5
1e9
100
AcDbEntity
  8
0
 62
7
100
AcDbSpline
 70
8
 71
3
 72
8
 73
4
 74
0
 40
0
 40
0
 40
0
 40
0
 40
1
 40
1
 40
1
 40
1
 10
7.347374
 20
4.818204
 30
0.0
 10
7.382907
 20
4.820001
 30
0.0
 10
7.399863
 20
4.777105
 30
0.0
 10
7.346531
 20
4.733152
 30
0.0
  0
SPLINE
  5
1ea
100
AcDbEntity
  8
0
 62
7
100
AcDbSpline
 70
8
 71
3
 72
8
 73
4
 74
0
 40
0
 40
0
 40
0
 40
0
 40
1
 40
1
 40
1
 40
1
 10
7.346531
 20
4.733152
 30
0.0
 10
7.301920
 20
4.696387
 30
0.0
 10
7.278477
 20
4.640556
 30
0.0
 10
7.293937
 20
4.586855
 30
0.0
  0
SPLINE
  5
1eb
100
AcDbEntity
  8
0
 62
7
100
AcDbSpline
 70
8
 71
3
 72
8
 73
4
 74
0
 40
0
 40
0
 40
0
 40
0
 40
1
 40
1
 40
1
 40
1
 10
7.293937
 20
4.586855
 30
0.0
 10
7.310862
 20
4.528060
 30
0.0
 10
7.322763
 20
4.515242
 30
0.0
 10
7.377794
 20
4.430446
 30
0.0
  0
SPLINE
  5
1ec
100
AcDbEntity
  8
0
 62
7
100
AcDbSpline
 70
8
 71
3
 72
8
 73
4
 74
0
 40
0
 40
0
 40
0
 40
0
 40
1
 40
1
 40
1
 40
1
 10
7.377794
 20
4.430446
 30
0.0
 10
7.473234
 20
4.291998
 30
0.0
 10
7.543074
 20
4.205404
 30
0.0
 10
7.574988
 20
4.135422
 30
0.0
  0
SPLINE
  5
1ed
100
AcDbEntity
  8
0
 62
7
100
AcDbSpline
 70
8
 71
3
 72
8
 73
4
 74
0
 40
0
 40
0
 40
0
 40
0
 40
1
 40
1
 40
1
 40
1
 10
7.574988
 20
4.135422
 30
0.0
 10
7.693628
 20
3.875253
 30
0.0
 10
7.785066
 20
3.847244
 30
0.0
 10
7.799413
 20
3.980051
 30
0.0
  0
SPLINE
  5
1ee
100
AcDbEntity
  8
0
 62
7
100
AcDbSpline
 70
8
 71
3
 72
8
 73
4
 74
0
 40
0
 40
0
 40
0
 40
0
 40
1
 40
1
 40
1
 40
1
 10
7.799413
 20
3.980051
 30
0.0
 10
7.804329
 20
4.025565
 30
0.0
 10
7.877413
 20
4.144154
 30
0.0
 10
7.961818
 20
4.243581
 30
0.0
  0
SPLINE
  5
1ef
100
AcDbEntity
  8
0
 62
7
100
AcDbSpline
 70
8
 71
3
 72
8
 73
4
 74
0
 40
0
 40
0
 40
0
 40
0
 40
1
 40
1
 40
1
 40
1
 10
7.961818
 20
4.243581
 30
0.0
 10
8.112204
 20
4.420730
 30
0.0
 10
8.146425
 20
4.638177
 30
0.0
 10
8.083894
 20
4.761037
 30
0.0
  0
SPLINE
  5
1f0
100
AcDbEntity
  8
0
 62
7
100
AcDbSpline
 70
8
 71
3
 72
8
 73
4
 74
0
 40
0
 40
0
 40
0
 40
0
 40
1
 40
1
 40
1
 40
1
 10
8.083894
 20
4.761037
 30
0.0
 10
8.013147
 20
4.900040
 30
0.0
 10
7.685338
 20
4.986059
 30
0.0
 10
7.670868
 20
4.856522
 30
0.0
  0
SPLINE
  5
1f1
100
AcDbEntity
  8
0
 62
7
100
AcDbSpline
 70
8
 71
3
 72
8
 73
4
 74
0
 40
0
 40
0
 40
0
 40
0
 40
1
 40
1
 40
1
 40
1
 10
7.670868
 20
4.856522
 30
0.0
 10
7.667499
 20
4.826370
 30
0.0
 10
7.591409
 20
4.834423
 30
0.0
 10
7.470350
 20
4.867674
 30
0.0
  0
SPLINE
  5
1f2
100
AcDbEntity
  8
0
 62
7
100
AcDbSpline
 70
8
 71
3
 72
8
 73
4
 74
0
 40
0
 40
0
 40
0
 40
0
 40
1
 40
1
 40
1
 40
1
 10
7.470350
 20
4.867674
 30
0.0
 10
7.316898
 20
4.909824
 30
0.0
 10
7.253912
 20
4.907841
 30
0.0
 10
7.179712
 20
4.858524
 30
0.0
  0
SPLINE
  5
1f3
100
AcDbEntity
  8
0
 62
7
100
AcDbSpline
 70
8
 71
3
 72
8
 73
4
 74
0
 40
0
 40
0
 40
0
 40
0
 40
1
 40
1
 40
1
 40
1
 10
7.179712
 20
4.858524
 30
0.0
 10
7.055982
 20
4.776287
 30
0.0
 10
6.937200
 20
5.052400
 30
0.0
 10
7.052452
 20
5.154345
 30
0.0
  0
SPLINE
  5
1f4
100
AcDbEntity
  8
0
 62
7
100
AcDbSpline
 70
8
 71
3
 72
8
 73
4
 74
0
 40
0
 40
0
 40
0
 40
0
 40
1
 40
1
 40
1
 40
1
 10
7.052452
 20
5.154345
 30
0.0
 10
7.086885
 20
5.184802
 30
0.0
 10
7.155775
 20
5.237395
 30
0.0
 10
7.153381
 20
5.285291
 30
0.0
  0
SPLINE
  5
1f5
100
AcDbEntity
  8
0
 62
7
100
AcDbSpline
 70
8
 71
3
 72
8
 73
4
 74
0
 40
0
 40
0
 40
0
 40
0
 40
1
 40
1
 40
1
 40
1
 10
7.153381
 20
5.285291
 30
0.0
 10
7.150270
 20
5.347518
 30
0.0
 10
7.126041
 20
5.427550
 30
0.0
 10
7.110239
 20
5.498680
 30
0.0
  0
SPLINE
  5
1f6
100
AcDbEntity
  8
0
 62
7
100
AcDbSpline
 70
8
 71
3
 72
8
 73
4
 74
0
 40
0
 40
0
 40
0
 40
0
 40
1
 40
1
 40
1
 40
1
 10
7.110239
 20
5.498680
 30
0.0
 10
7.076279
 20
5.597661
 30
0.0
 10
7.109666
 20
5.669518
 30
0.0
 10
7.076111
 20
5.729192
 30
0.0
  0
SPLINE
  5
1f7
100
AcDbEntity
  8
0
 62
7
100
AcDbSpline
 70
8
 71
3
 72
8
 73
4
 74
0
 40
0
 40
0
 40
0
 40
0
 40
1
 40
1
 40
1
 40
1
 10
7.076111
 20
5.729192
 30
0.0
 10
7.033319
 20
5.778414
 30
0.0
 10
7.039359
 20
5.784859
 30
0.0
 10
7.010834
 20
5.793549
 30
0.0
  0
SPLINE
  5
1f8
100
AcDbEntity
  8
0
 62
7
100
AcDbSpline
 70
8
 71
3
 72
8
 73
4
 74
0
 40
0
 40
0
 40
0
 40
0
 40
1
 40
1
 40
1
 40
1
 10
7.010834
 20
5.793549
 30
0.0
 10
6.979022
 20
5.803240
 30
0.0
 10
7.011929
 20
5.708835
 30
0.0
 10
7.020079
 20
5.643107
 30
0.0
  0
SPLINE
  5
1f9
100
AcDbEntity
  8
0
 62
7
100
AcDbSpline
 70
8
 71
3
 72
8
 73
4
 74
0
 40
0
 40
0
 40
0
 40
0
 40
1
 40
1
 40
1
 40
1
 10
7.020079
 20
5.643107
 30
0.0
 10
7.027392
 20
5.584134
 30
0.0
 10
6.990038
 20
5.517835
 30
0.0
 10
6.947798
 20
5.594861
 30
0.0
  0
SPLINE
  5
1fa
100
AcDbEntity
  8
0
 62
7
100
AcDbSpline
 70
8
 71
3
 72
8
 73
4
 74
0
 40
0
 40
0
 40
0
 40
0
 40
1
 40
1
 40
1
 40
1
 10
6.947798
 20
5.594861
 30
0.0
 10
6.912211
 20
5.659757
 30
0.0
 10
6.945549
 20
5.677304
 30
0.0
 10
6.914564
 20
5.756551
 30
0.0
  0
SPLINE
  5
1fb
100
AcDbEntity
  8
0
 62
7
100
AcDbSpline
 70
8
 71
3
 72
8
 73
4
 74
0
 40
0
 40
0
 40
0
 40
0
 40
1
 40
1
 40
1
 40
1
 10
6.914564
 20
5.756551
 30
0.0
 10
6.881677
 20
5.840663
 30
0.0
 10
6.734952
 20
5.907525
 30
0.0
 10
6.587457
 20
5.798207
 30
0.0
  0
SPLINE
  5
1fc
100
AcDbEntity
  8
0
 62
7
100
AcDbSpline
 70
8
 71
3
 72
8
 73
4
 74
0
 40
0
 40
0
 40
0
 40
0
 40
1
 40
1
 40
1
 40
1
 10
6.587457
 20
5.798207
 30
0.0
 10
6.415631
 20
5.670856
 30
0.0
 10
6.411522
 20
5.360059
 30
0.0
 10
6.427746
 20
5.052619
 30
0.0
  0
SPLINE
  5
1fd
100
AcDbEntity
  8
0
 62
7
100
AcDbSpline
 70
8
 71
3
 72
8
 73
4
 74
0
 40
0
 40
0
 40
0
 40
0
 40
1
 40
1
 40
1
 40
1
 10
6.427746
 20
5.052619
 30
0.0
 10
6.432090
 20
4.970309
 30
0.0
 10
6.553781
 20
4.879007
 30
0.0
 10
6.641557
 20
4.981346
 30
0.0
  0
SPLINE
  5
1fe
100
AcDbEntity
  8
0
 62
7
100
AcDbSpline
 70
8
 71
3
 72
8
 73
4
 74
0
 40
0
 40
0
 40
0
 40
0
 40
1
 40
1
 40
1
 40
1
 10
6.641557
 20
4.981346
 30
0.0
 10
6.683462
 20
5.030203
 30
0.0
 10
6.815533
 20
5.100001
 30
0.0
 10
6.885729
 20
5.029594
 30
0.0
  0
SPLINE
  5
1ff
100
AcDbEntity
  8
0
 62
7
100
AcDbSpline
 70
8
 71
3
 72
8
 73
4
 74
0
 40
0
 40
0
 40
0
 40
0
 40
1
 40
1
 40
1
 40
1
 10
6.885729
 20
5.029594
 30
0.0
 10
6.951341
 20
4.963788
 30
0.0
 10
7.045321
 20
4.676713
 30
0.0
 10
7.098774
 20
4.596391
 30
0.0
  0
SPLINE
  5
200
100
AcDbEntity
  8
0
 62
7
100
AcDbSpline
 70
8
 71
3
 72
8
 73
4
 74
0
 40
0
 40
0
 40
0
 40
0
 40
1
 40
1
 40
1
 40
1
 10
7.098774
 20
4.596391
 30
0.0
 10
7.183149
 20
4.469603
 30
0.0
 10
7.104028
 20
4.466822
 30
0.0
 10
7.054353
 20
4.531107
 30
0.0
  0
SPLINE
  5
201
100
AcDbEntity
  8
0
 62
7
100
AcDbSpline
 70
8
 71
3
 72
8
 73
4
 74
0
 40
0
 40
0
 40
0
 40
0
 40
1
 40
1
 40
1
 40
1
 10
7.054353
 20
4.531107
 30
0.0
 10
7.007897
 20
4.591226
 30
0.0
 10
6.983323
 20
4.670230
 30
0.0
 10
6.904342
 20
4.731850
 30
0.0
  0
SPLINE
  5
202
100
AcDbEntity
  8
0
 62
7
100
AcDbSpline
 70
8
 71
3
 72
8
 73
4
 74
0
 40
0
 40
0
 40
0
 40
0
 40
1
 40
1
 40
1
 40
1
 10
6.904342
 20
4.731850
 30
0.0
 10
6.821791
 20
4.796257
 30
0.0
 10
6.687464
 20
4.916046
 30
0.0
 10
6.771801
 20
4.617133
 30
0.0
  0
SPLINE
  5
203
100
AcDbEntity
  8
0
 62
7
100
AcDbSpline
 70
8
 71
3
 72
8
 73
4
 74
0
 40
0
 40
0
 40
0
 40
0
 40
1
 40
1
 40
1
 40
1
 10
6.771801
 20
4.617133
 30
0.0
 10
6.798897
 20
4.521097
 30
0.0
 10
6.861463
 20
4.480222
 30
0.0
 10
6.917910
 20
4.437289
 30
0.0
  0
SPLINE
  5
204
100
AcDbEntity
  8
0
 62
7
100
AcDbSpline
 70
8
 71
3
 72
8
 73
4
 74
0
 40
0
 40
0
 40
0
 40
0
 40
1
 40
1
 40
1
 40
1
 10
6.917910
 20
4.437289
 30
0.0
 10
6.986651
 20
4.385007
 30
0.0
 10
7.174373
 20
4.302628
 30
0.0
 10
7.135818
 20
4.377459
 30
0.0
  0
SPLINE
  5
205
100
AcDbEntity
  8
0
 62
7
100
AcDbSpline
 70
8
 71
3
 72
8
 73
4
 74
0
 40
0
 40
0
 40
0
 40
0
 40
1
 40
1
 40
1
 40
1
 10
7.135818
 20
4.377459
 30
0.0
 10
7.111154
 20
4.425328
 30
0.0
 10
7.151922
 20
4.452894
 30
0.0
 10
7.192828
 20
4.389966
 30
0.0
  0
SPLINE
  5
206
100
AcDbEntity
  8
0
 62
7
100
AcDbSpline
 70
8
 71
3
 72
8
 73
4
 74
0
 40
0
 40
0
 40
0
 40
0
 40
1
 40
1
 40
1
 40
1
 10
7.192828
 20
4.389966
 30
0.0
 10
7.226628
 20
4.337971
 30
0.0
 10
7.440106
 20
3.864043
 30
0.0
 10
7.408564
 20
3.739808
 30
0.0
  0
SPLINE
  5
207
100
AcDbEntity
  8
0
 62
7
100
AcDbSpline
 70
8
 71
3
 72
8
 73
4
 74
0
 40
0
 40
0
 40
0
 40
0
 40
1
 40
1
 40
1
 40
1
 10
7.408564
 20
3.739808
 30
0.0
 10
7.394217
 20
3.683300
 30
0.0
 10
7.434192
 20
3.682339
 30
0.0
 10
7.475133
 20
3.672872
 30
0.0
  0
SPLINE
  5
208
100
AcDbEntity
  8
0
 62
7
100
AcDbSpline
 70
8
 71
3
 72
8
 73
4
 74
0
 40
0
 40
0
 40
0
 40
0
 40
1
 40
1
 40
1
 40
1
 10
7.475133
 20
3.672872
 30
0.0
 10
7.579232
 20
3.637108
 30
0.0
 10
7.560446
 20
3.660987
 30
0.0
 10
7.597085
 20
3.628206
 30
0.0
  0
LWPOLYLINE
  5
209
100
AcDbEntity
  8
0
 62
7
100
AcDbPolyline
 90
1
 70
1
 10
7.312921
 20
5.918389
 30
0.0
  0
SPLINE
  5
20a
100
AcDbEntity
  8
0
 62
7
100
AcDbSpline
 70
8
 71
3
 72
8
 73
4
 74
0
 40
0
 40
0
 40
0
 40
0
 40
1
 40
1
 40
1
 40
1
 10
7.192043
 20
3.031134
 30
0.0
 10
7.158593
 20
3.031254
 30
0.0
 10
7.159029
 20
3.104212
 30
0.0
 10
7.173013
 20
3.140876
 30
0.0
  0
SPLINE
  5
20b
100
AcDbEntity
  8
0
 62
7
100
AcDbSpline
 70
8
 71
3
 72
8
 73
4
 74
0
 40
0
 40
0
 40
0
 40
0
 40
1
 40
1
 40
1
 40
1
 10
7.173013
 20
3.140876
 30
0.0
 10
7.190210
 20
3.185968
 30
0.0
 10
7.205787
 20
3.197270
 30
0.0
 10
7.242439
 20
3.192155
 30
0.0
  0
SPLINE
  5
20c
100
AcDbEntity
  8
0
 62
7
100
AcDbSpline
 70
8
 71
3
 72
8
 73
4
 74
0
 40
0
 40
0
 40
0
 40
0
 40
1
 40
1
 40
1
 40
1
 10
7.242439
 20
3.192155
 30
0.0
 10
7.316464
 20
3.181824
 30
0.0
 10
7.327260
 20
3.211016
 30
0.0
 10
7.382817
 20
3.188304
 30
0.0
  0
SPLINE
  5
20d
100
AcDbEntity
  8
0
 62
7
100
AcDbSpline
 70
8
 71
3
 72
8
 73
4
 74
0
 40
0
 40
0
 40
0
 40
0
 40
1
 40
1
 40
1
 40
1
 10
7.382817
 20
3.188304
 30
0.0
 10
7.434952
 20
3.126640
 30
0.0
 10
7.410161
 20
3.158236
 30
0.0
 10
7.486896
 20
3.053766
 30
0.0
  0
SPLINE
  5
20e
100
AcDbEntity
  8
0
 62
7
100
AcDbSpline
 70
8
 71
3
 72
8
 73
4
 74
0
 40
0
 40
0
 40
0
 40
0
 40
1
 40
1
 40
1
 40
1
 10
7.486896
 20
3.053766
 30
0.0
 10
7.515122
 20
3.015339
 30
0.0
 10
7.638846
 20
2.859183
 30
0.0
 10
7.632670
 20
2.782023
 30
0.0
  0
SPLINE
  5
20f
100
AcDbEntity
  8
0
 62
7
100
AcDbSpline
 70
8
 71
3
 72
8
 73
4
 74
0
 40
0
 40
0
 40
0
 40
0
 40
1
 40
1
 40
1
 40
1
 10
7.632670
 20
2.782023
 30
0.0
 10
7.628169
 20
2.725784
 30
0.0
 10
7.517487
 20
2.761410
 30
0.0
 10
7.474785
 20
2.720180
 30
0.0
  0
SPLINE
  5
210
100
AcDbEntity
  8
0
 62
7
100
AcDbSpline
 70
8
 71
3
 72
8
 73
4
 74
0
 40
0
 40
0
 40
0
 40
0
 40
1
 40
1
 40
1
 40
1
 10
7.474785
 20
2.720180
 30
0.0
 10
7.365391
 20
2.614558
 30
0.0
 10
7.435898
 20
2.519080
 30
0.0
 10
7.563150
 20
2.442189
 30
0.0
  0
SPLINE
  5
211
100
AcDbEntity
  8
0
 62
7
100
AcDbSpline
 70
8
 71
3
 72
8
 73
4
 74
0
 40
0
 40
0
 40
0
 40
0
 40
1
 40
1
 40
1
 40
1
 10
7.563150
 20
2.442189
 30
0.0
 10
7.645722
 20
2.392296
 30
0.0
 10
7.659093
 20
2.344530
 30
0.0
 10
7.652027
 20
2.124678
 30
0.0
  0
SPLINE
  5
212
100
AcDbEntity
  8
0
 62
7
100
AcDbSpline
 70
8
 71
3
 72
8
 73
4
 74
0
 40
0
 40
0
 40
0
 40
0
 40
1
 40
1
 40
1
 40
1
 10
7.652027
 20
2.124678
 30
0.0
 10
7.646075
 20
1.939441
 30
0.0
 10
7.645459
 20
1.843909
 30
0.0
 10
7.710152
 20
1.736014
 30
0.0
  0
SPLINE
  5
213
100
AcDbEntity
  8
0
 62
7
100
AcDbSpline
 70
8
 71
3
 72
8
 73
4
 74
0
 40
0
 40
0
 40
0
 40
0
 40
1
 40
1
 40
1
 40
1
 10
7.710152
 20
1.736014
 30
0.0
 10
7.747574
 20
1.673603
 30
0.0
 10
7.805154
 20
1.537492
 30
0.0
 10
7.813271
 20
1.450125
 30
0.0
  0
SPLINE
  5
214
100
AcDbEntity
  8
0
 62
7
100
AcDbSpline
 70
8
 71
3
 72
8
 73
4
 74
0
 40
0
 40
0
 40
0
 40
0
 40
1
 40
1
 40
1
 40
1
 10
7.813271
 20
1.450125
 30
0.0
 10
7.836404
 20
1.201108
 30
0.0
 10
7.721962
 20
0.949419
 30
0.0
 10
7.649886
 20
0.826762
 30
0.0
  0
SPLINE
  5
215
100
AcDbEntity
  8
0
 62
7
100
AcDbSpline
 70
8
 71
3
 72
8
 73
4
 74
0
 40
0
 40
0
 40
0
 40
0
 40
1
 40
1
 40
1
 40
1
 10
7.649886
 20
0.826762
 30
0.0
 10
7.604210
 20
0.749031
 30
0.0
 10
7.545321
 20
0.656571
 30
0.0
 10
7.508363
 20
0.629747
 30
0.0
  0
SPLINE
  5
216
100
AcDbEntity
  8
0
 62
7
100
AcDbSpline
 70
8
 71
3
 72
8
 73
4
 74
0
 40
0
 40
0
 40
0
 40
0
 40
1
 40
1
 40
1
 40
1
 10
7.508363
 20
0.629747
 30
0.0
 10
7.468473
 20
0.600795
 30
0.0
 10
7.411106
 20
0.534336
 30
0.0
 10
7.384327
 20
0.538073
 30
0.0
  0
SPLINE
  5
217
100
AcDbEntity
  8
0
 62
7
100
AcDbSpline
 70
8
 71
3
 72
8
 73
4
 74
0
 40
0
 40
0
 40
0
 40
0
 40
1
 40
1
 40
1
 40
1
 10
7.384327
 20
0.538073
 30
0.0
 10
7.357549
 20
0.541810
 30
0.0
 10
7.336704
 20
0.572706
 30
0.0
 10
7.361335
 20
0.601893
 30
0.0
  0
SPLINE
  5
218
100
AcDbEntity
  8
0
 62
7
100
AcDbSpline
 70
8
 71
3
 72
8
 73
4
 74
0
 40
0
 40
0
 40
0
 40
0
 40
1
 40
1
 40
1
 40
1
 10
7.361335
 20
0.601893
 30
0.0
 10
7.428350
 20
0.681308
 30
0.0
 10
7.368231
 20
0.665045
 30
0.0
 10
7.328882
 20
0.670536
 30
0.0
  0
SPLINE
  5
219
100
AcDbEntity
  8
0
 62
7
100
AcDbSpline
 70
8
 71
3
 72
8
 73
4
 74
0
 40
0
 40
0
 40
0
 40
0
 40
1
 40
1
 40
1
 40
1
 10
7.328882
 20
0.670536
 30
0.0
 10
7.244481
 20
0.682315
 30
0.0
 10
7.228554
 20
0.529901
 30
0.0
 10
7.309710
 20
0.487061
 30
0.0
  0
SPLINE
  5
21a
100
AcDbEntity
  8
0
 62
7
100
AcDbSpline
 70
8
 71
3
 72
8
 73
4
 74
0
 40
0
 40
0
 40
0
 40
0
 40
1
 40
1
 40
1
 40
1
 10
7.309710
 20
0.487061
 30
0.0
 10
7.344163
 20
0.468873
 30
0.0
 10
7.365500
 20
0.462370
 30
0.0
 10
7.368298
 20
0.428035
 30
0.0
  0
SPLINE
  5
21b
100
AcDbEntity
  8
0
 62
7
100
AcDbSpline
 70
8
 71
3
 72
8
 73
4
 74
0
 40
0
 40
0
 40
0
 40
0
 40
1
 40
1
 40
1
 40
1
 10
7.368298
 20
0.428035
 30
0.0
 10
7.373909
 20
0.359194
 30
0.0
 10
7.315395
 20
0.304398
 30
0.0
 10
7.343861
 20
0.235508
 30
0.0
  0
LWPOLYLINE
  5
21c
100
AcDbEntity
  8
0
 62
7
100
AcDbPolyline
 90
1
 70
1
 10
7.597085
 20
3.628206
 30
0.0
  0
SPLINE
  5
21d
100
AcDbEntity
  8
0
 62
7
100
AcDbSpline
 70
8
 71
3
 72
8
 73
4
 74
0
 40
0
 40
0
 40
0
 40
0
 40
1
 40
1
 40
1
 40
1
 10
7.406764
 20
0.083271
 30
0.0
 10
7.429916
 20
0.027238
 30
0.0
 10
7.470575
 20
0.131868
 30
0.0
 10
7.535112
 20
0.200862
 30
0.0
  0
SPLINE
  5
21e
100
AcDbEntity
  8
0
 62
7
100
AcDbSpline
 70
8
 71
3
 72
8
 73
4
 74
0
 40
0
 40
0
 40
0
 40
0
 40
1
 40
1
 40
1
 40
1
 10
7.535112
 20
0.200862
 30
0.0
 10
7.599378
 20
0.269568
 30
0.0
 10
7.642424
 20
0.348313
 30
0.0
 10
7.610267
 20
0.385420
 30
0.0
  0
SPLINE
  5
21f
100
AcDbEntity
  8
0
 62
7
100
AcDbSpline
 70
8
 71
3
 72
8
 73
4
 74
0
 40
0
 40
0
 40
0
 40
0
 40
1
 40
1
 40
1
 40
1
 10
7.610267
 20
0.385420
 30
0.0
 10
7.514635
 20
0.495772
 30
0.0
 10
7.558073
 20
0.536062
 30
0.0
 10
7.648986
 20
0.655219
 30
0.0
  0
SPLINE
  5
220
100
AcDbEntity
  8
0
 62
7
100
AcDbSpline
 70
8
 71
3
 72
8
 73
4
 74
0
 40
0
 40
0
 40
0
 40
0
 40
1
 40
1
 40
1
 40
1
 10
7.648986
 20
0.655219
 30
0.0
 10
7.708746
 20
0.733546
 30
0.0
 10
7.852609
 20
1.064521
 30
0.0
 10
7.877001
 20
1.203089
 30
0.0
  0
SPLINE
  5
221
100
AcDbEntity
  8
0
 62
7
100
AcDbSpline
 70
8
 71
3
 72
8
 73
4
 74
0
 40
0
 40
0
 40
0
 40
0
 40
1
 40
1
 40
1
 40
1
 10
7.877001
 20
1.203089
 30
0.0
 10
7.917982
 20
1.505167
 30
0.0
 10
7.924569
 20
1.546522
 30
0.0
 10
8.039733
 20
1.485729
 30
0.0
  0
SPLINE
  5
222
100
AcDbEntity
  8
0
 62
7
100
AcDbSpline
 70
8
 71
3
 72
8
 73
4
 74
0
 40
0
 40
0
 40
0
 40
0
 40
1
 40
1
 40
1
 40
1
 10
8.039733
 20
1.485729
 30
0.0
 10
8.116875
 20
1.445006
 30
0.0
 10
8.068708
 20
1.359219
 30
0.0
 10
8.047145
 20
1.228607
 30
0.0
  0
SPLINE
  5
223
100
AcDbEntity
  8
0
 62
7
100
AcDbSpline
 70
8
 71
3
 72
8
 73
4
 74
0
 40
0
 40
0
 40
0
 40
0
 40
1
 40
1
 40
1
 40
1
 10
8.047145
 20
1.228607
 30
0.0
 10
8.027428
 20
1.109175
 30
0.0
 10
7.998754
 20
1.177595
 30
0.0
 10
7.945200
 20
1.099884
 30
0.0
  0
SPLINE
  5
224
100
AcDbEntity
  8
0
 62
7
100
AcDbSpline
 70
8
 71
3
 72
8
 73
4
 74
0
 40
0
 40
0
 40
0
 40
0
 40
1
 40
1
 40
1
 40
1
 10
7.945200
 20
1.099884
 30
0.0
 10
7.919303
 20
1.063518
 30
0.0
 10
7.854784
 20
0.979709
 30
0.0
 10
8.048538
 20
0.761388
 30
0.0
  0
SPLINE
  5
225
100
AcDbEntity
  8
0
 62
7
100
AcDbSpline
 70
8
 71
3
 72
8
 73
4
 74
0
 40
0
 40
0
 40
0
 40
0
 40
1
 40
1
 40
1
 40
1
 10
8.048538
 20
0.761388
 30
0.0
 10
8.291172
 20
0.487989
 30
0.0
 10
8.288193
 20
0.488010
 30
0.0
 10
8.402728
 20
0.758975
 30
0.0
  0
SPLINE
  5
226
100
AcDbEntity
  8
0
 62
7
100
AcDbSpline
 70
8
 71
3
 72
8
 73
4
 74
0
 40
0
 40
0
 40
0
 40
0
 40
1
 40
1
 40
1
 40
1
 10
8.402728
 20
0.758975
 30
0.0
 10
8.540380
 20
1.084625
 30
0.0
 10
8.448653
 20
1.312451
 30
0.0
 10
8.213358
 20
1.229330
 30
0.0
  0
SPLINE
  5
227
100
AcDbEntity
  8
0
 62
7
100
AcDbSpline
 70
8
 71
3
 72
8
 73
4
 74
0
 40
0
 40
0
 40
0
 40
0
 40
1
 40
1
 40
1
 40
1
 10
8.213358
 20
1.229330
 30
0.0
 10
8.142704
 20
1.204371
 30
0.0
 10
8.125385
 20
1.211598
 30
0.0
 10
8.131012
 20
1.263688
 30
0.0
  0
SPLINE
  5
228
100
AcDbEntity
  8
0
 62
7
100
AcDbSpline
 70
8
 71
3
 72
8
 73
4
 74
0
 40
0
 40
0
 40
0
 40
0
 40
1
 40
1
 40
1
 40
1
 10
8.131012
 20
1.263688
 30
0.0
 10
8.146315
 20
1.405346
 30
0.0
 10
8.568049
 20
1.285456
 30
0.0
 10
8.690443
 20
1.104654
 30
0.0
  0
SPLINE
  5
229
100
AcDbEntity
  8
0
 62
7
100
AcDbSpline
 70
8
 71
3
 72
8
 73
4
 74
0
 40
0
 40
0
 40
0
 40
0
 40
1
 40
1
 40
1
 40
1
 10
8.690443
 20
1.104654
 30
0.0
 10
8.768935
 20
0.988706
 30
0.0
 10
8.766657
 20
0.769086
 30
0.0
 10
8.687078
 20
0.780192
 30
0.0
  0
SPLINE
  5
22a
100
AcDbEntity
  8
0
 62
7
100
AcDbSpline
 70
8
 71
3
 72
8
 73
4
 74
0
 40
0
 40
0
 40
0
 40
0
 40
1
 40
1
 40
1
 40
1
 10
8.687078
 20
0.780192
 30
0.0
 10
8.647768
 20
0.785678
 30
0.0
 10
8.613559
 20
0.771218
 30
0.0
 10
8.611057
 20
0.748059
 30
0.0
  0
SPLINE
  5
22b
100
AcDbEntity
  8
0
 62
7
100
AcDbSpline
 70
8
 71
3
 72
8
 73
4
 74
0
 40
0
 40
0
 40
0
 40
0
 40
1
 40
1
 40
1
 40
1
 10
8.611057
 20
0.748059
 30
0.0
 10
8.604173
 20
0.684331
 30
0.0
 10
8.719596
 20
0.681746
 30
0.0
 10
8.788729
 20
0.744079
 30
0.0
  0
SPLINE
  5
22c
100
AcDbEntity
  8
0
 62
7
100
AcDbSpline
 70
8
 71
3
 72
8
 73
4
 74
0
 40
0
 40
0
 40
0
 40
0
 40
1
 40
1
 40
1
 40
1
 10
8.788729
 20
0.744079
 30
0.0
 10
8.969912
 20
0.907443
 30
0.0
 10
8.795360
 20
1.310526
 30
0.0
 10
8.257870
 20
1.454452
 30
0.0
  0
SPLINE
  5
22d
100
AcDbEntity
  8
0
 62
7
100
AcDbSpline
 70
8
 71
3
 72
8
 73
4
 74
0
 40
0
 40
0
 40
0
 40
0
 40
1
 40
1
 40
1
 40
1
 10
8.257870
 20
1.454452
 30
0.0
 10
8.108521
 20
1.494444
 30
0.0
 10
7.878433
 20
1.665267
 30
0.0
 10
7.834953
 20
1.723405
 30
0.0
  0
SPLINE
  5
22e
100
AcDbEntity
  8
0
 62
7
100
AcDbSpline
 70
8
 71
3
 72
8
 73
4
 74
0
 40
0
 40
0
 40
0
 40
0
 40
1
 40
1
 40
1
 40
1
 10
7.834953
 20
1.723405
 30
0.0
 10
7.739650
 20
1.850838
 30
0.0
 10
7.696488
 20
2.029744
 30
0.0
 10
7.763295
 20
2.020421
 30
0.0
  0
SPLINE
  5
22f
100
AcDbEntity
  8
0
 62
7
100
AcDbSpline
 70
8
 71
3
 72
8
 73
4
 74
0
 40
0
 40
0
 40
0
 40
0
 40
1
 40
1
 40
1
 40
1
 10
7.763295
 20
2.020421
 30
0.0
 10
7.789115
 20
2.016818
 30
0.0
 10
7.803020
 20
1.977391
 30
0.0
 10
7.801412
 20
1.932139
 30
0.0
  0
SPLINE
  5
230
100
AcDbEntity
  8
0
 62
7
100
AcDbSpline
 70
8
 71
3
 72
8
 73
4
 74
0
 40
0
 40
0
 40
0
 40
0
 40
1
 40
1
 40
1
 40
1
 10
7.801412
 20
1.932139
 30
0.0
 10
7.798858
 20
1.860243
 30
0.0
 10
7.810686
 20
1.761676
 30
0.0
 10
8.213994
 20
1.721885
 30
0.0
  0
SPLINE
  5
231
100
AcDbEntity
  8
0
 62
7
100
AcDbSpline
 70
8
 71
3
 72
8
 73
4
 74
0
 40
0
 40
0
 40
0
 40
0
 40
1
 40
1
 40
1
 40
1
 10
8.213994
 20
1.721885
 30
0.0
 10
8.573368
 20
1.686429
 30
0.0
 10
8.586225
 20
1.683213
 30
0.0
 10
8.446308
 20
1.938767
 30
0.0
  0
SPLINE
  5
232
100
AcDbEntity
  8
0
 62
7
100
AcDbSpline
 70
8
 71
3
 72
8
 73
4
 74
0
 40
0
 40
0
 40
0
 40
0
 40
1
 40
1
 40
1
 40
1
 10
8.446308
 20
1.938767
 30
0.0
 10
8.307840
 20
2.191670
 30
0.0
 10
8.122104
 20
2.282118
 30
0.0
 10
7.973821
 20
2.168854
 30
0.0
  0
SPLINE
  5
233
100
AcDbEntity
  8
0
 62
7
100
AcDbSpline
 70
8
 71
3
 72
8
 73
4
 74
0
 40
0
 40
0
 40
0
 40
0
 40
1
 40
1
 40
1
 40
1
 10
7.973821
 20
2.168854
 30
0.0
 10
7.823652
 20
2.054150
 30
0.0
 10
7.725512
 20
2.056094
 30
0.0
 10
7.738197
 20
2.173523
 30
0.0
  0
SPLINE
  5
234
100
AcDbEntity
  8
0
 62
7
100
AcDbSpline
 70
8
 71
3
 72
8
 73
4
 74
0
 40
0
 40
0
 40
0
 40
0
 40
1
 40
1
 40
1
 40
1
 10
7.738197
 20
2.173523
 30
0.0
 10
7.746183
 20
2.247446
 30
0.0
 10
7.767002
 20
2.266795
 30
0.0
 10
7.812639
 20
2.242704
 30
0.0
  0
SPLINE
  5
235
100
AcDbEntity
  8
0
 62
7
100
AcDbSpline
 70
8
 71
3
 72
8
 73
4
 74
0
 40
0
 40
0
 40
0
 40
0
 40
1
 40
1
 40
1
 40
1
 10
7.812639
 20
2.242704
 30
0.0
 10
7.928413
 20
2.181589
 30
0.0
 10
7.884202
 20
2.441584
 30
0.0
 10
7.733083
 20
2.809065
 30
0.0
  0
SPLINE
  5
236
100
AcDbEntity
  8
0
 62
7
100
AcDbSpline
 70
8
 71
3
 72
8
 73
4
 74
0
 40
0
 40
0
 40
0
 40
0
 40
1
 40
1
 40
1
 40
1
 10
7.733083
 20
2.809065
 30
0.0
 10
7.690432
 20
2.914500
 30
0.0
 10
7.624049
 20
3.038916
 30
0.0
 10
7.534481
 20
3.138323
 30
0.0
  0
SPLINE
  5
237
100
AcDbEntity
  8
0
 62
7
100
AcDbSpline
 70
8
 71
3
 72
8
 73
4
 74
0
 40
0
 40
0
 40
0
 40
0
 40
1
 40
1
 40
1
 40
1
 10
7.534481
 20
3.138323
 30
0.0
 10
7.488379
 20
3.189488
 30
0.0
 10
7.434238
 20
3.318517
 30
0.0
 10
7.439849
 20
3.366984
 30
0.0
  0
SPLINE
  5
238
100
AcDbEntity
  8
0
 62
7
100
AcDbSpline
 70
8
 71
3
 72
8
 73
4
 74
0
 40
0
 40
0
 40
0
 40
0
 40
1
 40
1
 40
1
 40
1
 10
7.439849
 20
3.366984
 30
0.0
 10
7.445901
 20
3.419253
 30
0.0
 10
7.488182
 20
3.485722
 30
0.0
 10
7.459159
 20
3.586762
 30
0.0
  0
SPLINE
  5
239
100
AcDbEntity
  8
0
 62
7
100
AcDbSpline
 70
8
 71
3
 72
8
 73
4
 74
0
 40
0
 40
0
 40
0
 40
0
 40
1
 40
1
 40
1
 40
1
 10
7.459159
 20
3.586762
 30
0.0
 10
7.433754
 20
3.611246
 30
0.0
 10
7.384727
 20
3.652634
 30
0.0
 10
7.372684
 20
3.620744
 30
0.0
  0
SPLINE
  5
23a
100
AcDbEntity
  8
0
 62
7
100
AcDbSpline
 70
8
 71
3
 72
8
 73
4
 74
0
 40
0
 40
0
 40
0
 40
0
 40
1
 40
1
 40
1
 40
1
 10
7.372684
 20
3.620744
 30
0.0
 10
7.349885
 20
3.560373
 30
0.0
 10
7.341759
 20
3.524941
 30
0.0
 10
7.297684
 20
3.527221
 30
0.0
  0
SPLINE
  5
23b
100
AcDbEntity
  8
0
 62
7
100
AcDbSpline
 70
8
 71
3
 72
8
 73
4
 74
0
 40
0
 40
0
 40
0
 40
0
 40
1
 40
1
 40
1
 40
1
 10
7.297684
 20
3.527221
 30
0.0
 10
7.218062
 20
3.531339
 30
0.0
 10
7.150432
 20
3.629259
 30
0.0
 10
7.168811
 20
3.698463
 30
0.0
  0
SPLINE
  5
23c
100
AcDbEntity
  8
0
 62
7
100
AcDbSpline
 70
8
 71
3
 72
8
 73
4
 74
0
 40
0
 40
0
 40
0
 40
0
 40
1
 40
1
 40
1
 40
1
 10
7.168811
 20
3.698463
 30
0.0
 10
7.190397
 20
3.779747
 30
0.0
 10
7.239548
 20
3.819377
 30
0.0
 10
7.159485
 20
4.010177
 30
0.0
  0
SPLINE
  5
23d
100
AcDbEntity
  8
0
 62
7
100
AcDbSpline
 70
8
 71
3
 72
8
 73
4
 74
0
 40
0
 40
0
 40
0
 40
0
 40
1
 40
1
 40
1
 40
1
 10
7.159485
 20
4.010177
 30
0.0
 10
7.042043
 20
4.290048
 30
0.0
 10
7.007665
 20
4.179433
 30
0.0
 10
6.939427
 20
3.960288
 30
0.0
  0
SPLINE
  5
23e
100
AcDbEntity
  8
0
 62
7
100
AcDbSpline
 70
8
 71
3
 72
8
 73
4
 74
0
 40
0
 40
0
 40
0
 40
0
 40
1
 40
1
 40
1
 40
1
 10
6.939427
 20
3.960288
 30
0.0
 10
6.907223
 20
3.856865
 30
0.0
 10
6.903340
 20
3.820573
 30
0.0
 10
6.918447
 20
3.738839
 30
0.0
  0
SPLINE
  5
23f
100
AcDbEntity
  8
0
 62
7
100
AcDbSpline
 70
8
 71
3
 72
8
 73
4
 74
0
 40
0
 40
0
 40
0
 40
0
 40
1
 40
1
 40
1
 40
1
 10
6.918447
 20
3.738839
 30
0.0
 10
6.931423
 20
3.668634
 30
0.0
 10
6.949525
 20
3.600074
 30
0.0
 10
7.038782
 20
3.566371
 30
0.0
  0
SPLINE
  5
240
100
AcDbEntity
  8
0
 62
7
100
AcDbSpline
 70
8
 71
3
 72
8
 73
4
 74
0
 40
0
 40
0
 40
0
 40
0
 40
1
 40
1
 40
1
 40
1
 10
7.038782
 20
3.566371
 30
0.0
 10
7.141871
 20
3.527445
 30
0.0
 10
7.141793
 20
3.484712
 30
0.0
 10
7.250610
 20
3.449435
 30
0.0
  0
SPLINE
  5
241
100
AcDbEntity
  8
0
 62
7
100
AcDbSpline
 70
8
 71
3
 72
8
 73
4
 74
0
 40
0
 40
0
 40
0
 40
0
 40
1
 40
1
 40
1
 40
1
 10
7.250610
 20
3.449435
 30
0.0
 10
7.391600
 20
3.403727
 30
0.0
 10
7.408454
 20
3.278328
 30
0.0
 10
7.268659
 20
3.278859
 30
0.0
  0
SPLINE
  5
242
100
AcDbEntity
  8
0
 62
7
100
AcDbSpline
 70
8
 71
3
 72
8
 73
4
 74
0
 40
0
 40
0
 40
0
 40
0
 40
1
 40
1
 40
1
 40
1
 10
7.268659
 20
3.278859
 30
0.0
 10
7.202313
 20
3.279111
 30
0.0
 10
7.153143
 20
3.266740
 30
0.0
 10
7.137815
 20
3.208246
 30
0.0
  0
SPLINE
  5
243
100
AcDbEntity
  8
0
 62
7
100
AcDbSpline
 70
8
 71
3
 72
8
 73
4
 74
0
 40
0
 40
0
 40
0
 40
0
 40
1
 40
1
 40
1
 40
1
 10
7.137815
 20
3.208246
 30
0.0
 10
7.124724
 20
3.158291
 30
0.0
 10
7.121211
 20
3.042112
 30
0.0
 10
7.034257
 20
3.084266
 30
0.0
  0
SPLINE
  5
244
100
AcDbEntity
  8
0
 62
7
100
AcDbSpline
 70
8
 71
3
 72
8
 73
4
 74
0
 40
0
 40
0
 40
0
 40
0
 40
1
 40
1
 40
1
 40
1
 10
7.034257
 20
3.084266
 30
0.0
 10
6.920738
 20
3.139299
 30
0.0
 10
6.885114
 20
2.984039
 30
0.0
 10
6.911592
 20
2.716174
 30
0.0
  0
SPLINE
  5
245
100
AcDbEntity
  8
0
 62
7
100
AcDbSpline
 70
8
 71
3
 72
8
 73
4
 74
0
 40
0
 40
0
 40
0
 40
0
 40
1
 40
1
 40
1
 40
1
 10
6.911592
 20
2.716174
 30
0.0
 10
6.930746
 20
2.522401
 30
0.0
 10
6.947457
 20
2.484746
 30
0.0
 10
7.000178
 20
2.516548
 30
0.0
  0
SPLINE
  5
246
100
AcDbEntity
  8
0
 62
7
100
AcDbSpline
 70
8
 71
3
 72
8
 73
4
 74
0
 40
0
 40
0
 40
0
 40
0
 40
1
 40
1
 40
1
 40
1
 10
7.000178
 20
2.516548
 30
0.0
 10
7.052459
 20
2.548085
 30
0.0
 10
7.063671
 20
2.529871
 30
0.0
 10
7.057551
 20
2.423345
 30
0.0
  0
SPLINE
  5
247
100
AcDbEntity
  8
0
 62
7
100
AcDbSpline
 70
8
 71
3
 72
8
 73
4
 74
0
 40
0
 40
0
 40
0
 40
0
 40
1
 40
1
 40
1
 40
1
 10
7.057551
 20
2.423345
 30
0.0
 10
7.053368
 20
2.350525
 30
0.0
 10
7.058041
 20
2.288811
 30
0.0
 10
7.049035
 20
2.241186
 30
0.0
  0
SPLINE
  5
248
100
AcDbEntity
  8
0
 62
7
100
AcDbSpline
 70
8
 71
3
 72
8
 73
4
 74
0
 40
0
 40
0
 40
0
 40
0
 40
1
 40
1
 40
1
 40
1
 10
7.049035
 20
2.241186
 30
0.0
 10
7.043973
 20
2.214424
 30
0.0
 10
7.010402
 20
2.189641
 30
0.0
 10
6.941794
 20
2.198711
 30
0.0
  0
SPLINE
  5
249
100
AcDbEntity
  8
0
 62
7
100
AcDbSpline
 70
8
 71
3
 72
8
 73
4
 74
0
 40
0
 40
0
 40
0
 40
0
 40
1
 40
1
 40
1
 40
1
 10
6.941794
 20
2.198711
 30
0.0
 10
6.771756
 20
2.221192
 30
0.0
 10
6.691936
 20
2.095927
 30
0.0
 10
6.690459
 20
1.834388
 30
0.0
  0
SPLINE
  5
24a
100
AcDbEntity
  8
0
 62
7
100
AcDbSpline
 70
8
 71
3
 72
8
 73
4
 74
0
 40
0
 40
0
 40
0
 40
0
 40
1
 40
1
 40
1
 40
1
 10
6.690459
 20
1.834388
 30
0.0
 10
6.688790
 20
1.538763
 30
0.0
 10
6.691365
 20
1.536928
 30
0.0
 10
6.967602
 20
1.636700
 30
0.0
  0
SPLINE
  5
24b
100
AcDbEntity
  8
0
 62
7
100
AcDbSpline
 70
8
 71
3
 72
8
 73
4
 74
0
 40
0
 40
0
 40
0
 40
0
 40
1
 40
1
 40
1
 40
1
 10
6.967602
 20
1.636700
 30
0.0
 10
7.157815
 20
1.705401
 30
0.0
 10
7.213409
 20
1.709918
 30
0.0
 10
7.261682
 20
1.660592
 30
0.0
  0
SPLINE
  5
24c
100
AcDbEntity
  8
0
 62
7
100
AcDbSpline
 70
8
 71
3
 72
8
 73
4
 74
0
 40
0
 40
0
 40
0
 40
0
 40
1
 40
1
 40
1
 40
1
 10
7.261682
 20
1.660592
 30
0.0
 10
7.294421
 20
1.627138
 30
0.0
 10
7.319606
 20
1.619738
 30
0.0
 10
7.338207
 20
1.633524
 30
0.0
  0
SPLINE
  5
24d
100
AcDbEntity
  8
0
 62
7
100
AcDbSpline
 70
8
 71
3
 72
8
 73
4
 74
0
 40
0
 40
0
 40
0
 40
0
 40
1
 40
1
 40
1
 40
1
 10
7.338207
 20
1.633524
 30
0.0
 10
7.356808
 20
1.647311
 30
0.0
 10
7.361638
 20
1.671591
 30
0.0
 10
7.328381
 20
1.698103
 30
0.0
  0
SPLINE
  5
24e
100
AcDbEntity
  8
0
 62
7
100
AcDbSpline
 70
8
 71
3
 72
8
 73
4
 74
0
 40
0
 40
0
 40
0
 40
0
 40
1
 40
1
 40
1
 40
1
 10
7.328381
 20
1.698103
 30
0.0
 10
7.277664
 20
1.738531
 30
0.0
 10
7.282628
 20
1.762908
 30
0.0
 10
7.344951
 20
1.736209
 30
0.0
  0
SPLINE
  5
24f
100
AcDbEntity
  8
0
 62
7
100
AcDbSpline
 70
8
 71
3
 72
8
 73
4
 74
0
 40
0
 40
0
 40
0
 40
0
 40
1
 40
1
 40
1
 40
1
 10
7.344951
 20
1.736209
 30
0.0
 10
7.384863
 20
1.719110
 30
0.0
 10
7.419329
 20
1.701479
 30
0.0
 10
7.416077
 20
1.671371
 30
0.0
  0
SPLINE
  5
250
100
AcDbEntity
  8
0
 62
7
100
AcDbSpline
 70
8
 71
3
 72
8
 73
4
 74
0
 40
0
 40
0
 40
0
 40
0
 40
1
 40
1
 40
1
 40
1
 10
7.416077
 20
1.671371
 30
0.0
 10
7.407218
 20
1.589368
 30
0.0
 10
7.305499
 20
1.528656
 30
0.0
 10
7.201325
 20
1.543194
 30
0.0
  0
SPLINE
  5
251
100
AcDbEntity
  8
0
 62
7
100
AcDbSpline
 70
8
 71
3
 72
8
 73
4
 74
0
 40
0
 40
0
 40
0
 40
0
 40
1
 40
1
 40
1
 40
1
 10
7.201325
 20
1.543194
 30
0.0
 10
6.992128
 20
1.572389
 30
0.0
 10
6.930292
 20
1.386944
 30
0.0
 10
7.015264
 20
0.985206
 30
0.0
  0
SPLINE
  5
252
100
AcDbEntity
  8
0
 62
7
100
AcDbSpline
 70
8
 71
3
 72
8
 73
4
 74
0
 40
0
 40
0
 40
0
 40
0
 40
1
 40
1
 40
1
 40
1
 10
7.015264
 20
0.985206
 30
0.0
 10
7.072368
 20
0.715221
 30
0.0
 10
7.085671
 20
0.708004
 30
0.0
 10
7.304938
 20
0.828048
 30
0.0
  0
SPLINE
  5
253
100
AcDbEntity
  8
0
 62
7
100
AcDbSpline
 70
8
 71
3
 72
8
 73
4
 74
0
 40
0
 40
0
 40
0
 40
0
 40
1
 40
1
 40
1
 40
1
 10
7.304938
 20
0.828048
 30
0.0
 10
7.688369
 20
1.037969
 30
0.0
 10
7.818699
 20
1.499778
 30
0.0
 10
7.506796
 20
1.543306
 30
0.0
  0
SPLINE
  5
254
100
AcDbEntity
  8
0
 62
7
100
AcDbSpline
 70
8
 71
3
 72
8
 73
4
 74
0
 40
0
 40
0
 40
0
 40
0
 40
1
 40
1
 40
1
 40
1
 10
7.506796
 20
1.543306
 30
0.0
 10
7.482590
 20
1.546684
 30
0.0
 10
7.468958
 20
1.591824
 30
0.0
 10
7.476502
 20
1.643616
 30
0.0
  0
SPLINE
  5
255
100
AcDbEntity
  8
0
 62
7
100
AcDbSpline
 70
8
 71
3
 72
8
 73
4
 74
0
 40
0
 40
0
 40
0
 40
0
 40
1
 40
1
 40
1
 40
1
 10
7.476502
 20
1.643616
 30
0.0
 10
7.485164
 20
1.703077
 30
0.0
 10
7.455406
 20
1.758225
 30
0.0
 10
7.395759
 20
1.793247
 30
0.0
  0
SPLINE
  5
256
100
AcDbEntity
  8
0
 62
7
100
AcDbSpline
 70
8
 71
3
 72
8
 73
4
 74
0
 40
0
 40
0
 40
0
 40
0
 40
1
 40
1
 40
1
 40
1
 10
7.395759
 20
1.793247
 30
0.0
 10
7.343806
 20
1.823753
 30
0.0
 10
7.304970
 20
1.882710
 30
0.0
 10
7.309460
 20
1.924264
 30
0.0
  0
SPLINE
  5
257
100
AcDbEntity
  8
0
 62
7
100
AcDbSpline
 70
8
 71
3
 72
8
 73
4
 74
0
 40
0
 40
0
 40
0
 40
0
 40
1
 40
1
 40
1
 40
1
 10
7.309460
 20
1.924264
 30
0.0
 10
7.313948
 20
1.965817
 30
0.0
 10
7.289111
 20
2.014866
 30
0.0
 10
7.254266
 20
2.033260
 30
0.0
  0
SPLINE
  5
258
100
AcDbEntity
  8
0
 62
7
100
AcDbSpline
 70
8
 71
3
 72
8
 73
4
 74
0
 40
0
 40
0
 40
0
 40
0
 40
1
 40
1
 40
1
 40
1
 10
7.254266
 20
2.033260
 30
0.0
 10
7.219420
 20
2.051655
 30
0.0
 10
7.195151
 20
2.105967
 30
0.0
 10
7.200335
 20
2.153953
 30
0.0
  0
SPLINE
  5
259
100
AcDbEntity
  8
0
 62
7
100
AcDbSpline
 70
8
 71
3
 72
8
 73
4
 74
0
 40
0
 40
0
 40
0
 40
0
 40
1
 40
1
 40
1
 40
1
 10
7.200335
 20
2.153953
 30
0.0
 10
7.205519
 20
2.201939
 30
0.0
 10
7.193548
 20
2.304487
 30
0.0
 10
7.173734
 20
2.381836
 30
0.0
  0
SPLINE
  5
25a
100
AcDbEntity
  8
0
 62
7
100
AcDbSpline
 70
8
 71
3
 72
8
 73
4
 74
0
 40
0
 40
0
 40
0
 40
0
 40
1
 40
1
 40
1
 40
1
 10
7.173734
 20
2.381836
 30
0.0
 10
7.144281
 20
2.496808
 30
0.0
 10
7.115368
 20
2.597021
 30
0.0
 10
7.209385
 20
2.676369
 30
0.0
  0
SPLINE
  5
25b
100
AcDbEntity
  8
0
 62
7
100
AcDbSpline
 70
8
 71
3
 72
8
 73
4
 74
0
 40
0
 40
0
 40
0
 40
0
 40
1
 40
1
 40
1
 40
1
 10
7.209385
 20
2.676369
 30
0.0
 10
7.277625
 20
2.733963
 30
0.0
 10
7.325769
 20
2.826986
 30
0.0
 10
7.328913
 20
2.910383
 30
0.0
  0
SPLINE
  5
25c
100
AcDbEntity
  8
0
 62
7
100
AcDbSpline
 70
8
 71
3
 72
8
 73
4
 74
0
 40
0
 40
0
 40
0
 40
0
 40
1
 40
1
 40
1
 40
1
 10
7.328913
 20
2.910383
 30
0.0
 10
7.324025
 20
2.996284
 30
0.0
 10
7.284356
 20
3.030804
 30
0.0
 10
7.192043
 20
3.031134
 30
0.0
  0
LWPOLYLINE
  5
25d
100
AcDbEntity
  8
0
 62
7
100
AcDbPolyline
 90
2
 70
0
 10
7.343861
 20
0.235508
 30
0.0
 10
7.406764
 20
0.083271
 30
0.0
  0
SPLINE
  5
25e
100
AcDbEntity
  8
0
 62
7
100
AcDbSpline
 70
8
 71
3
 72
8
 73
4
 74
0
 40
0
 40
0
 40
0
 40
0
 40
1
 40
1
 40
1
 40
1
 10
9.616553
 20
5.507355
 30
0.0
 10
9.666702
 20
5.536452
 30
0.0
 10
9.707594
 20
5.577886
 30
0.0
 10
9.802477
 20
5.591128
 30
0.0
  0
SPLINE
  5
25f
100
AcDbEntity
  8
0
 62
7
100
AcDbSpline
 70
8
 71
3
 72
8
 73
4
 74
0
 40
0
 40
0
 40
0
 40
0
 40
1
 40
1
 40
1
 40
1
 10
9.802477
 20
5.591128
 30
0.0
 10
9.861530
 20
5.599369
 30
0.0
 10
9.817236
 20
5.522380
 30
0.0
 10
9.735289
 20
5.474344
 30
0.0
  0
SPLINE
  5
260
100
AcDbEntity
  8
0
 62
7
100
AcDbSpline
 70
8
 71
3
 72
8
 73
4
 74
0
 40
0
 40
0
 40
0
 40
0
 40
1
 40
1
 40
1
 40
1
 10
9.735289
 20
5.474344
 30
0.0
 10
9.615054
 20
5.403865
 30
0.0
 10
9.684459
 20
5.246639
 30
0.0
 10
9.736981
 20
5.131119
 30
0.0
  0
SPLINE
  5
261
100
AcDbEntity
  8
0
 62
7
100
AcDbSpline
 70
8
 71
3
 72
8
 73
4
 74
0
 40
0
 40
0
 40
0
 40
0
 40
1
 40
1
 40
1
 40
1
 10
9.736981
 20
5.131119
 30
0.0
 10
9.751895
 20
5.098317
 30
0.0
 10
9.795435
 20
5.030060
 30
0.0
 10
9.879367
 20
4.934773
 30
0.0
  0
SPLINE
  5
262
100
AcDbEntity
  8
0
 62
7
100
AcDbSpline
 70
8
 71
3
 72
8
 73
4
 74
0
 40
0
 40
0
 40
0
 40
0
 40
1
 40
1
 40
1
 40
1
 10
9.879367
 20
4.934773
 30
0.0
 10
10.120960
 20
4.660491
 30
0.0
 10
10.208654
 20
4.849426
 30
0.0
 10
10.211527
 20
5.139359
 30
0.0
  0
SPLINE
  5
263
100
AcDbEntity
  8
0
 62
7
100
AcDbSpline
 70
8
 71
3
 72
8
 73
4
 74
0
 40
0
 40
0
 40
0
 40
0
 40
1
 40
1
 40
1
 40
1
 10
10.211527
 20
5.139359
 30
0.0
 10
10.213404
 20
5.328787
 30
0.0
 10
10.102541
 20
5.547662
 30
0.0
 10
9.992816
 20
5.573488
 30
0.0
  0
SPLINE
  5
264
100
AcDbEntity
  8
0
 62
7
100
AcDbSpline
 70
8
 71
3
 72
8
 73
4
 74
0
 40
0
 40
0
 40
0
 40
0
 40
1
 40
1
 40
1
 40
1
 10
9.992816
 20
5.573488
 30
0.0
 10
9.893752
 20
5.596804
 30
0.0
 10
9.914105
 20
5.621463
 30
0.0
 10
10.012218
 20
5.617689
 30
0.0
  0
SPLINE
  5
265
100
AcDbEntity
  8
0
 62
7
100
AcDbSpline
 70
8
 71
3
 72
8
 73
4
 74
0
 40
0
 40
0
 40
0
 40
0
 40
1
 40
1
 40
1
 40
1
 10
10.012218
 20
5.617689
 30
0.0
 10
10.252982
 20
5.608428
 30
0.0
 10
10.958659
 20
5.158884
 30
0.0
 10
10.973824
 20
5.009024
 30
0.0
  0
SPLINE
  5
266
100
AcDbEntity
  8
0
 62
7
100
AcDbSpline
 70
8
 71
3
 72
8
 73
4
 74
0
 40
0
 40
0
 40
0
 40
0
 40
1
 40
1
 40
1
 40
1
 10
10.973824
 20
5.009024
 30
0.0
 10
10.990543
 20
4.843793
 30
0.0
 10
10.888792
 20
4.849013
 30
0.0
 10
10.816580
 20
4.887119
 30
0.0
  0
SPLINE
  5
267
100
AcDbEntity
  8
0
 62
7
100
AcDbSpline
 70
8
 71
3
 72
8
 73
4
 74
0
 40
0
 40
0
 40
0
 40
0
 40
1
 40
1
 40
1
 40
1
 10
10.816580
 20
4.887119
 30
0.0
 10
10.769996
 20
4.911701
 30
0.0
 10
10.731706
 20
4.910274
 30
0.0
 10
10.716421
 20
4.891573
 30
0.0
  0
SPLINE
  5
268
100
AcDbEntity
  8
0
 62
7
100
AcDbSpline
 70
8
 71
3
 72
8
 73
4
 74
0
 40
0
 40
0
 40
0
 40
0
 40
1
 40
1
 40
1
 40
1
 10
10.716421
 20
4.891573
 30
0.0
 10
10.653493
 20
4.814582
 30
0.0
 10
10.885602
 20
4.705570
 30
0.0
 10
10.977470
 20
4.768970
 30
0.0
  0
SPLINE
  5
269
100
AcDbEntity
  8
0
 62
7
100
AcDbSpline
 70
8
 71
3
 72
8
 73
4
 74
0
 40
0
 40
0
 40
0
 40
0
 40
1
 40
1
 40
1
 40
1
 10
10.977470
 20
4.768970
 30
0.0
 10
11.072745
 20
4.834722
 30
0.0
 10
11.117945
 20
5.009749
 30
0.0
 10
11.042468
 20
5.112435
 30
0.0
  0
SPLINE
  5
26a
100
AcDbEntity
  8
0
 62
7
100
AcDbSpline
 70
8
 71
3
 72
8
 73
4
 74
0
 40
0
 40
0
 40
0
 40
0
 40
1
 40
1
 40
1
 40
1
 10
11.042468
 20
5.112435
 30
0.0
 10
10.981802
 20
5.173483
 30
0.0
 10
10.901279
 20
5.258243
 30
0.0
 10
10.901433
 20
5.336658
 30
0.0
  0
SPLINE
  5
26b
100
AcDbEntity
  8
0
 62
7
100
AcDbSpline
 70
8
 71
3
 72
8
 73
4
 74
0
 40
0
 40
0
 40
0
 40
0
 40
1
 40
1
 40
1
 40
1
 10
10.901433
 20
5.336658
 30
0.0
 10
10.901433
 20
5.365821
 30
0.0
 10
10.911620
 20
5.429138
 30
0.0
 10
10.936222
 20
5.443338
 30
0.0
  0
SPLINE
  5
26c
100
AcDbEntity
  8
0
 62
7
100
AcDbSpline
 70
8
 71
3
 72
8
 73
4
 74
0
 40
0
 40
0
 40
0
 40
0
 40
1
 40
1
 40
1
 40
1
 10
10.936222
 20
5.443338
 30
0.0
 10
10.994252
 20
5.476832
 30
0.0
 10
11.057906
 20
5.501467
 30
0.0
 10
11.048719
 20
5.464259
 30
0.0
  0
SPLINE
  5
26d
100
AcDbEntity
  8
0
 62
7
100
AcDbSpline
 70
8
 71
3
 72
8
 73
4
 74
0
 40
0
 40
0
 40
0
 40
0
 40
1
 40
1
 40
1
 40
1
 10
11.048719
 20
5.464259
 30
0.0
 10
11.022427
 20
5.357780
 30
0.0
 10
11.031872
 20
5.304568
 30
0.0
 10
11.036907
 20
5.280691
 30
0.0
  0
SPLINE
  5
26e
100
AcDbEntity
  8
0
 62
7
100
AcDbSpline
 70
8
 71
3
 72
8
 73
4
 74
0
 40
0
 40
0
 40
0
 40
0
 40
1
 40
1
 40
1
 40
1
 10
11.036907
 20
5.280691
 30
0.0
 10
11.055714
 20
5.191511
 30
0.0
 10
11.120546
 20
5.089423
 30
0.0
 10
11.185308
 20
5.015146
 30
0.0
  0
SPLINE
  5
26f
100
AcDbEntity
  8
0
 62
7
100
AcDbSpline
 70
8
 71
3
 72
8
 73
4
 74
0
 40
0
 40
0
 40
0
 40
0
 40
1
 40
1
 40
1
 40
1
 10
11.185308
 20
5.015146
 30
0.0
 10
11.323103
 20
4.857105
 30
0.0
 10
11.379570
 20
4.911500
 30
0.0
 10
11.447815
 20
5.131400
 30
0.0
  0
SPLINE
  5
270
100
AcDbEntity
  8
0
 62
7
100
AcDbSpline
 70
8
 71
3
 72
8
 73
4
 74
0
 40
0
 40
0
 40
0
 40
0
 40
1
 40
1
 40
1
 40
1
 10
11.447815
 20
5.131400
 30
0.0
 10
11.535051
 20
5.412494
 30
0.0
 10
11.409447
 20
5.642557
 30
0.0
 10
11.243543
 20
5.554979
 30
0.0
  0
SPLINE
  5
271
100
AcDbEntity
  8
0
 62
7
100
AcDbSpline
 70
8
 71
3
 72
8
 73
4
 74
0
 40
0
 40
0
 40
0
 40
0
 40
1
 40
1
 40
1
 40
1
 10
11.243543
 20
5.554979
 30
0.0
 10
11.208103
 20
5.536270
 30
0.0
 10
11.163853
 20
5.539380
 30
0.0
 10
11.145211
 20
5.561890
 30
0.0
  0
SPLINE
  5
272
100
AcDbEntity
  8
0
 62
7
100
AcDbSpline
 70
8
 71
3
 72
8
 73
4
 74
0
 40
0
 40
0
 40
0
 40
0
 40
1
 40
1
 40
1
 40
1
 10
11.145211
 20
5.561890
 30
0.0
 10
11.089919
 20
5.628652
 30
0.0
 10
10.966726
 20
5.566203
 30
0.0
 10
10.857109
 20
5.476868
 30
0.0
  0
SPLINE
  5
273
100
AcDbEntity
  8
0
 62
7
100
AcDbSpline
 70
8
 71
3
 72
8
 73
4
 74
0
 40
0
 40
0
 40
0
 40
0
 40
1
 40
1
 40
1
 40
1
 10
10.857109
 20
5.476868
 30
0.0
 10
10.774944
 20
5.409903
 30
0.0
 10
10.747341
 20
5.360936
 30
0.0
 10
10.598120
 20
5.504837
 30
0.0
  0
SPLINE
  5
274
100
AcDbEntity
  8
0
 62
7
100
AcDbSpline
 70
8
 71
3
 72
8
 73
4
 74
0
 40
0
 40
0
 40
0
 40
0
 40
1
 40
1
 40
1
 40
1
 10
10.598120
 20
5.504837
 30
0.0
 10
10.480994
 20
5.617788
 30
0.0
 10
10.441220
 20
5.631022
 30
0.0
 10
10.538111
 20
5.651048
 30
0.0
  0
SPLINE
  5
275
100
AcDbEntity
  8
0
 62
7
100
AcDbSpline
 70
8
 71
3
 72
8
 73
4
 74
0
 40
0
 40
0
 40
0
 40
0
 40
1
 40
1
 40
1
 40
1
 10
10.538111
 20
5.651048
 30
0.0
 10
10.600789
 20
5.664003
 30
0.0
 10
10.668087
 20
5.640336
 30
0.0
 10
10.685765
 20
5.607541
 30
0.0
  0
SPLINE
  5
276
100
AcDbEntity
  8
0
 62
7
100
AcDbSpline
 70
8
 71
3
 72
8
 73
4
 74
0
 40
0
 40
0
 40
0
 40
0
 40
1
 40
1
 40
1
 40
1
 10
10.685765
 20
5.607541
 30
0.0
 10
10.772628
 20
5.446382
 30
0.0
 10
10.959109
 20
5.584486
 30
0.0
 10
11.179142
 20
5.972924
 30
0.0
  0
SPLINE
  5
277
100
AcDbEntity
  8
0
 62
7
100
AcDbSpline
 70
8
 71
3
 72
8
 73
4
 74
0
 40
0
 40
0
 40
0
 40
0
 40
1
 40
1
 40
1
 40
1
 10
11.179142
 20
5.972924
 30
0.0
 10
11.216193
 20
6.038334
 30
0.0
 10
11.275273
 20
6.095866
 30
0.0
 10
11.310429
 20
6.100772
 30
0.0
  0
SPLINE
  5
278
100
AcDbEntity
  8
0
 62
7
100
AcDbSpline
 70
8
 71
3
 72
8
 73
4
 74
0
 40
0
 40
0
 40
0
 40
0
 40
1
 40
1
 40
1
 40
1
 10
11.310429
 20
6.100772
 30
0.0
 10
11.443093
 20
6.119287
 30
0.0
 10
11.359509
 20
6.183017
 30
0.0
 10
11.198687
 20
6.185971
 30
0.0
  0
SPLINE
  5
279
100
AcDbEntity
  8
0
 62
7
100
AcDbSpline
 70
8
 71
3
 72
8
 73
4
 74
0
 40
0
 40
0
 40
0
 40
0
 40
1
 40
1
 40
1
 40
1
 10
11.198687
 20
6.185971
 30
0.0
 10
10.783611
 20
6.193597
 30
0.0
 10
10.490095
 20
6.027094
 30
0.0
 10
10.568745
 20
5.828624
 30
0.0
  0
SPLINE
  5
27a
100
AcDbEntity
  8
0
 62
7
100
AcDbSpline
 70
8
 71
3
 72
8
 73
4
 74
0
 40
0
 40
0
 40
0
 40
0
 40
1
 40
1
 40
1
 40
1
 10
10.568745
 20
5.828624
 30
0.0
 10
10.602400
 20
5.743698
 30
0.0
 10
10.353404
 20
5.643382
 30
0.0
 10
10.219371
 20
5.687868
 30
0.0
  0
SPLINE
  5
27b
100
AcDbEntity
  8
0
 62
7
100
AcDbSpline
 70
8
 71
3
 72
8
 73
4
 74
0
 40
0
 40
0
 40
0
 40
0
 40
1
 40
1
 40
1
 40
1
 10
10.219371
 20
5.687868
 30
0.0
 10
10.056780
 20
5.741832
 30
0.0
 10
9.665472
 20
5.701073
 30
0.0
 10
9.620695
 20
5.625509
 30
0.0
  0
SPLINE
  5
27c
100
AcDbEntity
  8
0
 62
7
100
AcDbSpline
 70
8
 71
3
 72
8
 73
4
 74
0
 40
0
 40
0
 40
0
 40
0
 40
1
 40
1
 40
1
 40
1
 10
9.620695
 20
5.625509
 30
0.0
 10
9.585825
 20
5.566666
 30
0.0
 10
9.556564
 20
5.559557
 30
0.0
 10
9.460844
 20
5.586674
 30
0.0
  0
SPLINE
  5
27d
100
AcDbEntity
  8
0
 62
7
100
AcDbSpline
 70
8
 71
3
 72
8
 73
4
 74
0
 40
0
 40
0
 40
0
 40
0
 40
1
 40
1
 40
1
 40
1
 10
9.460844
 20
5.586674
 30
0.0
 10
9.237601
 20
5.649919
 30
0.0
 10
9.055191
 20
5.980492
 30
0.0
 10
9.207445
 20
6.060865
 30
0.0
  0
SPLINE
  5
27e
100
AcDbEntity
  8
0
 62
7
100
AcDbSpline
 70
8
 71
3
 72
8
 73
4
 74
0
 40
0
 40
0
 40
0
 40
0
 40
1
 40
1
 40
1
 40
1
 10
9.207445
 20
6.060865
 30
0.0
 10
9.309706
 20
6.114847
 30
0.0
 10
9.373698
 20
6.093158
 30
0.0
 10
9.331677
 20
5.992712
 30
0.0
  0
SPLINE
  5
27f
100
AcDbEntity
  8
0
 62
7
100
AcDbSpline
 70
8
 71
3
 72
8
 73
4
 74
0
 40
0
 40
0
 40
0
 40
0
 40
1
 40
1
 40
1
 40
1
 10
9.331677
 20
5.992712
 30
0.0
 10
9.257022
 20
5.814259
 30
0.0
 10
9.480295
 20
5.720421
 30
0.0
 10
9.843390
 20
5.777650
 30
0.0
  0
SPLINE
  5
280
100
AcDbEntity
  8
0
 62
7
100
AcDbSpline
 70
8
 71
3
 72
8
 73
4
 74
0
 40
0
 40
0
 40
0
 40
0
 40
1
 40
1
 40
1
 40
1
 10
9.843390
 20
5.777650
 30
0.0
 10
10.175523
 20
5.829998
 30
0.0
 10
10.187791
 20
5.842162
 30
0.0
 10
10.072604
 20
6.004946
 30
0.0
  0
SPLINE
  5
281
100
AcDbEntity
  8
0
 62
7
100
AcDbSpline
 70
8
 71
3
 72
8
 73
4
 74
0
 40
0
 40
0
 40
0
 40
0
 40
1
 40
1
 40
1
 40
1
 10
10.072604
 20
6.004946
 30
0.0
 10
9.933208
 20
6.201945
 30
0.0
 10
9.725493
 20
6.269636
 30
0.0
 10
9.585031
 20
6.272872
 30
0.0
  0
SPLINE
  5
282
100
AcDbEntity
  8
0
 62
7
100
AcDbSpline
 70
8
 71
3
 72
8
 73
4
 74
0
 40
0
 40
0
 40
0
 40
0
 40
1
 40
1
 40
1
 40
1
 10
9.585031
 20
6.272872
 30
0.0
 10
9.426139
 20
6.276532
 30
0.0
 10
9.376752
 20
6.186012
 30
0.0
 10
9.315867
 20
6.194309
 30
0.0
  0
SPLINE
  5
283
100
AcDbEntity
  8
0
 62
7
100
AcDbSpline
 70
8
 71
3
 72
8
 73
4
 74
0
 40
0
 40
0
 40
0
 40
0
 40
1
 40
1
 40
1
 40
1
 10
9.315867
 20
6.194309
 30
0.0
 10
8.985166
 20
6.239373
 30
0.0
 10
8.962209
 20
5.818482
 30
0.0
 10
9.238979
 20
5.625874
 30
0.0
  0
SPLINE
  5
284
100
AcDbEntity
  8
0
 62
7
100
AcDbSpline
 70
8
 71
3
 72
8
 73
4
 74
0
 40
0
 40
0
 40
0
 40
0
 40
1
 40
1
 40
1
 40
1
 10
9.238979
 20
5.625874
 30
0.0
 10
9.318401
 20
5.570602
 30
0.0
 10
9.401690
 20
5.540755
 30
0.0
 10
9.398524
 20
5.491966
 30
0.0
  0
SPLINE
  5
285
100
AcDbEntity
  8
0
 62
7
100
AcDbSpline
 70
8
 71
3
 72
8
 73
4
 74
0
 40
0
 40
0
 40
0
 40
0
 40
1
 40
1
 40
1
 40
1
 10
9.398524
 20
5.491966
 30
0.0
 10
9.396988
 20
5.468300
 30
0.0
 10
9.360243
 20
5.446086
 30
0.0
 10
9.337391
 20
5.419811
 30
0.0
  0
SPLINE
  5
286
100
AcDbEntity
  8
0
 62
7
100
AcDbSpline
 70
8
 71
3
 72
8
 73
4
 74
0
 40
0
 40
0
 40
0
 40
0
 40
1
 40
1
 40
1
 40
1
 10
9.337391
 20
5.419811
 30
0.0
 10
9.321105
 20
5.399063
 30
0.0
 10
9.375365
 20
5.354917
 30
0.0
 10
9.403465
 20
5.379961
 30
0.0
  0
SPLINE
  5
287
100
AcDbEntity
  8
0
 62
7
100
AcDbSpline
 70
8
 71
3
 72
8
 73
4
 74
0
 40
0
 40
0
 40
0
 40
0
 40
1
 40
1
 40
1
 40
1
 10
9.403465
 20
5.379961
 30
0.0
 10
9.472897
 20
5.441843
 30
0.0
 10
9.545649
 20
5.466215
 30
0.0
 10
9.616553
 20
5.507355
 30
0.0
  0
LWPOLYLINE
  5
288
100
AcDbEntity
  8
0
 62
7
100
AcDbPolyline
 90
1
 70
1
 10
7.192043
 20
3.031134
 30
0.0
  0
LWPOLYLINE
  5
289
100
AcDbEntity
  8
0
 62
7
100
AcDbPolyline
 90
1
 70
1
 10
9.616553
 20
5.507355
 30
0.0
  0
ENDSEC
  0
SECTION
  2
OBJECTS
  0
DICTIONARY
  5
C
330
0
100
AcDbDictionary
  3
ACAD_GROUP
350
D
  3
ACAD_MLINESTYLE
350
17
  0
DICTIONARY
  5
D
330
C
100
AcDbDictionary
  0
DICTIONARY
  5
1A
330
C
100
AcDbDictionary
  0
DICTIONARY
  5
17
330
C
100
AcDbDictionary
  3
STANDARD
350
18
  0
DICTIONARY
  5
19
330
C
100
AcDbDictionary
  0
ENDSEC
  0
EOF
